# This file was created with Minddesk Qubicle 3.0
# Get Qubicle at www.getqubicle.com

mtllib aeration.mtl

vn 0.0 0.0 1.0
vn 0.0 0.0 -1.0
vn -1.0 0.0 0.0
vn 1.0 0.0 0.0
vn 0.0 1.0 0.0
vn 0.0 -1.0 0.0

v 20.00000 5.00000 -20.00000
v 20.00000 0.00000 -20.00000
v -20.00000 0.00000 -20.00000
v -20.00000 5.00000 -20.00000
v 14.00000 1.00000 15.00000
v 14.00000 0.00000 15.00000
v -14.00000 0.00000 15.00000
v -14.00000 1.00000 15.00000
v -11.00000 2.00000 13.00000
v -11.00000 1.00000 13.00000
v -13.00000 1.00000 13.00000
v -13.00000 2.00000 13.00000
v -5.00000 2.00000 13.00000
v -5.00000 1.00000 13.00000
v -7.00000 1.00000 13.00000
v -7.00000 2.00000 13.00000
v 1.00000 2.00000 13.00000
v 1.00000 1.00000 13.00000
v -1.00000 1.00000 13.00000
v -1.00000 2.00000 13.00000
v 7.00000 2.00000 13.00000
v 7.00000 1.00000 13.00000
v 5.00000 1.00000 13.00000
v 5.00000 2.00000 13.00000
v 13.00000 2.00000 13.00000
v 13.00000 1.00000 13.00000
v 11.00000 1.00000 13.00000
v 11.00000 2.00000 13.00000
v -16.00000 1.00000 -16.00000
v -16.00000 0.00000 -16.00000
v -17.00000 0.00000 -16.00000
v -17.00000 1.00000 -16.00000
v 17.00000 1.00000 -16.00000
v 17.00000 0.00000 -16.00000
v 16.00000 0.00000 -16.00000
v 16.00000 1.00000 -16.00000
v -16.00000 1.00000 17.00000
v -16.00000 0.00000 17.00000
v -17.00000 0.00000 17.00000
v -17.00000 1.00000 17.00000
v 17.00000 1.00000 17.00000
v 17.00000 0.00000 17.00000
v 16.00000 0.00000 17.00000
v 16.00000 1.00000 17.00000
v -20.00000 5.00000 20.00000
v -20.00000 0.00000 20.00000
v 20.00000 0.00000 20.00000
v 20.00000 5.00000 20.00000
v -14.00000 1.00000 -15.00000
v -14.00000 0.00000 -15.00000
v 14.00000 0.00000 -15.00000
v 14.00000 1.00000 -15.00000
v -13.00000 2.00000 -13.00000
v -13.00000 1.00000 -13.00000
v -11.00000 1.00000 -13.00000
v -11.00000 2.00000 -13.00000
v -7.00000 2.00000 -13.00000
v -7.00000 1.00000 -13.00000
v -5.00000 1.00000 -13.00000
v -5.00000 2.00000 -13.00000
v -1.00000 2.00000 -13.00000
v -1.00000 1.00000 -13.00000
v 1.00000 1.00000 -13.00000
v 1.00000 2.00000 -13.00000
v 5.00000 2.00000 -13.00000
v 5.00000 1.00000 -13.00000
v 7.00000 1.00000 -13.00000
v 7.00000 2.00000 -13.00000
v 11.00000 2.00000 -13.00000
v 11.00000 1.00000 -13.00000
v 13.00000 1.00000 -13.00000
v 13.00000 2.00000 -13.00000
v -17.00000 1.00000 -17.00000
v -17.00000 0.00000 -17.00000
v -16.00000 0.00000 -17.00000
v -16.00000 1.00000 -17.00000
v 16.00000 1.00000 -17.00000
v 16.00000 0.00000 -17.00000
v 17.00000 0.00000 -17.00000
v 17.00000 1.00000 -17.00000
v -17.00000 1.00000 16.00000
v -17.00000 0.00000 16.00000
v -16.00000 0.00000 16.00000
v -16.00000 1.00000 16.00000
v 16.00000 1.00000 16.00000
v 16.00000 0.00000 16.00000
v 17.00000 0.00000 16.00000
v 17.00000 1.00000 16.00000
v -20.00000 0.00000 15.00000
v -20.00000 0.00000 -15.00000
v 20.00000 0.00000 -15.00000
v 20.00000 0.00000 15.00000
v -14.00000 1.00000 13.00000
v -14.00000 1.00000 -13.00000
v 14.00000 1.00000 -13.00000
v 14.00000 1.00000 13.00000
v -20.00000 0.00000 -17.00000
v 20.00000 0.00000 -17.00000
v -20.00000 0.00000 17.00000
v 20.00000 0.00000 17.00000
v -20.00000 0.00000 -16.00000
v 20.00000 0.00000 -16.00000
v -20.00000 0.00000 16.00000
v 20.00000 0.00000 16.00000

vt 0.00781 0.32031
vt 0.00781 0.00781
vt 0.32031 0.00781
vt 0.32031 0.32031
vt 0.33594 0.24219
vt 0.33594 0.00781
vt 0.38281 0.00781
vt 0.38281 0.24219
vt 0.39844 0.24219
vt 0.39844 0.00781
vt 0.44531 0.00781
vt 0.44531 0.24219
vt 0.46094 0.21094
vt 0.46094 0.00781
vt 0.49219 0.00781
vt 0.49219 0.21094
vt 0.50781 0.21094
vt 0.50781 0.00781
vt 0.53906 0.00781
vt 0.53906 0.21094
vt 0.55469 0.21094
vt 0.55469 0.00781
vt 0.58594 0.00781
vt 0.58594 0.21094
vt 0.60156 0.21094
vt 0.60156 0.00781
vt 0.63281 0.00781
vt 0.63281 0.21094
vt 0.64844 0.21094
vt 0.64844 0.00781
vt 0.66406 0.00781
vt 0.66406 0.21094
vt 0.67969 0.21094
vt 0.67969 0.00781
vt 0.69531 0.00781
vt 0.69531 0.21094
vt 0.71094 0.21094
vt 0.71094 0.00781
vt 0.72656 0.00781
vt 0.72656 0.21094
vt 0.74219 0.21094
vt 0.74219 0.00781
vt 0.75781 0.00781
vt 0.75781 0.21094
vt 0.77344 0.21094
vt 0.77344 0.00781
vt 0.78906 0.00781
vt 0.78906 0.21094
vt 0.80469 0.21094
vt 0.80469 0.00781
vt 0.81250 0.00781
vt 0.81250 0.21094
vt 0.82813 0.21094
vt 0.82813 0.00781
vt 0.83594 0.00781
vt 0.83594 0.21094
vt 0.33594 0.29688
vt 0.33594 0.25781
vt 0.64844 0.25781
vt 0.64844 0.29688
vt 0.66406 0.29688
vt 0.66406 0.25781
vt 0.97656 0.25781
vt 0.97656 0.29688
vt 0.00781 0.37500
vt 0.00781 0.33594
vt 0.32031 0.33594
vt 0.32031 0.37500
vt 0.33594 0.37500
vt 0.33594 0.33594
vt 0.64844 0.33594
vt 0.64844 0.37500
vt 0.66406 0.35938
vt 0.66406 0.33594
vt 0.97656 0.33594
vt 0.97656 0.35938
vt 0.00781 0.41406
vt 0.00781 0.39063
vt 0.32031 0.39063
vt 0.32031 0.41406
vt 0.46094 0.24219
vt 0.46094 0.22656
vt 0.67969 0.22656
vt 0.67969 0.24219
vt 0.69531 0.24219
vt 0.69531 0.22656
vt 0.91406 0.22656
vt 0.91406 0.24219
vt 0.33594 0.32031
vt 0.33594 0.31250
vt 0.64844 0.31250
vt 0.64844 0.32031
vt 0.66406 0.32031
vt 0.66406 0.31250
vt 0.97656 0.31250
vt 0.97656 0.32031
vt 0.33594 0.39844
vt 0.33594 0.39063
vt 0.58594 0.39063
vt 0.58594 0.39844
vt 0.60156 0.39844
vt 0.60156 0.39063
vt 0.85156 0.39063
vt 0.85156 0.39844
vt 0.00781 0.43750
vt 0.00781 0.42969
vt 0.24219 0.42969
vt 0.24219 0.43750
vt 0.25781 0.43750
vt 0.25781 0.42969
vt 0.49219 0.42969
vt 0.49219 0.43750
vt 0.50781 0.43750
vt 0.50781 0.42969
vt 0.72656 0.42969
vt 0.72656 0.43750
vt 0.74219 0.43750
vt 0.74219 0.42969
vt 0.96094 0.42969
vt 0.96094 0.43750
vt 0.00781 0.46094
vt 0.00781 0.45313
vt 0.21094 0.45313
vt 0.21094 0.46094
vt 0.22656 0.46094
vt 0.22656 0.45313
vt 0.42969 0.45313
vt 0.42969 0.46094
vt 0.44531 0.46094
vt 0.44531 0.45313
vt 0.64844 0.45313
vt 0.64844 0.46094
vt 0.66406 0.46094
vt 0.66406 0.45313
vt 0.86719 0.45313
vt 0.86719 0.46094
vt 0.00781 0.48438
vt 0.00781 0.47656
vt 0.21094 0.47656
vt 0.21094 0.48438
vt 0.22656 0.48438
vt 0.22656 0.47656
vt 0.42969 0.47656
vt 0.42969 0.48438
vt 0.44531 0.48438
vt 0.44531 0.47656
vt 0.64844 0.47656
vt 0.64844 0.48438
vt 0.66406 0.48438
vt 0.66406 0.47656
vt 0.86719 0.47656
vt 0.86719 0.48438
vt 0.00781 0.50781
vt 0.00781 0.50000
vt 0.21094 0.50000
vt 0.21094 0.50781
vt 0.22656 0.50781
vt 0.22656 0.50000
vt 0.42969 0.50000
vt 0.42969 0.50781
vt 0.85156 0.01563
vt 0.85156 0.00781
vt 0.87500 0.00781
vt 0.87500 0.01563
vt 0.89063 0.01563
vt 0.89063 0.00781
vt 0.91406 0.00781
vt 0.91406 0.01563
vt 0.92969 0.01563
vt 0.92969 0.00781
vt 0.95313 0.00781
vt 0.95313 0.01563
vt 0.96875 0.01563
vt 0.96875 0.00781
vt 0.99219 0.00781
vt 0.99219 0.01563
vt 0.85156 0.03906
vt 0.85156 0.03125
vt 0.86719 0.03125
vt 0.86719 0.03906
vt 0.88281 0.03906
vt 0.88281 0.03125
vt 0.89844 0.03125
vt 0.89844 0.03906
vt 0.91406 0.03906
vt 0.91406 0.03125
vt 0.92969 0.03125
vt 0.92969 0.03906
vt 0.94531 0.03906
vt 0.94531 0.03125
vt 0.96094 0.03125
vt 0.96094 0.03906
vt 0.97656 0.03906
vt 0.97656 0.03125
vt 0.99219 0.03125
vt 0.99219 0.03906
vt 0.85156 0.06250
vt 0.85156 0.05469
vt 0.86719 0.05469
vt 0.86719 0.06250
vt 0.88281 0.06250
vt 0.88281 0.05469
vt 0.89844 0.05469
vt 0.89844 0.06250
vt 0.91406 0.06250
vt 0.91406 0.05469
vt 0.92969 0.05469
vt 0.92969 0.06250
vt 0.94531 0.06250
vt 0.94531 0.05469
vt 0.96094 0.05469
vt 0.96094 0.06250
vt 0.97656 0.06250
vt 0.97656 0.05469
vt 0.99219 0.05469
vt 0.99219 0.06250
vt 0.85156 0.08594
vt 0.85156 0.07813
vt 0.85938 0.07813
vt 0.85938 0.08594
vt 0.87500 0.08594
vt 0.87500 0.07813
vt 0.88281 0.07813
vt 0.88281 0.08594
vt 0.89844 0.08594
vt 0.89844 0.07813
vt 0.90625 0.07813
vt 0.90625 0.08594
vt 0.92188 0.08594
vt 0.92188 0.07813
vt 0.92969 0.07813
vt 0.92969 0.08594
vt 0.94531 0.08594
vt 0.94531 0.07813
vt 0.95313 0.07813
vt 0.95313 0.08594
vt 0.96875 0.08594
vt 0.96875 0.07813
vt 0.97656 0.07813
vt 0.97656 0.08594
vt 0.85156 0.10938
vt 0.85156 0.10156
vt 0.85938 0.10156
vt 0.85938 0.10938
vt 0.87500 0.10938
vt 0.87500 0.10156
vt 0.88281 0.10156
vt 0.88281 0.10938
vt 0.89844 0.10938
vt 0.89844 0.10156
vt 0.90625 0.10156
vt 0.90625 0.10938
vt 0.92188 0.10938
vt 0.92188 0.10156
vt 0.92969 0.10156
vt 0.92969 0.10938
vt 0.94531 0.10938
vt 0.94531 0.10156
vt 0.95313 0.10156
vt 0.95313 0.10938
vt 0.96875 0.10938
vt 0.96875 0.10156
vt 0.97656 0.10156
vt 0.97656 0.10938
vt 0.85156 0.13281
vt 0.85156 0.12500
vt 0.85938 0.12500
vt 0.85938 0.13281
vt 0.87500 0.13281
vt 0.87500 0.12500
vt 0.88281 0.12500
vt 0.88281 0.13281
vt 0.89844 0.13281
vt 0.89844 0.12500
vt 0.90625 0.12500
vt 0.90625 0.13281
vt 0.92188 0.13281
vt 0.92188 0.12500
vt 0.92969 0.12500
vt 0.92969 0.13281
vt 0.94531 0.13281
vt 0.94531 0.12500
vt 0.95313 0.12500
vt 0.95313 0.13281
vt 0.96875 0.13281
vt 0.96875 0.12500
vt 0.97656 0.12500
vt 0.97656 0.13281
vt 0.85156 0.15625
vt 0.85156 0.14844
vt 0.85938 0.14844
vt 0.85938 0.15625
vt 0.87500 0.15625
vt 0.87500 0.14844
vt 0.88281 0.14844
vt 0.88281 0.15625

g aeration
usemtl aeration_Material
f 1/69/2 2/70/2 3/71/2 4/72/2
f 5/117/2 6/118/2 7/119/2 8/120/2
f 9/181/2 10/182/2 11/183/2 12/184/2
f 13/209/2 14/210/2 15/211/2 16/212/2
f 17/201/2 18/202/2 19/203/2 20/204/2
f 21/197/2 22/198/2 23/199/2 24/200/2
f 25/205/2 26/206/2 27/207/2 28/208/2
f 29/229/2 30/230/2 31/231/2 32/232/2
f 33/241/2 34/242/2 35/243/2 36/244/2
f 37/237/2 38/238/2 39/239/2 40/240/2
f 41/233/2 42/234/2 43/235/2 44/236/2
f 45/61/1 46/62/1 47/63/1 48/64/1
f 49/113/1 50/114/1 51/115/1 52/116/1
f 53/213/1 54/214/1 55/215/1 56/216/1
f 57/177/1 58/178/1 59/179/1 60/180/1
f 61/185/1 62/186/1 63/187/1 64/188/1
f 65/193/1 66/194/1 67/195/1 68/196/1
f 69/189/1 70/190/1 71/191/1 72/192/1
f 73/281/1 74/282/1 75/283/1 76/284/1
f 77/277/1 78/278/1 79/279/1 80/280/1
f 81/273/1 82/274/1 83/275/1 84/276/1
f 85/293/1 86/294/1 87/295/1 88/296/1
f 4/57/3 3/58/3 46/59/3 45/60/3
f 52/109/3 51/110/3 6/111/3 5/112/3
f 56/133/3 55/134/3 10/135/3 9/136/3
f 60/121/3 59/122/3 14/123/3 13/124/3
f 64/137/3 63/138/3 18/139/3 17/140/3
f 68/141/3 67/142/3 22/143/3 21/144/3
f 72/145/3 71/146/3 26/147/3 25/148/3
f 76/253/3 75/254/3 30/255/3 29/256/3
f 80/249/3 79/250/3 34/251/3 33/252/3
f 84/269/3 83/270/3 38/271/3 37/272/3
f 88/265/3 87/266/3 42/267/3 41/268/3
f 48/65/4 47/66/4 2/67/4 1/68/4
f 8/105/4 7/106/4 50/107/4 49/108/4
f 12/125/4 11/126/4 54/127/4 53/128/4
f 16/129/4 15/130/4 58/131/4 57/132/4
f 20/157/4 19/158/4 62/159/4 61/160/4
f 24/153/4 23/154/4 66/155/4 65/156/4
f 28/149/4 27/150/4 70/151/4 69/152/4
f 32/261/4 31/262/4 74/263/4 73/264/4
f 36/257/4 35/258/4 78/259/4 77/260/4
f 40/285/4 39/286/4 82/287/4 81/288/4
f 44/289/4 43/290/4 86/291/4 85/292/4
f 4/1/5 45/2/5 48/3/5 1/4/5
f 89/9/6 90/10/6 50/11/6 7/12/6
f 6/5/6 51/6/6 91/7/6 92/8/6
f 10/21/6 55/22/6 58/23/6 15/24/6
f 14/25/6 59/26/6 62/27/6 19/28/6
f 18/13/6 63/14/6 66/15/6 23/16/6
f 22/17/6 67/18/6 70/19/6 27/20/6
f 12/41/6 53/42/6 56/43/6 9/44/6
f 16/45/6 57/46/6 60/47/6 13/48/6
f 20/37/6 61/38/6 64/39/6 17/40/6
f 24/29/6 65/30/6 68/31/6 21/32/6
f 28/33/6 69/34/6 72/35/6 25/36/6
f 93/53/6 94/54/6 54/55/6 11/56/6
f 26/49/6 71/50/6 95/51/6 96/52/6
f 97/73/6 3/74/6 2/75/6 98/76/6
f 46/77/6 99/78/6 100/79/6 47/80/6
f 94/85/6 49/86/6 52/87/6 95/88/6
f 8/81/6 93/82/6 96/83/6 5/84/6
f 90/93/6 101/94/6 102/95/6 91/96/6
f 103/89/6 89/90/6 92/91/6 104/92/6
f 30/97/6 75/98/6 78/99/6 35/100/6
f 38/101/6 83/102/6 86/103/6 43/104/6
f 101/165/6 97/166/6 74/167/6 31/168/6
f 34/161/6 79/162/6 98/163/6 102/164/6
f 99/173/6 103/174/6 82/175/6 39/176/6
f 42/169/6 87/170/6 104/171/6 100/172/6
f 32/245/6 73/246/6 76/247/6 29/248/6
f 36/217/6 77/218/6 80/219/6 33/220/6
f 40/225/6 81/226/6 84/227/6 37/228/6
f 44/221/6 85/222/6 88/223/6 41/224/6
