# MagicaVoxel @ Ephtracy

# group
g aeration

# material
mtllib aeration.mtl
usemtl palette

# normals
vn -1 0 0
vn 1 0 0
vn 0 0 1
vn 0 0 -1
vn 0 -1 0
vn 0 1 0

# texcoords
vt 0.986328 0.5
vt 0.994141 0.5

# verts
v -20 0 20
v -20 0 -20
v -20 5 20
v -20 5 -20
v -16 0 17
v -16 0 16
v -16 0 -16
v -16 0 -17
v -16 1 17
v -16 1 16
v -16 1 -16
v -16 1 -17
v -11 1 13
v -11 1 -13
v -11 2 13
v -11 2 -13
v -5 1 13
v -5 1 -13
v -5 2 13
v -5 2 -13
v 1 1 13
v 1 1 -13
v 1 2 13
v 1 2 -13
v 7 1 13
v 7 1 -13
v 7 2 13
v 7 2 -13
v 13 1 13
v 13 1 -13
v 13 2 13
v 13 2 -13
v 14 0 15
v 14 0 -15
v 14 1 15
v 14 1 -15
v 17 0 17
v 17 0 16
v 17 0 -16
v 17 0 -17
v 17 1 17
v 17 1 16
v 17 1 -16
v 17 1 -17
v -17 0 17
v -17 0 16
v -17 0 -16
v -17 0 -17
v -17 1 17
v -17 1 16
v -17 1 -16
v -17 1 -17
v -14 0 15
v -14 0 -15
v -14 1 15
v -14 1 -15
v -13 1 13
v -13 1 -13
v -13 2 13
v -13 2 -13
v -7 1 13
v -7 1 -13
v -7 2 13
v -7 2 -13
v -1 1 13
v -1 1 -13
v -1 2 13
v -1 2 -13
v 5 1 13
v 5 1 -13
v 5 2 13
v 5 2 -13
v 11 1 13
v 11 1 -13
v 11 2 13
v 11 2 -13
v 16 0 17
v 16 0 16
v 16 0 -16
v 16 0 -17
v 16 1 17
v 16 1 16
v 16 1 -16
v 16 1 -17
v 20 0 20
v 20 0 -20
v 20 5 20
v 20 5 -20
v -20 0 20
v -20 5 20
v 20 0 20
v 20 5 20
v -17 0 16
v -17 1 16
v -16 0 16
v -16 1 16
v 16 0 16
v 16 1 16
v 17 0 16
v 17 1 16
v -13 1 -13
v -13 2 -13
v -11 1 -13
v -11 2 -13
v -7 1 -13
v -7 2 -13
v -5 1 -13
v -5 2 -13
v -1 1 -13
v -1 2 -13
v 1 1 -13
v 1 2 -13
v 5 1 -13
v 5 2 -13
v 7 1 -13
v 7 2 -13
v 11 1 -13
v 11 2 -13
v 13 1 -13
v 13 2 -13
v -14 0 -15
v -14 1 -15
v 14 0 -15
v 14 1 -15
v -17 0 -17
v -17 1 -17
v -16 0 -17
v -16 1 -17
v 16 0 -17
v 16 1 -17
v 17 0 -17
v 17 1 -17
v -17 0 17
v -17 1 17
v -16 0 17
v -16 1 17
v 16 0 17
v 16 1 17
v 17 0 17
v 17 1 17
v -14 0 15
v -14 1 15
v 14 0 15
v 14 1 15
v -13 1 13
v -13 2 13
v -11 1 13
v -11 2 13
v -7 1 13
v -7 2 13
v -5 1 13
v -5 2 13
v -1 1 13
v -1 2 13
v 1 1 13
v 1 2 13
v 5 1 13
v 5 2 13
v 7 1 13
v 7 2 13
v 11 1 13
v 11 2 13
v 13 1 13
v 13 2 13
v -17 0 -16
v -17 1 -16
v -16 0 -16
v -16 1 -16
v 16 0 -16
v 16 1 -16
v 17 0 -16
v 17 1 -16
v -20 0 -20
v -20 5 -20
v 20 0 -20
v 20 5 -20
v -20 0 20
v 20 0 20
v -17 0 17
v -16 0 17
v 16 0 17
v 17 0 17
v -17 0 16
v -16 0 16
v 16 0 16
v 17 0 16
v -14 0 15
v 14 0 15
v -14 0 -15
v 14 0 -15
v -17 0 -16
v -16 0 -16
v 16 0 -16
v 17 0 -16
v -17 0 -17
v -16 0 -17
v 16 0 -17
v 17 0 -17
v -20 0 -20
v 20 0 -20
v -17 1 17
v -16 1 17
v 16 1 17
v 17 1 17
v -17 1 16
v -16 1 16
v 16 1 16
v 17 1 16
v -14 1 15
v 14 1 15
v -13 1 13
v -11 1 13
v -7 1 13
v -5 1 13
v -1 1 13
v 1 1 13
v 5 1 13
v 7 1 13
v 11 1 13
v 13 1 13
v -13 1 -13
v -11 1 -13
v -7 1 -13
v -5 1 -13
v -1 1 -13
v 1 1 -13
v 5 1 -13
v 7 1 -13
v 11 1 -13
v 13 1 -13
v -14 1 -15
v 14 1 -15
v -17 1 -16
v -16 1 -16
v 16 1 -16
v 17 1 -16
v -17 1 -17
v -16 1 -17
v 16 1 -17
v 17 1 -17
v -13 2 13
v -11 2 13
v -7 2 13
v -5 2 13
v -1 2 13
v 1 2 13
v 5 2 13
v 7 2 13
v 11 2 13
v 13 2 13
v -13 2 -13
v -11 2 -13
v -7 2 -13
v -5 2 -13
v -1 2 -13
v 1 2 -13
v 5 2 -13
v 7 2 -13
v 11 2 -13
v 13 2 -13
v -20 5 20
v 20 5 20
v -20 5 -20
v 20 5 -20

# faces
f 3/1/1 2/1/1 1/1/1
f 4/1/1 2/1/1 3/1/1
f 9/1/1 6/1/1 5/1/1
f 10/1/1 6/1/1 9/1/1
f 11/1/1 8/1/1 7/1/1
f 12/1/1 8/1/1 11/1/1
f 15/1/1 14/1/1 13/1/1
f 16/1/1 14/1/1 15/1/1
f 19/1/1 18/1/1 17/1/1
f 20/1/1 18/1/1 19/1/1
f 23/1/1 22/1/1 21/1/1
f 24/1/1 22/1/1 23/1/1
f 27/1/1 26/1/1 25/1/1
f 28/1/1 26/1/1 27/1/1
f 31/1/1 30/1/1 29/1/1
f 32/1/1 30/1/1 31/1/1
f 35/1/1 34/1/1 33/1/1
f 36/1/1 34/1/1 35/1/1
f 41/1/1 38/1/1 37/1/1
f 42/1/1 38/1/1 41/1/1
f 43/1/1 40/1/1 39/1/1
f 44/1/1 40/1/1 43/1/1
f 45/1/2 46/1/2 49/1/2
f 49/1/2 46/1/2 50/1/2
f 47/1/2 48/1/2 51/1/2
f 51/1/2 48/1/2 52/1/2
f 53/1/2 54/1/2 55/1/2
f 55/1/2 54/1/2 56/1/2
f 57/1/2 58/1/2 59/1/2
f 59/1/2 58/1/2 60/1/2
f 61/1/2 62/1/2 63/1/2
f 63/1/2 62/1/2 64/1/2
f 65/1/2 66/1/2 67/1/2
f 67/1/2 66/1/2 68/1/2
f 69/1/2 70/1/2 71/1/2
f 71/1/2 70/1/2 72/1/2
f 73/1/2 74/1/2 75/1/2
f 75/1/2 74/1/2 76/1/2
f 77/1/2 78/1/2 81/1/2
f 81/1/2 78/1/2 82/1/2
f 79/1/2 80/1/2 83/1/2
f 83/1/2 80/1/2 84/1/2
f 85/1/2 86/1/2 87/1/2
f 87/1/2 86/1/2 88/1/2
f 91/1/3 90/1/3 89/1/3
f 92/1/3 90/1/3 91/1/3
f 95/1/3 94/1/3 93/1/3
f 96/1/3 94/1/3 95/1/3
f 99/1/3 98/1/3 97/1/3
f 100/1/3 98/1/3 99/1/3
f 103/1/3 102/1/3 101/1/3
f 104/1/3 102/1/3 103/1/3
f 107/1/3 106/1/3 105/1/3
f 108/1/3 106/1/3 107/1/3
f 111/1/3 110/1/3 109/1/3
f 112/1/3 110/1/3 111/1/3
f 115/1/3 114/1/3 113/1/3
f 116/1/3 114/1/3 115/1/3
f 119/1/3 118/1/3 117/1/3
f 120/1/3 118/1/3 119/1/3
f 123/1/3 122/1/3 121/1/3
f 124/1/3 122/1/3 123/1/3
f 127/1/3 126/1/3 125/1/3
f 128/1/3 126/1/3 127/1/3
f 131/1/3 130/1/3 129/1/3
f 132/1/3 130/1/3 131/1/3
f 133/1/4 134/1/4 135/1/4
f 135/1/4 134/1/4 136/1/4
f 137/1/4 138/1/4 139/1/4
f 139/1/4 138/1/4 140/1/4
f 141/1/4 142/1/4 143/1/4
f 143/1/4 142/1/4 144/1/4
f 145/1/4 146/1/4 147/1/4
f 147/1/4 146/1/4 148/1/4
f 149/1/4 150/1/4 151/1/4
f 151/1/4 150/1/4 152/1/4
f 153/1/4 154/1/4 155/1/4
f 155/1/4 154/1/4 156/1/4
f 157/1/4 158/1/4 159/1/4
f 159/1/4 158/1/4 160/1/4
f 161/1/4 162/1/4 163/1/4
f 163/1/4 162/1/4 164/1/4
f 165/1/4 166/1/4 167/1/4
f 167/1/4 166/1/4 168/1/4
f 169/1/4 170/1/4 171/1/4
f 171/1/4 170/1/4 172/1/4
f 173/1/4 174/1/4 175/1/4
f 175/1/4 174/1/4 176/1/4
f 179/1/5 178/1/5 177/1/5
f 180/1/5 178/1/5 179/1/5
f 181/1/5 178/1/5 180/1/5
f 182/1/5 178/1/5 181/1/5
f 183/1/5 179/1/5 177/1/5
f 184/1/5 181/1/5 180/1/5
f 185/1/5 181/1/5 184/1/5
f 186/1/5 178/1/5 182/1/5
f 187/1/5 185/1/5 184/1/5
f 187/1/5 186/1/5 185/1/5
f 187/1/5 184/1/5 183/1/5
f 188/1/5 186/1/5 187/1/5
f 189/1/5 187/1/5 183/1/5
f 190/1/5 186/1/5 188/1/5
f 191/1/5 183/1/5 177/1/5
f 191/1/5 190/1/5 189/1/5
f 191/1/5 189/1/5 183/1/5
f 192/1/5 190/1/5 191/1/5
f 193/1/5 186/1/5 190/1/5
f 193/1/5 190/1/5 192/1/5
f 194/1/5 178/1/5 186/1/5
f 194/1/5 186/1/5 193/1/5
f 195/1/5 191/1/5 177/1/5
f 196/1/5 193/1/5 192/1/5
f 197/1/5 193/1/5 196/1/5
f 198/1/5 178/1/5 194/1/5
f 199/1/5 195/1/5 177/1/5
f 199/1/5 198/1/5 197/1/5
f 199/1/5 197/1/5 196/1/5
f 199/1/5 196/1/5 195/1/5
f 200/1/5 178/1/5 198/1/5
f 200/1/5 198/1/5 199/1/5
f 205/2/5 202/2/5 201/2/5
f 206/2/5 202/2/5 205/2/5
f 207/2/5 204/2/5 203/2/5
f 208/2/5 204/2/5 207/2/5
f 211/1/5 210/1/5 209/1/5
f 212/1/5 210/1/5 211/1/5
f 213/1/5 210/1/5 212/1/5
f 214/1/5 210/1/5 213/1/5
f 215/1/5 210/1/5 214/1/5
f 216/1/5 210/1/5 215/1/5
f 217/1/5 210/1/5 216/1/5
f 218/1/5 210/1/5 217/1/5
f 219/1/5 210/1/5 218/1/5
f 220/1/5 210/1/5 219/1/5
f 221/1/5 211/1/5 209/1/5
f 222/1/5 213/1/5 212/1/5
f 223/1/5 213/1/5 222/1/5
f 224/1/5 215/1/5 214/1/5
f 225/1/5 215/1/5 224/1/5
f 226/1/5 217/1/5 216/1/5
f 227/1/5 217/1/5 226/1/5
f 228/1/5 219/1/5 218/1/5
f 229/1/5 219/1/5 228/1/5
f 230/1/5 210/1/5 220/1/5
f 231/1/5 229/1/5 228/1/5
f 231/1/5 230/1/5 229/1/5
f 231/1/5 227/1/5 226/1/5
f 231/1/5 221/1/5 209/1/5
f 231/1/5 228/1/5 227/1/5
f 231/1/5 225/1/5 224/1/5
f 231/1/5 226/1/5 225/1/5
f 231/1/5 223/1/5 222/1/5
f 231/1/5 224/1/5 223/1/5
f 231/1/5 222/1/5 221/1/5
f 232/1/5 210/1/5 230/1/5
f 232/1/5 230/1/5 231/1/5
f 237/2/5 234/2/5 233/2/5
f 238/2/5 234/2/5 237/2/5
f 239/2/5 236/2/5 235/2/5
f 240/2/5 236/2/5 239/2/5
f 251/2/5 242/2/5 241/2/5
f 252/2/5 242/2/5 251/2/5
f 253/2/5 244/2/5 243/2/5
f 254/2/5 244/2/5 253/2/5
f 255/2/5 246/2/5 245/2/5
f 256/2/5 246/2/5 255/2/5
f 257/2/5 248/2/5 247/2/5
f 258/2/5 248/2/5 257/2/5
f 259/2/5 250/2/5 249/2/5
f 260/2/5 250/2/5 259/2/5
f 261/1/6 262/1/6 263/1/6
f 263/1/6 262/1/6 264/1/6
