# MagicaVoxel @ Ephtracy

# group
g aeration

# material
mtllib aeration.mtl
usemtl palette

# normals
vn -1 0 0
vn 1 0 0
vn 0 0 1
vn 0 0 -1
vn 0 -1 0
vn 0 1 0

# texcoords
vt 0.986328 0.5
vt 0.994141 0.5

# verts
v -20 0 20
v -20 0 -20
v -20 5 20
v -20 5 -20
v -16 0 17
v -16 0 16
v -16 0 -16
v -16 0 -17
v -16 1 17
v -16 1 16
v -16 1 -16
v -16 1 -17
v -11 1 13
v -11 1 -13
v -11 2 13
v -11 2 -13
v -8 1 13
v -8 1 -13
v -8 2 13
v -8 2 -13
v -5 1 13
v -5 1 -13
v -5 2 13
v -5 2 -13
v -2 1 13
v -2 1 -13
v -2 2 13
v -2 2 -13
v 1 1 13
v 1 1 -13
v 1 2 13
v 1 2 -13
v 4 1 13
v 4 1 -13
v 4 2 13
v 4 2 -13
v 7 1 13
v 7 1 -13
v 7 2 13
v 7 2 -13
v 10 1 13
v 10 1 -13
v 10 2 13
v 10 2 -13
v 13 1 13
v 13 1 -13
v 13 2 13
v 13 2 -13
v 14 0 15
v 14 0 -15
v 14 1 15
v 14 1 -15
v 17 0 17
v 17 0 16
v 17 0 -16
v 17 0 -17
v 17 1 17
v 17 1 16
v 17 1 -16
v 17 1 -17
v -17 0 17
v -17 0 16
v -17 0 -16
v -17 0 -17
v -17 1 17
v -17 1 16
v -17 1 -16
v -17 1 -17
v -14 0 15
v -14 0 -15
v -14 1 15
v -14 1 -15
v -13 1 13
v -13 1 -13
v -13 2 13
v -13 2 -13
v -10 1 13
v -10 1 -13
v -10 2 13
v -10 2 -13
v -7 1 13
v -7 1 -13
v -7 2 13
v -7 2 -13
v -4 1 13
v -4 1 -13
v -4 2 13
v -4 2 -13
v -1 1 13
v -1 1 -13
v -1 2 13
v -1 2 -13
v 2 1 13
v 2 1 -13
v 2 2 13
v 2 2 -13
v 5 1 13
v 5 1 -13
v 5 2 13
v 5 2 -13
v 8 1 13
v 8 1 -13
v 8 2 13
v 8 2 -13
v 11 1 13
v 11 1 -13
v 11 2 13
v 11 2 -13
v 16 0 17
v 16 0 16
v 16 0 -16
v 16 0 -17
v 16 1 17
v 16 1 16
v 16 1 -16
v 16 1 -17
v 20 0 20
v 20 0 -20
v 20 5 20
v 20 5 -20
v -20 0 20
v -20 5 20
v 20 0 20
v 20 5 20
v -17 0 16
v -17 1 16
v -16 0 16
v -16 1 16
v 16 0 16
v 16 1 16
v 17 0 16
v 17 1 16
v -13 1 -13
v -13 2 -13
v -11 1 -13
v -11 2 -13
v -10 1 -13
v -10 2 -13
v -8 1 -13
v -8 2 -13
v -7 1 -13
v -7 2 -13
v -5 1 -13
v -5 2 -13
v -4 1 -13
v -4 2 -13
v -2 1 -13
v -2 2 -13
v -1 1 -13
v -1 2 -13
v 1 1 -13
v 1 2 -13
v 2 1 -13
v 2 2 -13
v 4 1 -13
v 4 2 -13
v 5 1 -13
v 5 2 -13
v 7 1 -13
v 7 2 -13
v 8 1 -13
v 8 2 -13
v 10 1 -13
v 10 2 -13
v 11 1 -13
v 11 2 -13
v 13 1 -13
v 13 2 -13
v -14 0 -15
v -14 1 -15
v 14 0 -15
v 14 1 -15
v -17 0 -17
v -17 1 -17
v -16 0 -17
v -16 1 -17
v 16 0 -17
v 16 1 -17
v 17 0 -17
v 17 1 -17
v -17 0 17
v -17 1 17
v -16 0 17
v -16 1 17
v 16 0 17
v 16 1 17
v 17 0 17
v 17 1 17
v -14 0 15
v -14 1 15
v 14 0 15
v 14 1 15
v -13 1 13
v -13 2 13
v -11 1 13
v -11 2 13
v -10 1 13
v -10 2 13
v -8 1 13
v -8 2 13
v -7 1 13
v -7 2 13
v -5 1 13
v -5 2 13
v -4 1 13
v -4 2 13
v -2 1 13
v -2 2 13
v -1 1 13
v -1 2 13
v 1 1 13
v 1 2 13
v 2 1 13
v 2 2 13
v 4 1 13
v 4 2 13
v 5 1 13
v 5 2 13
v 7 1 13
v 7 2 13
v 8 1 13
v 8 2 13
v 10 1 13
v 10 2 13
v 11 1 13
v 11 2 13
v 13 1 13
v 13 2 13
v -17 0 -16
v -17 1 -16
v -16 0 -16
v -16 1 -16
v 16 0 -16
v 16 1 -16
v 17 0 -16
v 17 1 -16
v -20 0 -20
v -20 5 -20
v 20 0 -20
v 20 5 -20
v -20 0 20
v 20 0 20
v -17 0 17
v -16 0 17
v 16 0 17
v 17 0 17
v -17 0 16
v -16 0 16
v 16 0 16
v 17 0 16
v -14 0 15
v 14 0 15
v -14 0 -15
v 14 0 -15
v -17 0 -16
v -16 0 -16
v 16 0 -16
v 17 0 -16
v -17 0 -17
v -16 0 -17
v 16 0 -17
v 17 0 -17
v -20 0 -20
v 20 0 -20
v -17 1 17
v -16 1 17
v 16 1 17
v 17 1 17
v -17 1 16
v -16 1 16
v 16 1 16
v 17 1 16
v -14 1 15
v 14 1 15
v -13 1 13
v -11 1 13
v -10 1 13
v -8 1 13
v -7 1 13
v -5 1 13
v -4 1 13
v -2 1 13
v -1 1 13
v 1 1 13
v 2 1 13
v 4 1 13
v 5 1 13
v 7 1 13
v 8 1 13
v 10 1 13
v 11 1 13
v 13 1 13
v -13 1 -13
v -11 1 -13
v -10 1 -13
v -8 1 -13
v -7 1 -13
v -5 1 -13
v -4 1 -13
v -2 1 -13
v -1 1 -13
v 1 1 -13
v 2 1 -13
v 4 1 -13
v 5 1 -13
v 7 1 -13
v 8 1 -13
v 10 1 -13
v 11 1 -13
v 13 1 -13
v -14 1 -15
v 14 1 -15
v -17 1 -16
v -16 1 -16
v 16 1 -16
v 17 1 -16
v -17 1 -17
v -16 1 -17
v 16 1 -17
v 17 1 -17
v -13 2 13
v -11 2 13
v -10 2 13
v -8 2 13
v -7 2 13
v -5 2 13
v -4 2 13
v -2 2 13
v -1 2 13
v 1 2 13
v 2 2 13
v 4 2 13
v 5 2 13
v 7 2 13
v 8 2 13
v 10 2 13
v 11 2 13
v 13 2 13
v -13 2 -13
v -11 2 -13
v -10 2 -13
v -8 2 -13
v -7 2 -13
v -5 2 -13
v -4 2 -13
v -2 2 -13
v -1 2 -13
v 1 2 -13
v 2 2 -13
v 4 2 -13
v 5 2 -13
v 7 2 -13
v 8 2 -13
v 10 2 -13
v 11 2 -13
v 13 2 -13
v -20 5 20
v 20 5 20
v -20 5 -20
v 20 5 -20

# faces
f 3/1/1 2/1/1 1/1/1
f 4/1/1 2/1/1 3/1/1
f 9/1/1 6/1/1 5/1/1
f 10/1/1 6/1/1 9/1/1
f 11/1/1 8/1/1 7/1/1
f 12/1/1 8/1/1 11/1/1
f 15/1/1 14/1/1 13/1/1
f 16/1/1 14/1/1 15/1/1
f 19/1/1 18/1/1 17/1/1
f 20/1/1 18/1/1 19/1/1
f 23/1/1 22/1/1 21/1/1
f 24/1/1 22/1/1 23/1/1
f 27/1/1 26/1/1 25/1/1
f 28/1/1 26/1/1 27/1/1
f 31/1/1 30/1/1 29/1/1
f 32/1/1 30/1/1 31/1/1
f 35/1/1 34/1/1 33/1/1
f 36/1/1 34/1/1 35/1/1
f 39/1/1 38/1/1 37/1/1
f 40/1/1 38/1/1 39/1/1
f 43/1/1 42/1/1 41/1/1
f 44/1/1 42/1/1 43/1/1
f 47/1/1 46/1/1 45/1/1
f 48/1/1 46/1/1 47/1/1
f 51/1/1 50/1/1 49/1/1
f 52/1/1 50/1/1 51/1/1
f 57/1/1 54/1/1 53/1/1
f 58/1/1 54/1/1 57/1/1
f 59/1/1 56/1/1 55/1/1
f 60/1/1 56/1/1 59/1/1
f 61/1/2 62/1/2 65/1/2
f 65/1/2 62/1/2 66/1/2
f 63/1/2 64/1/2 67/1/2
f 67/1/2 64/1/2 68/1/2
f 69/1/2 70/1/2 71/1/2
f 71/1/2 70/1/2 72/1/2
f 73/1/2 74/1/2 75/1/2
f 75/1/2 74/1/2 76/1/2
f 77/1/2 78/1/2 79/1/2
f 79/1/2 78/1/2 80/1/2
f 81/1/2 82/1/2 83/1/2
f 83/1/2 82/1/2 84/1/2
f 85/1/2 86/1/2 87/1/2
f 87/1/2 86/1/2 88/1/2
f 89/1/2 90/1/2 91/1/2
f 91/1/2 90/1/2 92/1/2
f 93/1/2 94/1/2 95/1/2
f 95/1/2 94/1/2 96/1/2
f 97/1/2 98/1/2 99/1/2
f 99/1/2 98/1/2 100/1/2
f 101/1/2 102/1/2 103/1/2
f 103/1/2 102/1/2 104/1/2
f 105/1/2 106/1/2 107/1/2
f 107/1/2 106/1/2 108/1/2
f 109/1/2 110/1/2 113/1/2
f 113/1/2 110/1/2 114/1/2
f 111/1/2 112/1/2 115/1/2
f 115/1/2 112/1/2 116/1/2
f 117/1/2 118/1/2 119/1/2
f 119/1/2 118/1/2 120/1/2
f 123/1/3 122/1/3 121/1/3
f 124/1/3 122/1/3 123/1/3
f 127/1/3 126/1/3 125/1/3
f 128/1/3 126/1/3 127/1/3
f 131/1/3 130/1/3 129/1/3
f 132/1/3 130/1/3 131/1/3
f 135/1/3 134/1/3 133/1/3
f 136/1/3 134/1/3 135/1/3
f 139/1/3 138/1/3 137/1/3
f 140/1/3 138/1/3 139/1/3
f 143/1/3 142/1/3 141/1/3
f 144/1/3 142/1/3 143/1/3
f 147/1/3 146/1/3 145/1/3
f 148/1/3 146/1/3 147/1/3
f 151/1/3 150/1/3 149/1/3
f 152/1/3 150/1/3 151/1/3
f 155/1/3 154/1/3 153/1/3
f 156/1/3 154/1/3 155/1/3
f 159/1/3 158/1/3 157/1/3
f 160/1/3 158/1/3 159/1/3
f 163/1/3 162/1/3 161/1/3
f 164/1/3 162/1/3 163/1/3
f 167/1/3 166/1/3 165/1/3
f 168/1/3 166/1/3 167/1/3
f 171/1/3 170/1/3 169/1/3
f 172/1/3 170/1/3 171/1/3
f 175/1/3 174/1/3 173/1/3
f 176/1/3 174/1/3 175/1/3
f 179/1/3 178/1/3 177/1/3
f 180/1/3 178/1/3 179/1/3
f 181/1/4 182/1/4 183/1/4
f 183/1/4 182/1/4 184/1/4
f 185/1/4 186/1/4 187/1/4
f 187/1/4 186/1/4 188/1/4
f 189/1/4 190/1/4 191/1/4
f 191/1/4 190/1/4 192/1/4
f 193/1/4 194/1/4 195/1/4
f 195/1/4 194/1/4 196/1/4
f 197/1/4 198/1/4 199/1/4
f 199/1/4 198/1/4 200/1/4
f 201/1/4 202/1/4 203/1/4
f 203/1/4 202/1/4 204/1/4
f 205/1/4 206/1/4 207/1/4
f 207/1/4 206/1/4 208/1/4
f 209/1/4 210/1/4 211/1/4
f 211/1/4 210/1/4 212/1/4
f 213/1/4 214/1/4 215/1/4
f 215/1/4 214/1/4 216/1/4
f 217/1/4 218/1/4 219/1/4
f 219/1/4 218/1/4 220/1/4
f 221/1/4 222/1/4 223/1/4
f 223/1/4 222/1/4 224/1/4
f 225/1/4 226/1/4 227/1/4
f 227/1/4 226/1/4 228/1/4
f 229/1/4 230/1/4 231/1/4
f 231/1/4 230/1/4 232/1/4
f 233/1/4 234/1/4 235/1/4
f 235/1/4 234/1/4 236/1/4
f 237/1/4 238/1/4 239/1/4
f 239/1/4 238/1/4 240/1/4
f 243/1/5 242/1/5 241/1/5
f 244/1/5 242/1/5 243/1/5
f 245/1/5 242/1/5 244/1/5
f 246/1/5 242/1/5 245/1/5
f 247/1/5 243/1/5 241/1/5
f 248/1/5 245/1/5 244/1/5
f 249/1/5 245/1/5 248/1/5
f 250/1/5 242/1/5 246/1/5
f 251/1/5 249/1/5 248/1/5
f 251/1/5 250/1/5 249/1/5
f 251/1/5 248/1/5 247/1/5
f 252/1/5 250/1/5 251/1/5
f 253/1/5 251/1/5 247/1/5
f 254/1/5 250/1/5 252/1/5
f 255/1/5 247/1/5 241/1/5
f 255/1/5 254/1/5 253/1/5
f 255/1/5 253/1/5 247/1/5
f 256/1/5 254/1/5 255/1/5
f 257/1/5 250/1/5 254/1/5
f 257/1/5 254/1/5 256/1/5
f 258/1/5 242/1/5 250/1/5
f 258/1/5 250/1/5 257/1/5
f 259/1/5 255/1/5 241/1/5
f 260/1/5 257/1/5 256/1/5
f 261/1/5 257/1/5 260/1/5
f 262/1/5 242/1/5 258/1/5
f 263/1/5 259/1/5 241/1/5
f 263/1/5 262/1/5 261/1/5
f 263/1/5 261/1/5 260/1/5
f 263/1/5 260/1/5 259/1/5
f 264/1/5 242/1/5 262/1/5
f 264/1/5 262/1/5 263/1/5
f 269/2/5 266/2/5 265/2/5
f 270/2/5 266/2/5 269/2/5
f 271/2/5 268/2/5 267/2/5
f 272/2/5 268/2/5 271/2/5
f 275/1/5 274/1/5 273/1/5
f 276/1/5 274/1/5 275/1/5
f 277/1/5 274/1/5 276/1/5
f 278/1/5 274/1/5 277/1/5
f 279/1/5 274/1/5 278/1/5
f 280/1/5 274/1/5 279/1/5
f 281/1/5 274/1/5 280/1/5
f 282/1/5 274/1/5 281/1/5
f 283/1/5 274/1/5 282/1/5
f 284/1/5 274/1/5 283/1/5
f 285/1/5 274/1/5 284/1/5
f 286/1/5 274/1/5 285/1/5
f 287/1/5 274/1/5 286/1/5
f 288/1/5 274/1/5 287/1/5
f 289/1/5 274/1/5 288/1/5
f 290/1/5 274/1/5 289/1/5
f 291/1/5 274/1/5 290/1/5
f 292/1/5 274/1/5 291/1/5
f 293/1/5 275/1/5 273/1/5
f 294/1/5 277/1/5 276/1/5
f 295/1/5 277/1/5 294/1/5
f 296/1/5 279/1/5 278/1/5
f 297/1/5 279/1/5 296/1/5
f 298/1/5 281/1/5 280/1/5
f 299/1/5 281/1/5 298/1/5
f 300/1/5 283/1/5 282/1/5
f 301/1/5 283/1/5 300/1/5
f 302/1/5 285/1/5 284/1/5
f 303/1/5 285/1/5 302/1/5
f 304/1/5 287/1/5 286/1/5
f 305/1/5 287/1/5 304/1/5
f 306/1/5 289/1/5 288/1/5
f 307/1/5 289/1/5 306/1/5
f 308/1/5 291/1/5 290/1/5
f 309/1/5 291/1/5 308/1/5
f 310/1/5 274/1/5 292/1/5
f 311/1/5 309/1/5 308/1/5
f 311/1/5 310/1/5 309/1/5
f 311/1/5 307/1/5 306/1/5
f 311/1/5 293/1/5 273/1/5
f 311/1/5 308/1/5 307/1/5
f 311/1/5 305/1/5 304/1/5
f 311/1/5 306/1/5 305/1/5
f 311/1/5 295/1/5 294/1/5
f 311/1/5 304/1/5 303/1/5
f 311/1/5 303/1/5 302/1/5
f 311/1/5 302/1/5 301/1/5
f 311/1/5 297/1/5 296/1/5
f 311/1/5 300/1/5 299/1/5
f 311/1/5 301/1/5 300/1/5
f 311/1/5 298/1/5 297/1/5
f 311/1/5 299/1/5 298/1/5
f 311/1/5 296/1/5 295/1/5
f 311/1/5 294/1/5 293/1/5
f 312/1/5 274/1/5 310/1/5
f 312/1/5 310/1/5 311/1/5
f 317/2/5 314/2/5 313/2/5
f 318/2/5 314/2/5 317/2/5
f 319/2/5 316/2/5 315/2/5
f 320/2/5 316/2/5 319/2/5
f 339/2/5 322/2/5 321/2/5
f 340/2/5 322/2/5 339/2/5
f 341/2/5 324/2/5 323/2/5
f 342/2/5 324/2/5 341/2/5
f 343/2/5 326/2/5 325/2/5
f 344/2/5 326/2/5 343/2/5
f 345/2/5 328/2/5 327/2/5
f 346/2/5 328/2/5 345/2/5
f 347/2/5 330/2/5 329/2/5
f 348/2/5 330/2/5 347/2/5
f 349/2/5 332/2/5 331/2/5
f 350/2/5 332/2/5 349/2/5
f 351/2/5 334/2/5 333/2/5
f 352/2/5 334/2/5 351/2/5
f 353/2/5 336/2/5 335/2/5
f 354/2/5 336/2/5 353/2/5
f 355/2/5 338/2/5 337/2/5
f 356/2/5 338/2/5 355/2/5
f 357/1/6 358/1/6 359/1/6
f 359/1/6 358/1/6 360/1/6
