# MagicaVoxel @ Ephtracy

# group
g camera

# material
mtllib camera.mtl
usemtl palette

# normals
vn -1 0 0
vn 1 0 0
vn 0 0 1
vn 0 0 -1
vn 0 -1 0
vn 0 1 0

# texcoords
vt 0.986328 0.5
vt 0.994141 0.5

# verts
v -5 38 5
v -5 38 -5
v -5 40 5
v -5 40 -5
v -3 37 3
v -3 37 -3
v -3 38 3
v -3 38 -3
v -2 31 4
v -2 31 -4
v -2 34 4
v -2 34 -4
v -1 32 5
v -1 32 4
v -1 33 5
v -1 33 4
v -1 34 1
v -1 34 -1
v -1 37 1
v -1 37 -1
v 1 32 5
v 1 32 4
v 1 33 5
v 1 33 4
v 1 34 1
v 1 34 -1
v 1 37 1
v 1 37 -1
v 2 31 4
v 2 31 -4
v 2 32 4
v 2 32 -4
v 2 33 4
v 2 33 3
v 2 34 4
v 2 34 3
v 3 32 4
v 3 32 -4
v 3 33 4
v 3 33 3
v 3 34 3
v 3 34 -4
v 3 37 3
v 3 37 -3
v 3 38 3
v 3 38 -3
v 5 38 5
v 5 38 -5
v 5 40 5
v 5 40 -5
v -5 38 5
v -5 40 5
v -1 32 5
v -1 33 5
v 1 32 5
v 1 33 5
v 5 38 5
v 5 40 5
v -2 31 4
v -2 34 4
v -1 32 4
v -1 33 4
v 1 32 4
v 1 33 4
v 2 31 4
v 2 32 4
v 2 33 4
v 2 34 4
v 3 32 4
v 3 33 4
v -3 37 3
v -3 38 3
v 2 33 3
v 2 34 3
v 3 33 3
v 3 34 3
v 3 37 3
v 3 38 3
v -1 34 1
v -1 37 1
v 1 34 1
v 1 37 1
v -1 34 -1
v -1 37 -1
v 1 34 -1
v 1 37 -1
v -3 37 -3
v -3 38 -3
v 3 37 -3
v 3 38 -3
v -2 31 -4
v -2 34 -4
v 2 31 -4
v 2 32 -4
v 3 32 -4
v 3 34 -4
v -5 38 -5
v -5 40 -5
v 5 38 -5
v 5 40 -5
v -2 31 4
v 2 31 4
v -2 31 -4
v 2 31 -4
v -1 32 5
v 1 32 5
v -1 32 4
v 1 32 4
v 2 32 4
v 3 32 4
v 2 32 -4
v 3 32 -4
v -3 37 3
v 3 37 3
v -1 37 1
v 1 37 1
v -1 37 -1
v 1 37 -1
v -3 37 -3
v 3 37 -3
v -5 38 5
v 5 38 5
v -3 38 3
v 3 38 3
v -3 38 -3
v 3 38 -3
v -5 38 -5
v 5 38 -5
v -1 33 5
v 1 33 5
v -1 33 4
v 1 33 4
v 2 33 4
v 3 33 4
v 2 33 3
v 3 33 3
v -2 34 4
v 2 34 4
v 2 34 3
v 3 34 3
v -1 34 1
v 1 34 1
v -1 34 -1
v 1 34 -1
v -2 34 -4
v 3 34 -4
v -5 40 5
v 5 40 5
v -5 40 -5
v 5 40 -5

# faces
f 3/1/1 2/1/1 1/1/1
f 4/1/1 2/1/1 3/1/1
f 7/1/1 6/1/1 5/1/1
f 8/1/1 6/1/1 7/1/1
f 11/1/1 10/1/1 9/1/1
f 12/1/1 10/1/1 11/1/1
f 15/2/1 14/2/1 13/2/1
f 16/2/1 14/2/1 15/2/1
f 19/1/1 18/1/1 17/1/1
f 20/1/1 18/1/1 19/1/1
f 21/2/2 22/2/2 23/2/2
f 23/2/2 22/2/2 24/2/2
f 25/1/2 26/1/2 27/1/2
f 27/1/2 26/1/2 28/1/2
f 29/1/2 30/1/2 31/1/2
f 31/1/2 30/1/2 32/1/2
f 33/1/2 34/1/2 35/1/2
f 35/1/2 34/1/2 36/1/2
f 37/1/2 38/1/2 39/1/2
f 39/1/2 38/1/2 40/1/2
f 40/1/2 38/1/2 41/1/2
f 41/1/2 38/1/2 42/1/2
f 43/1/2 44/1/2 45/1/2
f 45/1/2 44/1/2 46/1/2
f 47/1/2 48/1/2 49/1/2
f 49/1/2 48/1/2 50/1/2
f 55/2/3 54/2/3 53/2/3
f 56/2/3 54/2/3 55/2/3
f 57/1/3 52/1/3 51/1/3
f 58/1/3 52/1/3 57/1/3
f 61/1/3 60/1/3 59/1/3
f 62/1/3 60/1/3 61/1/3
f 63/1/3 61/1/3 59/1/3
f 64/1/3 60/1/3 62/1/3
f 65/1/3 63/1/3 59/1/3
f 65/1/3 64/1/3 63/1/3
f 66/1/3 64/1/3 65/1/3
f 67/1/3 60/1/3 64/1/3
f 67/1/3 64/1/3 66/1/3
f 68/1/3 60/1/3 67/1/3
f 69/1/3 67/1/3 66/1/3
f 70/1/3 67/1/3 69/1/3
f 75/1/3 74/1/3 73/1/3
f 76/1/3 74/1/3 75/1/3
f 77/1/3 72/1/3 71/1/3
f 78/1/3 72/1/3 77/1/3
f 81/1/3 80/1/3 79/1/3
f 82/1/3 80/1/3 81/1/3
f 83/1/4 84/1/4 85/1/4
f 85/1/4 84/1/4 86/1/4
f 87/1/4 88/1/4 89/1/4
f 89/1/4 88/1/4 90/1/4
f 91/1/4 92/1/4 93/1/4
f 93/1/4 92/1/4 94/1/4
f 94/1/4 92/1/4 95/1/4
f 95/1/4 92/1/4 96/1/4
f 97/1/4 98/1/4 99/1/4
f 99/1/4 98/1/4 100/1/4
f 103/1/5 102/1/5 101/1/5
f 104/1/5 102/1/5 103/1/5
f 107/2/5 106/2/5 105/2/5
f 108/2/5 106/2/5 107/2/5
f 111/1/5 110/1/5 109/1/5
f 112/1/5 110/1/5 111/1/5
f 115/1/5 114/1/5 113/1/5
f 116/1/5 114/1/5 115/1/5
f 117/1/5 115/1/5 113/1/5
f 118/1/5 114/1/5 116/1/5
f 119/1/5 117/1/5 113/1/5
f 119/1/5 118/1/5 117/1/5
f 120/1/5 114/1/5 118/1/5
f 120/1/5 118/1/5 119/1/5
f 123/1/5 122/1/5 121/1/5
f 124/1/5 122/1/5 123/1/5
f 125/1/5 123/1/5 121/1/5
f 126/1/5 122/1/5 124/1/5
f 127/1/5 125/1/5 121/1/5
f 127/1/5 126/1/5 125/1/5
f 128/1/5 122/1/5 126/1/5
f 128/1/5 126/1/5 127/1/5
f 129/2/6 130/2/6 131/2/6
f 131/2/6 130/2/6 132/2/6
f 133/1/6 134/1/6 135/1/6
f 135/1/6 134/1/6 136/1/6
f 137/1/6 138/1/6 139/1/6
f 137/1/6 139/1/6 141/1/6
f 139/1/6 140/1/6 141/1/6
f 141/1/6 140/1/6 142/1/6
f 137/1/6 141/1/6 143/1/6
f 142/1/6 140/1/6 144/1/6
f 137/1/6 143/1/6 145/1/6
f 143/1/6 144/1/6 145/1/6
f 144/1/6 140/1/6 146/1/6
f 145/1/6 144/1/6 146/1/6
f 147/1/6 148/1/6 149/1/6
f 149/1/6 148/1/6 150/1/6
