# MagicaVoxel @ Ephtracy

# group
g camera

# material
mtllib camera.mtl
usemtl palette

# normals
vn -1 0 0
vn 1 0 0
vn 0 0 1
vn 0 0 -1
vn 0 -1 0
vn 0 1 0

# texcoords
vt 0.841797 0.5
vt 0.986328 0.5
vt 0.994141 0.5

# verts
v -5 38 5
v -5 38 -5
v -5 40 5
v -5 40 -5
v -3 37 3
v -3 37 -3
v -3 38 3
v -3 38 -3
v -2 31 4
v -2 31 -4
v -2 34 4
v -2 34 -4
v -1 32 5
v -1 32 4
v -1 33 5
v -1 33 4
v -1 34 1
v -1 34 -1
v -1 37 1
v -1 37 -1
v 1 32 5
v 1 32 4
v 1 33 5
v 1 33 4
v 1 34 1
v 1 34 -1
v 1 37 1
v 1 37 -1
v 2 31 4
v 2 31 -4
v 2 32 4
v 2 32 -4
v 3 32 4
v 3 32 -4
v 3 33 4
v 3 33 3
v 3 34 4
v 3 34 3
v 3 34 -4
v 3 37 3
v 3 37 -3
v 3 38 3
v 3 38 -3
v 5 38 5
v 5 38 -5
v 5 40 5
v 5 40 -5
v -5 38 5
v -5 40 5
v -1 32 5
v -1 33 5
v 1 32 5
v 1 33 5
v 5 38 5
v 5 40 5
v -2 31 4
v -2 34 4
v -1 32 4
v -1 33 4
v 1 32 4
v 1 33 4
v 2 31 4
v 2 32 4
v 2 33 4
v 2 34 4
v 3 32 4
v 3 33 4
v 3 34 4
v -3 37 3
v -3 38 3
v 3 37 3
v 3 38 3
v -1 34 1
v -1 37 1
v 1 34 1
v 1 37 1
v -1 34 -1
v -1 37 -1
v 1 34 -1
v 1 37 -1
v -3 37 -3
v -3 38 -3
v 3 37 -3
v 3 38 -3
v -2 31 -4
v -2 34 -4
v 2 31 -4
v 2 32 -4
v 3 32 -4
v 3 34 -4
v -5 38 -5
v -5 40 -5
v 5 38 -5
v 5 40 -5
v -2 31 4
v 2 31 4
v -2 31 -4
v 2 31 -4
v -1 32 5
v 1 32 5
v -1 32 4
v 1 32 4
v 2 32 4
v 3 32 4
v 2 32 -4
v 3 32 -4
v -3 37 3
v 3 37 3
v -1 37 1
v 1 37 1
v -1 37 -1
v 1 37 -1
v -3 37 -3
v 3 37 -3
v -5 38 5
v 5 38 5
v -3 38 3
v 3 38 3
v -3 38 -3
v 3 38 -3
v -5 38 -5
v 5 38 -5
v -1 33 5
v 1 33 5
v -1 33 4
v 1 33 4
v -2 34 4
v 2 34 4
v 3 34 4
v 2 34 3
v 3 34 3
v -1 34 1
v 1 34 1
v -1 34 -1
v 1 34 -1
v -2 34 -4
v 3 34 -4
v -5 40 5
v 5 40 5
v -5 40 -5
v 5 40 -5

# faces
f 3/2/1 2/2/1 1/2/1
f 4/2/1 2/2/1 3/2/1
f 7/2/1 6/2/1 5/2/1
f 8/2/1 6/2/1 7/2/1
f 11/2/1 10/2/1 9/2/1
f 12/2/1 10/2/1 11/2/1
f 15/3/1 14/3/1 13/3/1
f 16/3/1 14/3/1 15/3/1
f 19/2/1 18/2/1 17/2/1
f 20/2/1 18/2/1 19/2/1
f 21/3/2 22/3/2 23/3/2
f 23/3/2 22/3/2 24/3/2
f 25/2/2 26/2/2 27/2/2
f 27/2/2 26/2/2 28/2/2
f 29/2/2 30/2/2 31/2/2
f 31/2/2 30/2/2 32/2/2
f 33/2/2 34/2/2 35/2/2
f 35/2/2 34/2/2 36/2/2
f 35/1/2 36/1/2 37/1/2
f 36/2/2 34/2/2 38/2/2
f 37/1/2 36/1/2 38/1/2
f 38/2/2 34/2/2 39/2/2
f 40/2/2 41/2/2 42/2/2
f 42/2/2 41/2/2 43/2/2
f 44/2/2 45/2/2 46/2/2
f 46/2/2 45/2/2 47/2/2
f 52/3/3 51/3/3 50/3/3
f 53/3/3 51/3/3 52/3/3
f 54/2/3 49/2/3 48/2/3
f 55/2/3 49/2/3 54/2/3
f 58/2/3 57/2/3 56/2/3
f 59/2/3 57/2/3 58/2/3
f 60/2/3 58/2/3 56/2/3
f 61/2/3 57/2/3 59/2/3
f 62/2/3 60/2/3 56/2/3
f 62/2/3 61/2/3 60/2/3
f 63/2/3 61/2/3 62/2/3
f 64/2/3 57/2/3 61/2/3
f 64/2/3 61/2/3 63/2/3
f 65/2/3 57/2/3 64/2/3
f 66/2/3 64/2/3 63/2/3
f 67/1/3 65/1/3 64/1/3
f 67/2/3 64/2/3 66/2/3
f 68/1/3 65/1/3 67/1/3
f 71/2/3 70/2/3 69/2/3
f 72/2/3 70/2/3 71/2/3
f 75/2/3 74/2/3 73/2/3
f 76/2/3 74/2/3 75/2/3
f 77/2/4 78/2/4 79/2/4
f 79/2/4 78/2/4 80/2/4
f 81/2/4 82/2/4 83/2/4
f 83/2/4 82/2/4 84/2/4
f 85/2/4 86/2/4 87/2/4
f 87/2/4 86/2/4 88/2/4
f 88/2/4 86/2/4 89/2/4
f 89/2/4 86/2/4 90/2/4
f 91/2/4 92/2/4 93/2/4
f 93/2/4 92/2/4 94/2/4
f 97/2/5 96/2/5 95/2/5
f 98/2/5 96/2/5 97/2/5
f 101/3/5 100/3/5 99/3/5
f 102/3/5 100/3/5 101/3/5
f 105/2/5 104/2/5 103/2/5
f 106/2/5 104/2/5 105/2/5
f 109/2/5 108/2/5 107/2/5
f 110/2/5 108/2/5 109/2/5
f 111/2/5 109/2/5 107/2/5
f 112/2/5 108/2/5 110/2/5
f 113/2/5 111/2/5 107/2/5
f 113/2/5 112/2/5 111/2/5
f 114/2/5 108/2/5 112/2/5
f 114/2/5 112/2/5 113/2/5
f 117/2/5 116/2/5 115/2/5
f 118/2/5 116/2/5 117/2/5
f 119/2/5 117/2/5 115/2/5
f 120/2/5 116/2/5 118/2/5
f 121/2/5 119/2/5 115/2/5
f 121/2/5 120/2/5 119/2/5
f 122/2/5 116/2/5 120/2/5
f 122/2/5 120/2/5 121/2/5
f 123/3/6 124/3/6 125/3/6
f 125/3/6 124/3/6 126/3/6
f 127/2/6 128/2/6 130/2/6
f 128/1/6 129/1/6 130/1/6
f 130/1/6 129/1/6 131/1/6
f 127/2/6 130/2/6 132/2/6
f 130/2/6 131/2/6 132/2/6
f 132/2/6 131/2/6 133/2/6
f 127/2/6 132/2/6 134/2/6
f 133/2/6 131/2/6 135/2/6
f 127/2/6 134/2/6 136/2/6
f 134/2/6 135/2/6 136/2/6
f 135/2/6 131/2/6 137/2/6
f 136/2/6 135/2/6 137/2/6
f 138/2/6 139/2/6 140/2/6
f 140/2/6 139/2/6 141/2/6
