# This file was created with Minddesk Qubicle 3.0
# Get Qubicle at www.getqubicle.com

mtllib camera.mtl

vn 0.0 0.0 1.0
vn 0.0 0.0 -1.0
vn -1.0 0.0 0.0
vn 1.0 0.0 0.0
vn 0.0 1.0 0.0
vn 0.0 -1.0 0.0

v 1.00000 37.00000 -1.00000
v 1.00000 34.00000 -1.00000
v -1.00000 34.00000 -1.00000
v -1.00000 37.00000 -1.00000
v 5.00000 40.00000 -5.00000
v 5.00000 38.00000 -5.00000
v -5.00000 38.00000 -5.00000
v -5.00000 40.00000 -5.00000
v 3.00000 38.00000 -3.00000
v 3.00000 37.00000 -3.00000
v -3.00000 37.00000 -3.00000
v -3.00000 38.00000 -3.00000
v 2.00000 32.00000 -4.00000
v 2.00000 31.00000 -4.00000
v -2.00000 31.00000 -4.00000
v -2.00000 32.00000 -4.00000
v 2.00000 34.00000 -4.00000
v 2.00000 33.00000 -4.00000
v -2.00000 33.00000 -4.00000
v -2.00000 34.00000 -4.00000
v 1.00000 33.00000 -5.00000
v 1.00000 32.00000 -5.00000
v -1.00000 32.00000 -5.00000
v -1.00000 33.00000 -5.00000
v 3.00000 33.00000 -4.00000
v 3.00000 32.00000 -4.00000
v 1.00000 32.00000 -4.00000
v 1.00000 33.00000 -4.00000
v -1.00000 33.00000 -4.00000
v -1.00000 32.00000 -4.00000
v 3.00000 34.00000 -3.00000
v 3.00000 33.00000 -3.00000
v 2.00000 33.00000 -3.00000
v 2.00000 34.00000 -3.00000
v -1.00000 37.00000 1.00000
v -1.00000 34.00000 1.00000
v 1.00000 34.00000 1.00000
v 1.00000 37.00000 1.00000
v -5.00000 40.00000 5.00000
v -5.00000 38.00000 5.00000
v 5.00000 38.00000 5.00000
v 5.00000 40.00000 5.00000
v -2.00000 34.00000 4.00000
v -2.00000 32.00000 4.00000
v 3.00000 32.00000 4.00000
v 3.00000 34.00000 4.00000
v -3.00000 38.00000 3.00000
v -3.00000 37.00000 3.00000
v 3.00000 37.00000 3.00000
v 3.00000 38.00000 3.00000
v -2.00000 31.00000 4.00000
v 2.00000 31.00000 4.00000
v 2.00000 32.00000 4.00000
v 3.00000 33.00000 4.00000
v -2.00000 34.00000 1.00000
v 3.00000 34.00000 1.00000
v -2.00000 34.00000 -3.00000
v -2.00000 34.00000 -1.00000
v 3.00000 34.00000 -1.00000
v -5.00000 38.00000 3.00000
v -5.00000 38.00000 -3.00000
v 5.00000 38.00000 -3.00000
v 5.00000 38.00000 3.00000
v -3.00000 37.00000 -1.00000
v 3.00000 37.00000 -1.00000
v -3.00000 37.00000 1.00000
v 3.00000 37.00000 1.00000

vt 0.01563 0.34375
vt 0.01563 0.03125
vt 0.17188 0.03125
vt 0.17188 0.34375
vt 0.20313 0.28125
vt 0.20313 0.03125
vt 0.26563 0.03125
vt 0.26563 0.28125
vt 0.29688 0.28125
vt 0.29688 0.03125
vt 0.31250 0.03125
vt 0.31250 0.28125
vt 0.34375 0.21875
vt 0.34375 0.03125
vt 0.37500 0.03125
vt 0.37500 0.21875
vt 0.40625 0.21875
vt 0.40625 0.03125
vt 0.43750 0.03125
vt 0.43750 0.21875
vt 0.46875 0.12500
vt 0.46875 0.03125
vt 0.59375 0.03125
vt 0.59375 0.12500
vt 0.62500 0.12500
vt 0.62500 0.03125
vt 0.70313 0.03125
vt 0.70313 0.12500
vt 0.73438 0.12500
vt 0.73438 0.03125
vt 0.76563 0.03125
vt 0.76563 0.12500
vt 0.79688 0.12500
vt 0.79688 0.03125
vt 0.82813 0.03125
vt 0.82813 0.12500
vt 0.85938 0.12500
vt 0.85938 0.03125
vt 0.89063 0.03125
vt 0.89063 0.12500
vt 0.92188 0.12500
vt 0.92188 0.03125
vt 0.95313 0.03125
vt 0.95313 0.12500
vt 0.01563 0.46875
vt 0.01563 0.40625
vt 0.17188 0.40625
vt 0.17188 0.46875
vt 0.20313 0.46875
vt 0.20313 0.40625
vt 0.35938 0.40625
vt 0.35938 0.46875
vt 0.39063 0.46875
vt 0.39063 0.40625
vt 0.54688 0.40625
vt 0.54688 0.46875
vt 0.57813 0.46875
vt 0.57813 0.40625
vt 0.73438 0.40625
vt 0.73438 0.46875
vt 0.76563 0.46875
vt 0.76563 0.40625
vt 0.92188 0.40625
vt 0.92188 0.46875
vt 0.01563 0.59375
vt 0.01563 0.53125
vt 0.17188 0.53125
vt 0.17188 0.59375
vt 0.20313 0.59375
vt 0.20313 0.53125
vt 0.29688 0.53125
vt 0.29688 0.59375
vt 0.32813 0.59375
vt 0.32813 0.53125
vt 0.42188 0.53125
vt 0.42188 0.59375
vt 0.45313 0.59375
vt 0.45313 0.53125
vt 0.53125 0.53125
vt 0.53125 0.59375
vt 0.56250 0.59375
vt 0.56250 0.53125
vt 0.64063 0.53125
vt 0.64063 0.59375
vt 0.95313 0.46875
vt 0.95313 0.40625
vt 0.98438 0.40625
vt 0.98438 0.46875
vt 0.67188 0.59375
vt 0.67188 0.53125
vt 0.70313 0.53125
vt 0.70313 0.59375
vt 0.73438 0.59375
vt 0.73438 0.53125
vt 0.76563 0.53125
vt 0.76563 0.59375
vt 0.79688 0.59375
vt 0.79688 0.53125
vt 0.81250 0.53125
vt 0.81250 0.59375
vt 0.46875 0.21875
vt 0.46875 0.18750
vt 0.59375 0.18750
vt 0.59375 0.21875
vt 0.62500 0.21875
vt 0.62500 0.18750
vt 0.75000 0.18750
vt 0.75000 0.21875
vt 0.78125 0.21875
vt 0.78125 0.18750
vt 0.89063 0.18750
vt 0.89063 0.21875
vt 0.84375 0.56250
vt 0.84375 0.53125
vt 0.93750 0.53125
vt 0.93750 0.56250
vt 0.01563 0.68750
vt 0.01563 0.65625
vt 0.10938 0.65625
vt 0.10938 0.68750
vt 0.14063 0.68750
vt 0.14063 0.65625
vt 0.23438 0.65625
vt 0.23438 0.68750
vt 0.26563 0.68750
vt 0.26563 0.65625
vt 0.35938 0.65625
vt 0.35938 0.68750
vt 0.92188 0.21875
vt 0.92188 0.18750
vt 0.98438 0.18750
vt 0.98438 0.21875
vt 0.39063 0.68750
vt 0.39063 0.65625
vt 0.45313 0.65625
vt 0.45313 0.68750
vt 0.48438 0.68750
vt 0.48438 0.65625
vt 0.54688 0.65625
vt 0.54688 0.68750
vt 0.57813 0.68750
vt 0.57813 0.65625
vt 0.64063 0.65625
vt 0.64063 0.68750
vt 0.67188 0.68750
vt 0.67188 0.65625
vt 0.70313 0.65625
vt 0.70313 0.68750
vt 0.73438 0.68750
vt 0.73438 0.65625
vt 0.76563 0.65625
vt 0.76563 0.68750
vt 0.79688 0.68750
vt 0.79688 0.65625
vt 0.82813 0.65625
vt 0.82813 0.68750
vt 0.85938 0.68750
vt 0.85938 0.65625
vt 0.89063 0.65625
vt 0.89063 0.68750
vt 0.96875 0.56250
vt 0.96875 0.53125
vt 0.98438 0.53125
vt 0.98438 0.56250
vt 0.92188 0.68750
vt 0.92188 0.65625
vt 0.93750 0.65625
vt 0.93750 0.68750
vt 0.96875 0.68750
vt 0.96875 0.65625
vt 0.98438 0.65625
vt 0.98438 0.68750
vt 0.01563 0.78125
vt 0.01563 0.75000
vt 0.03125 0.75000
vt 0.03125 0.78125
vt 0.06250 0.78125
vt 0.06250 0.75000
vt 0.07813 0.75000
vt 0.07813 0.78125
vt 0.10938 0.78125
vt 0.10938 0.75000
vt 0.12500 0.75000
vt 0.12500 0.78125

g camera
usemtl camera_Material
f 1/41/2 2/42/2 3/43/2 4/44/2
f 5/61/2 6/62/2 7/63/2 8/64/2
f 9/121/2 10/122/2 11/123/2 12/124/2
f 13/133/2 14/134/2 15/135/2 16/136/2
f 17/137/2 18/138/2 19/139/2 20/140/2
f 21/149/2 22/150/2 23/151/2 24/152/2
f 25/145/2 26/146/2 27/147/2 28/148/2
f 29/173/2 30/174/2 16/175/2 19/176/2
f 31/177/2 32/178/2 33/179/2 34/180/2
f 35/37/1 36/38/1 37/39/1 38/40/1
f 39/53/1 40/54/1 41/55/1 42/56/1
f 43/81/1 44/82/1 45/83/1 46/84/1
f 47/117/1 48/118/1 49/119/1 50/120/1
f 44/141/1 51/142/1 52/143/1 53/144/1
f 20/21/3 15/22/3 51/23/3 43/24/3
f 4/33/3 3/34/3 36/35/3 35/36/3
f 8/49/3 7/50/3 40/51/3 39/52/3
f 12/125/3 11/126/3 48/127/3 47/128/3
f 24/161/3 23/162/3 30/163/3 29/164/3
f 38/29/4 37/30/4 2/31/4 1/32/4
f 42/45/4 41/46/4 6/47/4 5/48/4
f 53/105/4 52/106/4 14/107/4 13/108/4
f 54/101/4 45/102/4 26/103/4 25/104/4
f 46/109/4 54/110/4 32/111/4 31/112/4
f 50/113/4 49/114/4 10/115/4 9/116/4
f 28/181/4 27/182/4 22/183/4 21/184/4
f 34/165/4 33/166/4 18/167/4 17/168/4
f 8/1/5 39/2/5 42/3/5 5/4/5
f 55/25/5 43/26/5 46/27/5 56/28/5
f 57/77/5 58/78/5 59/79/5 31/80/5
f 2/85/5 37/86/5 56/87/5 59/88/5
f 58/97/5 55/98/5 36/99/5 3/100/5
f 20/129/5 57/130/5 34/131/5 17/132/5
f 24/157/5 29/158/5 28/159/5 21/160/5
f 18/169/5 33/170/5 32/171/5 25/172/5
f 51/5/6 15/6/6 14/7/6 52/8/6
f 60/13/6 61/14/6 12/15/6 47/16/6
f 50/17/6 9/18/6 62/19/6 63/20/6
f 53/9/6 13/10/6 26/11/6 45/12/6
f 61/57/6 7/58/6 6/59/6 62/60/6
f 40/65/6 60/66/6 63/67/6 41/68/6
f 64/73/6 11/74/6 10/75/6 65/76/6
f 48/69/6 66/70/6 67/71/6 49/72/6
f 66/89/6 64/90/6 4/91/6 35/92/6
f 38/93/6 1/94/6 65/95/6 67/96/6
f 30/153/6 23/154/6 22/155/6 27/156/6
