# MagicaVoxel @ Ephtracy

# group
g ceiling

# material
mtllib ceiling.mtl
usemtl palette

# normals
vn -1 0 0
vn 1 0 0
vn 0 0 1
vn 0 0 -1
vn 0 -1 0
vn 0 1 0

# texcoords
vt 0.958984 0.5
vt 0.986328 0.5
vt 0.994141 0.5

# verts
v -20 0 20
v -20 0 -20
v -20 5 20
v -20 5 -20
v -17 0 19
v -17 0 -19
v -17 1 19
v -17 1 -19
v -10 0 19
v -10 0 18
v -10 0 8
v -10 0 7
v -10 0 -7
v -10 0 -8
v -10 0 -18
v -10 0 -19
v -10 1 19
v -10 1 18
v -10 1 8
v -10 1 7
v -10 1 -7
v -10 1 -8
v -10 1 -18
v -10 1 -19
v -4 0 8
v -4 0 7
v -4 0 -7
v -4 0 -8
v -4 1 8
v -4 1 7
v -4 1 -7
v -4 1 -8
v 2 0 10
v 2 0 -10
v 2 1 10
v 2 1 -10
v 5 0 8
v 5 0 7
v 5 0 -7
v 5 0 -8
v 5 1 8
v 5 1 7
v 5 1 -7
v 5 1 -8
v 7 0 19
v 7 0 10
v 7 0 -10
v 7 0 -19
v 7 1 19
v 7 1 10
v 7 1 -10
v 7 1 -19
v 15 0 19
v 15 0 18
v 15 0 8
v 15 0 7
v 15 0 -7
v 15 0 -8
v 15 0 -18
v 15 0 -19
v 15 1 19
v 15 1 18
v 15 1 8
v 15 1 7
v 15 1 -7
v 15 1 -8
v 15 1 -18
v 15 1 -19
v 18 0 19
v 18 0 -19
v 18 1 19
v 18 1 -19
v -18 0 19
v -18 0 -19
v -18 1 19
v -18 1 -19
v -15 0 19
v -15 0 18
v -15 0 8
v -15 0 7
v -15 0 -7
v -15 0 -8
v -15 0 -18
v -15 0 -19
v -15 1 19
v -15 1 18
v -15 1 8
v -15 1 7
v -15 1 -7
v -15 1 -8
v -15 1 -18
v -15 1 -19
v -7 0 19
v -7 0 10
v -7 0 -10
v -7 0 -19
v -7 1 19
v -7 1 10
v -7 1 -10
v -7 1 -19
v -5 0 8
v -5 0 7
v -5 0 -7
v -5 0 -8
v -5 1 8
v -5 1 7
v -5 1 -7
v -5 1 -8
v -2 0 10
v -2 0 -10
v -2 1 10
v -2 1 -10
v 4 0 8
v 4 0 7
v 4 0 -7
v 4 0 -8
v 4 1 8
v 4 1 7
v 4 1 -7
v 4 1 -8
v 10 0 19
v 10 0 18
v 10 0 8
v 10 0 7
v 10 0 -7
v 10 0 -8
v 10 0 -18
v 10 0 -19
v 10 1 19
v 10 1 18
v 10 1 8
v 10 1 7
v 10 1 -7
v 10 1 -8
v 10 1 -18
v 10 1 -19
v 17 0 19
v 17 0 -19
v 17 1 19
v 17 1 -19
v 20 0 20
v 20 0 -20
v 20 5 20
v 20 5 -20
v -20 0 20
v -20 5 20
v 20 0 20
v 20 5 20
v -15 0 18
v -15 1 18
v -10 0 18
v -10 1 18
v 10 0 18
v 10 1 18
v 15 0 18
v 15 1 18
v -7 0 10
v -7 1 10
v -2 0 10
v -2 1 10
v 2 0 10
v 2 1 10
v 7 0 10
v 7 1 10
v -15 0 7
v -15 1 7
v -10 0 7
v -10 1 7
v -5 0 7
v -5 1 7
v -4 0 7
v -4 1 7
v 4 0 7
v 4 1 7
v 5 0 7
v 5 1 7
v 10 0 7
v 10 1 7
v 15 0 7
v 15 1 7
v -15 0 -8
v -15 1 -8
v -10 0 -8
v -10 1 -8
v -5 0 -8
v -5 1 -8
v -4 0 -8
v -4 1 -8
v 4 0 -8
v 4 1 -8
v 5 0 -8
v 5 1 -8
v 10 0 -8
v 10 1 -8
v 15 0 -8
v 15 1 -8
v -18 0 -19
v -18 1 -19
v -17 0 -19
v -17 1 -19
v -15 0 -19
v -15 1 -19
v -10 0 -19
v -10 1 -19
v -7 0 -19
v -7 1 -19
v 7 0 -19
v 7 1 -19
v 10 0 -19
v 10 1 -19
v 15 0 -19
v 15 1 -19
v 17 0 -19
v 17 1 -19
v 18 0 -19
v 18 1 -19
v -18 0 19
v -18 1 19
v -17 0 19
v -17 1 19
v -15 0 19
v -15 1 19
v -10 0 19
v -10 1 19
v -7 0 19
v -7 1 19
v 7 0 19
v 7 1 19
v 10 0 19
v 10 1 19
v 15 0 19
v 15 1 19
v 17 0 19
v 17 1 19
v 18 0 19
v 18 1 19
v -15 0 8
v -15 1 8
v -10 0 8
v -10 1 8
v -5 0 8
v -5 1 8
v -4 0 8
v -4 1 8
v 4 0 8
v 4 1 8
v 5 0 8
v 5 1 8
v 10 0 8
v 10 1 8
v 15 0 8
v 15 1 8
v -15 0 -7
v -15 1 -7
v -10 0 -7
v -10 1 -7
v -5 0 -7
v -5 1 -7
v -4 0 -7
v -4 1 -7
v 4 0 -7
v 4 1 -7
v 5 0 -7
v 5 1 -7
v 10 0 -7
v 10 1 -7
v 15 0 -7
v 15 1 -7
v -7 0 -10
v -7 1 -10
v -2 0 -10
v -2 1 -10
v 2 0 -10
v 2 1 -10
v 7 0 -10
v 7 1 -10
v -15 0 -18
v -15 1 -18
v -10 0 -18
v -10 1 -18
v 10 0 -18
v 10 1 -18
v 15 0 -18
v 15 1 -18
v -20 0 -20
v -20 5 -20
v 20 0 -20
v 20 5 -20
v -20 0 20
v 20 0 20
v -18 0 19
v -17 0 19
v -15 0 19
v -10 0 19
v -7 0 19
v 7 0 19
v 10 0 19
v 15 0 19
v 17 0 19
v 18 0 19
v -15 0 18
v -10 0 18
v 10 0 18
v 15 0 18
v -7 0 10
v -2 0 10
v 2 0 10
v 7 0 10
v -15 0 8
v -10 0 8
v -5 0 8
v -4 0 8
v 4 0 8
v 5 0 8
v 10 0 8
v 15 0 8
v -15 0 7
v -10 0 7
v -5 0 7
v -4 0 7
v 4 0 7
v 5 0 7
v 10 0 7
v 15 0 7
v -15 0 -7
v -10 0 -7
v -5 0 -7
v -4 0 -7
v 4 0 -7
v 5 0 -7
v 10 0 -7
v 15 0 -7
v -15 0 -8
v -10 0 -8
v -5 0 -8
v -4 0 -8
v 4 0 -8
v 5 0 -8
v 10 0 -8
v 15 0 -8
v -7 0 -10
v -2 0 -10
v 2 0 -10
v 7 0 -10
v -15 0 -18
v -10 0 -18
v 10 0 -18
v 15 0 -18
v -18 0 -19
v -17 0 -19
v -15 0 -19
v -10 0 -19
v -7 0 -19
v 7 0 -19
v 10 0 -19
v 15 0 -19
v 17 0 -19
v 18 0 -19
v -20 0 -20
v 20 0 -20
v -18 1 19
v -17 1 19
v -15 1 19
v -10 1 19
v -7 1 19
v 7 1 19
v 10 1 19
v 15 1 19
v 17 1 19
v 18 1 19
v -15 1 18
v -10 1 18
v 10 1 18
v 15 1 18
v -7 1 10
v -2 1 10
v 2 1 10
v 7 1 10
v -15 1 8
v -10 1 8
v -5 1 8
v -4 1 8
v 4 1 8
v 5 1 8
v 10 1 8
v 15 1 8
v -15 1 7
v -10 1 7
v -5 1 7
v -4 1 7
v 4 1 7
v 5 1 7
v 10 1 7
v 15 1 7
v -15 1 -7
v -10 1 -7
v -5 1 -7
v -4 1 -7
v 4 1 -7
v 5 1 -7
v 10 1 -7
v 15 1 -7
v -15 1 -8
v -10 1 -8
v -5 1 -8
v -4 1 -8
v 4 1 -8
v 5 1 -8
v 10 1 -8
v 15 1 -8
v -7 1 -10
v -2 1 -10
v 2 1 -10
v 7 1 -10
v -15 1 -18
v -10 1 -18
v 10 1 -18
v 15 1 -18
v -18 1 -19
v -17 1 -19
v -15 1 -19
v -10 1 -19
v -7 1 -19
v 7 1 -19
v 10 1 -19
v 15 1 -19
v 17 1 -19
v 18 1 -19
v -20 5 20
v 20 5 20
v -20 5 -20
v 20 5 -20

# faces
f 3/2/1 2/2/1 1/2/1
f 4/2/1 2/2/1 3/2/1
f 7/2/1 6/2/1 5/2/1
f 8/2/1 6/2/1 7/2/1
f 17/2/1 10/2/1 9/2/1
f 18/2/1 10/2/1 17/2/1
f 19/2/1 12/2/1 11/2/1
f 20/2/1 12/2/1 19/2/1
f 21/2/1 14/2/1 13/2/1
f 22/2/1 14/2/1 21/2/1
f 23/2/1 16/2/1 15/2/1
f 24/2/1 16/2/1 23/2/1
f 29/2/1 26/2/1 25/2/1
f 30/2/1 26/2/1 29/2/1
f 31/2/1 28/2/1 27/2/1
f 32/2/1 28/2/1 31/2/1
f 35/2/1 34/2/1 33/2/1
f 36/2/1 34/2/1 35/2/1
f 41/2/1 38/2/1 37/2/1
f 42/2/1 38/2/1 41/2/1
f 43/2/1 40/2/1 39/2/1
f 44/2/1 40/2/1 43/2/1
f 49/2/1 46/2/1 45/2/1
f 50/2/1 46/2/1 49/2/1
f 51/2/1 48/2/1 47/2/1
f 52/2/1 48/2/1 51/2/1
f 61/2/1 54/2/1 53/2/1
f 62/2/1 54/2/1 61/2/1
f 63/2/1 56/2/1 55/2/1
f 64/2/1 56/2/1 63/2/1
f 65/2/1 58/2/1 57/2/1
f 66/2/1 58/2/1 65/2/1
f 67/2/1 60/2/1 59/2/1
f 68/2/1 60/2/1 67/2/1
f 71/2/1 70/2/1 69/2/1
f 72/2/1 70/2/1 71/2/1
f 73/2/2 74/2/2 75/2/2
f 75/2/2 74/2/2 76/2/2
f 77/2/2 78/2/2 85/2/2
f 85/2/2 78/2/2 86/2/2
f 79/2/2 80/2/2 87/2/2
f 87/2/2 80/2/2 88/2/2
f 81/2/2 82/2/2 89/2/2
f 89/2/2 82/2/2 90/2/2
f 83/2/2 84/2/2 91/2/2
f 91/2/2 84/2/2 92/2/2
f 93/2/2 94/2/2 97/2/2
f 97/2/2 94/2/2 98/2/2
f 95/2/2 96/2/2 99/2/2
f 99/2/2 96/2/2 100/2/2
f 101/2/2 102/2/2 105/2/2
f 105/2/2 102/2/2 106/2/2
f 103/2/2 104/2/2 107/2/2
f 107/2/2 104/2/2 108/2/2
f 109/2/2 110/2/2 111/2/2
f 111/2/2 110/2/2 112/2/2
f 113/2/2 114/2/2 117/2/2
f 117/2/2 114/2/2 118/2/2
f 115/2/2 116/2/2 119/2/2
f 119/2/2 116/2/2 120/2/2
f 121/2/2 122/2/2 129/2/2
f 129/2/2 122/2/2 130/2/2
f 123/2/2 124/2/2 131/2/2
f 131/2/2 124/2/2 132/2/2
f 125/2/2 126/2/2 133/2/2
f 133/2/2 126/2/2 134/2/2
f 127/2/2 128/2/2 135/2/2
f 135/2/2 128/2/2 136/2/2
f 137/2/2 138/2/2 139/2/2
f 139/2/2 138/2/2 140/2/2
f 141/2/2 142/2/2 143/2/2
f 143/2/2 142/2/2 144/2/2
f 147/2/3 146/2/3 145/2/3
f 148/2/3 146/2/3 147/2/3
f 151/2/3 150/2/3 149/2/3
f 152/2/3 150/2/3 151/2/3
f 155/2/3 154/2/3 153/2/3
f 156/2/3 154/2/3 155/2/3
f 159/2/3 158/2/3 157/2/3
f 160/2/3 158/2/3 159/2/3
f 163/2/3 162/2/3 161/2/3
f 164/2/3 162/2/3 163/2/3
f 167/2/3 166/2/3 165/2/3
f 168/2/3 166/2/3 167/2/3
f 171/2/3 170/2/3 169/2/3
f 172/2/3 170/2/3 171/2/3
f 175/2/3 174/2/3 173/2/3
f 176/2/3 174/2/3 175/2/3
f 179/2/3 178/2/3 177/2/3
f 180/2/3 178/2/3 179/2/3
f 183/2/3 182/2/3 181/2/3
f 184/2/3 182/2/3 183/2/3
f 187/2/3 186/2/3 185/2/3
f 188/2/3 186/2/3 187/2/3
f 191/2/3 190/2/3 189/2/3
f 192/2/3 190/2/3 191/2/3
f 195/2/3 194/2/3 193/2/3
f 196/2/3 194/2/3 195/2/3
f 199/2/3 198/2/3 197/2/3
f 200/2/3 198/2/3 199/2/3
f 203/2/3 202/2/3 201/2/3
f 204/2/3 202/2/3 203/2/3
f 207/2/3 206/2/3 205/2/3
f 208/2/3 206/2/3 207/2/3
f 211/2/3 210/2/3 209/2/3
f 212/2/3 210/2/3 211/2/3
f 215/2/3 214/2/3 213/2/3
f 216/2/3 214/2/3 215/2/3
f 217/2/4 218/2/4 219/2/4
f 219/2/4 218/2/4 220/2/4
f 221/2/4 222/2/4 223/2/4
f 223/2/4 222/2/4 224/2/4
f 225/2/4 226/2/4 227/2/4
f 227/2/4 226/2/4 228/2/4
f 229/2/4 230/2/4 231/2/4
f 231/2/4 230/2/4 232/2/4
f 233/2/4 234/2/4 235/2/4
f 235/2/4 234/2/4 236/2/4
f 237/2/4 238/2/4 239/2/4
f 239/2/4 238/2/4 240/2/4
f 241/2/4 242/2/4 243/2/4
f 243/2/4 242/2/4 244/2/4
f 245/2/4 246/2/4 247/2/4
f 247/2/4 246/2/4 248/2/4
f 249/2/4 250/2/4 251/2/4
f 251/2/4 250/2/4 252/2/4
f 253/2/4 254/2/4 255/2/4
f 255/2/4 254/2/4 256/2/4
f 257/2/4 258/2/4 259/2/4
f 259/2/4 258/2/4 260/2/4
f 261/2/4 262/2/4 263/2/4
f 263/2/4 262/2/4 264/2/4
f 265/2/4 266/2/4 267/2/4
f 267/2/4 266/2/4 268/2/4
f 269/2/4 270/2/4 271/2/4
f 271/2/4 270/2/4 272/2/4
f 273/2/4 274/2/4 275/2/4
f 275/2/4 274/2/4 276/2/4
f 277/2/4 278/2/4 279/2/4
f 279/2/4 278/2/4 280/2/4
f 281/2/4 282/2/4 283/2/4
f 283/2/4 282/2/4 284/2/4
f 285/2/4 286/2/4 287/2/4
f 287/2/4 286/2/4 288/2/4
f 291/2/5 290/2/5 289/2/5
f 292/2/5 290/2/5 291/2/5
f 293/2/5 290/2/5 292/2/5
f 294/2/5 290/2/5 293/2/5
f 295/2/5 290/2/5 294/2/5
f 296/2/5 290/2/5 295/2/5
f 297/2/5 290/2/5 296/2/5
f 298/2/5 290/2/5 297/2/5
f 299/2/5 290/2/5 298/2/5
f 300/2/5 290/2/5 299/2/5
f 301/2/5 293/2/5 292/2/5
f 302/2/5 295/2/5 294/2/5
f 303/2/5 297/2/5 296/2/5
f 304/2/5 299/2/5 298/2/5
f 305/2/5 302/2/5 301/2/5
f 305/2/5 295/2/5 302/2/5
f 308/2/5 303/2/5 296/2/5
f 308/2/5 304/2/5 303/2/5
f 309/2/5 306/2/5 305/2/5
f 309/2/5 305/2/5 301/2/5
f 309/2/5 301/2/5 292/2/5
f 310/2/5 306/2/5 309/2/5
f 311/2/5 306/2/5 310/2/5
f 312/2/5 306/2/5 311/2/5
f 313/2/5 308/2/5 307/2/5
f 314/2/5 308/2/5 313/2/5
f 315/2/5 304/2/5 308/2/5
f 315/2/5 308/2/5 314/2/5
f 316/2/5 299/2/5 304/2/5
f 316/2/5 304/2/5 315/2/5
f 317/2/5 309/2/5 292/2/5
f 318/2/5 311/2/5 310/2/5
f 319/2/5 311/2/5 318/2/5
f 320/2/5 306/2/5 312/2/5
f 321/2/5 313/2/5 307/2/5
f 322/2/5 315/2/5 314/2/5
f 323/2/5 315/2/5 322/2/5
f 324/2/5 299/2/5 316/2/5
f 325/2/5 319/2/5 318/2/5
f 325/2/5 320/2/5 319/2/5
f 325/2/5 317/2/5 292/2/5
f 325/2/5 318/2/5 317/2/5
f 326/2/5 320/2/5 325/2/5
f 327/2/5 320/2/5 326/2/5
f 328/2/5 306/2/5 320/2/5
f 328/2/5 320/2/5 327/2/5
f 329/2/5 324/2/5 323/2/5
f 329/2/5 323/2/5 322/2/5
f 329/2/5 321/2/5 307/2/5
f 329/2/5 322/2/5 321/2/5
f 330/2/5 324/2/5 329/2/5
f 331/2/5 324/2/5 330/2/5
f 332/2/5 299/2/5 324/2/5
f 332/2/5 324/2/5 331/2/5
f 333/2/5 325/2/5 292/2/5
f 334/2/5 327/2/5 326/2/5
f 335/2/5 327/2/5 334/2/5
f 336/2/5 306/2/5 328/2/5
f 337/2/5 329/2/5 307/2/5
f 338/2/5 331/2/5 330/2/5
f 339/2/5 331/2/5 338/2/5
f 340/2/5 299/2/5 332/2/5
f 341/2/5 335/2/5 334/2/5
f 341/2/5 336/2/5 335/2/5
f 341/2/5 334/2/5 333/2/5
f 342/2/5 306/2/5 336/2/5
f 342/2/5 336/2/5 341/2/5
f 343/2/5 340/2/5 339/2/5
f 343/2/5 339/2/5 338/2/5
f 343/2/5 338/2/5 337/2/5
f 343/2/5 337/2/5 307/2/5
f 344/2/5 340/2/5 343/2/5
f 345/2/5 341/2/5 333/2/5
f 345/2/5 333/2/5 292/2/5
f 346/2/5 341/2/5 345/2/5
f 347/2/5 340/2/5 344/2/5
f 348/2/5 299/2/5 340/2/5
f 348/2/5 340/2/5 347/2/5
f 349/2/5 291/2/5 289/2/5
f 350/2/5 345/2/5 292/2/5
f 351/2/5 345/2/5 350/2/5
f 352/2/5 341/2/5 346/2/5
f 353/2/5 341/2/5 352/2/5
f 354/2/5 347/2/5 344/2/5
f 355/2/5 347/2/5 354/2/5
f 356/2/5 299/2/5 348/2/5
f 357/2/5 299/2/5 356/2/5
f 358/2/5 290/2/5 300/2/5
f 359/2/5 355/2/5 354/2/5
f 359/2/5 358/2/5 357/2/5
f 359/2/5 357/2/5 356/2/5
f 359/2/5 351/2/5 350/2/5
f 359/2/5 356/2/5 355/2/5
f 359/2/5 353/2/5 352/2/5
f 359/2/5 354/2/5 353/2/5
f 359/2/5 349/2/5 289/2/5
f 359/2/5 352/2/5 351/2/5
f 359/2/5 350/2/5 349/2/5
f 360/2/5 290/2/5 358/2/5
f 360/2/5 358/2/5 359/2/5
f 371/3/5 364/3/5 363/3/5
f 372/3/5 364/3/5 371/3/5
f 373/3/5 368/3/5 367/3/5
f 374/3/5 368/3/5 373/3/5
f 375/1/5 366/1/5 365/1/5
f 376/1/5 366/1/5 375/1/5
f 377/1/5 366/1/5 376/1/5
f 378/1/5 366/1/5 377/1/5
f 387/3/5 380/3/5 379/3/5
f 388/3/5 380/3/5 387/3/5
f 389/3/5 382/3/5 381/3/5
f 390/3/5 382/3/5 389/3/5
f 391/3/5 384/3/5 383/3/5
f 392/3/5 384/3/5 391/3/5
f 393/3/5 386/3/5 385/3/5
f 394/3/5 386/3/5 393/3/5
f 403/3/5 396/3/5 395/3/5
f 404/3/5 396/3/5 403/3/5
f 405/3/5 398/3/5 397/3/5
f 406/3/5 398/3/5 405/3/5
f 407/3/5 400/3/5 399/3/5
f 408/3/5 400/3/5 407/3/5
f 409/3/5 402/3/5 401/3/5
f 410/3/5 402/3/5 409/3/5
f 412/1/5 377/1/5 376/1/5
f 413/1/5 377/1/5 412/1/5
f 419/3/5 362/3/5 361/3/5
f 420/3/5 362/3/5 419/3/5
f 421/3/5 416/3/5 415/3/5
f 422/3/5 416/3/5 421/3/5
f 423/1/5 412/1/5 411/1/5
f 423/1/5 413/1/5 412/1/5
f 423/1/5 414/1/5 413/1/5
f 424/1/5 414/1/5 423/1/5
f 425/3/5 418/3/5 417/3/5
f 426/3/5 418/3/5 425/3/5
f 427/3/5 370/3/5 369/3/5
f 428/3/5 370/3/5 427/3/5
f 429/2/6 430/2/6 431/2/6
f 431/2/6 430/2/6 432/2/6
