# MagicaVoxel @ Ephtracy

# group
g ceiling

# material
mtllib ceiling.mtl
usemtl palette

# normals
vn -1 0 0
vn 1 0 0
vn 0 0 1
vn 0 0 -1
vn 0 -1 0
vn 0 1 0

# texcoords
vt 0.986328 0.5

# verts
v -20 0 20
v -20 0 -20
v -20 5 20
v -20 5 -20
v 4 1 10
v 4 1 8
v 4 1 -8
v 4 1 -10
v 4 2 10
v 4 2 8
v 4 2 -8
v 4 2 -10
v 9 1 20
v 9 1 10
v 9 1 8
v 9 1 -8
v 9 1 -10
v 9 1 -20
v 9 2 20
v 9 2 10
v 9 2 8
v 9 2 -8
v 9 2 -10
v 9 2 -20
v 15 0 20
v 15 0 -20
v 15 1 20
v 15 1 -20
v -15 0 20
v -15 0 -20
v -15 1 20
v -15 1 -20
v -9 1 20
v -9 1 10
v -9 1 8
v -9 1 -8
v -9 1 -10
v -9 1 -20
v -9 2 20
v -9 2 10
v -9 2 8
v -9 2 -8
v -9 2 -10
v -9 2 -20
v -4 1 10
v -4 1 8
v -4 1 -8
v -4 1 -10
v -4 2 10
v -4 2 8
v -4 2 -8
v -4 2 -10
v 20 0 20
v 20 0 -20
v 20 5 20
v 20 5 -20
v -20 0 20
v -20 5 20
v -15 0 20
v -15 1 20
v -9 1 20
v -9 2 20
v 9 1 20
v 9 2 20
v 15 0 20
v 15 1 20
v 20 0 20
v 20 5 20
v -9 1 10
v -9 2 10
v -4 1 10
v -4 2 10
v 4 1 10
v 4 2 10
v 9 1 10
v 9 2 10
v -9 1 -8
v -9 2 -8
v -4 1 -8
v -4 2 -8
v 4 1 -8
v 4 2 -8
v 9 1 -8
v 9 2 -8
v -9 1 8
v -9 2 8
v -4 1 8
v -4 2 8
v 4 1 8
v 4 2 8
v 9 1 8
v 9 2 8
v -9 1 -10
v -9 2 -10
v -4 1 -10
v -4 2 -10
v 4 1 -10
v 4 2 -10
v 9 1 -10
v 9 2 -10
v -20 0 -20
v -20 5 -20
v -15 0 -20
v -15 1 -20
v -9 1 -20
v -9 2 -20
v 9 1 -20
v 9 2 -20
v 15 0 -20
v 15 1 -20
v 20 0 -20
v 20 5 -20
v -20 0 20
v -15 0 20
v 15 0 20
v 20 0 20
v -20 0 -20
v -15 0 -20
v 15 0 -20
v 20 0 -20
v -15 1 20
v -9 1 20
v 9 1 20
v 15 1 20
v -9 1 10
v -4 1 10
v 4 1 10
v 9 1 10
v -9 1 8
v -4 1 8
v 4 1 8
v 9 1 8
v -9 1 -8
v -4 1 -8
v 4 1 -8
v 9 1 -8
v -9 1 -10
v -4 1 -10
v 4 1 -10
v 9 1 -10
v -15 1 -20
v -9 1 -20
v 9 1 -20
v 15 1 -20
v -9 2 20
v 9 2 20
v -9 2 10
v -4 2 10
v 4 2 10
v 9 2 10
v -9 2 8
v -4 2 8
v 4 2 8
v 9 2 8
v -9 2 -8
v -4 2 -8
v 4 2 -8
v 9 2 -8
v -9 2 -10
v -4 2 -10
v 4 2 -10
v 9 2 -10
v -9 2 -20
v 9 2 -20
v -20 5 20
v 20 5 20
v -20 5 -20
v 20 5 -20

# faces
f 3/1/1 2/1/1 1/1/1
f 4/1/1 2/1/1 3/1/1
f 9/1/1 6/1/1 5/1/1
f 10/1/1 6/1/1 9/1/1
f 11/1/1 8/1/1 7/1/1
f 12/1/1 8/1/1 11/1/1
f 19/1/1 14/1/1 13/1/1
f 20/1/1 14/1/1 19/1/1
f 21/1/1 16/1/1 15/1/1
f 22/1/1 16/1/1 21/1/1
f 23/1/1 18/1/1 17/1/1
f 24/1/1 18/1/1 23/1/1
f 27/1/1 26/1/1 25/1/1
f 28/1/1 26/1/1 27/1/1
f 29/1/2 30/1/2 31/1/2
f 31/1/2 30/1/2 32/1/2
f 33/1/2 34/1/2 39/1/2
f 39/1/2 34/1/2 40/1/2
f 35/1/2 36/1/2 41/1/2
f 41/1/2 36/1/2 42/1/2
f 37/1/2 38/1/2 43/1/2
f 43/1/2 38/1/2 44/1/2
f 45/1/2 46/1/2 49/1/2
f 49/1/2 46/1/2 50/1/2
f 47/1/2 48/1/2 51/1/2
f 51/1/2 48/1/2 52/1/2
f 53/1/2 54/1/2 55/1/2
f 55/1/2 54/1/2 56/1/2
f 59/1/3 58/1/3 57/1/3
f 60/1/3 58/1/3 59/1/3
f 61/1/3 58/1/3 60/1/3
f 62/1/3 58/1/3 61/1/3
f 64/1/3 58/1/3 62/1/3
f 66/1/3 64/1/3 63/1/3
f 67/1/3 66/1/3 65/1/3
f 68/1/3 58/1/3 64/1/3
f 68/1/3 66/1/3 67/1/3
f 68/1/3 64/1/3 66/1/3
f 71/1/3 70/1/3 69/1/3
f 72/1/3 70/1/3 71/1/3
f 75/1/3 74/1/3 73/1/3
f 76/1/3 74/1/3 75/1/3
f 79/1/3 78/1/3 77/1/3
f 80/1/3 78/1/3 79/1/3
f 83/1/3 82/1/3 81/1/3
f 84/1/3 82/1/3 83/1/3
f 85/1/4 86/1/4 87/1/4
f 87/1/4 86/1/4 88/1/4
f 89/1/4 90/1/4 91/1/4
f 91/1/4 90/1/4 92/1/4
f 93/1/4 94/1/4 95/1/4
f 95/1/4 94/1/4 96/1/4
f 97/1/4 98/1/4 99/1/4
f 99/1/4 98/1/4 100/1/4
f 101/1/4 102/1/4 103/1/4
f 103/1/4 102/1/4 104/1/4
f 104/1/4 102/1/4 105/1/4
f 105/1/4 102/1/4 106/1/4
f 106/1/4 102/1/4 108/1/4
f 107/1/4 108/1/4 110/1/4
f 109/1/4 110/1/4 111/1/4
f 108/1/4 102/1/4 112/1/4
f 111/1/4 110/1/4 112/1/4
f 110/1/4 108/1/4 112/1/4
f 117/1/5 114/1/5 113/1/5
f 118/1/5 114/1/5 117/1/5
f 119/1/5 116/1/5 115/1/5
f 120/1/5 116/1/5 119/1/5
f 125/1/5 122/1/5 121/1/5
f 128/1/5 124/1/5 123/1/5
f 129/1/5 126/1/5 125/1/5
f 129/1/5 125/1/5 121/1/5
f 130/1/5 126/1/5 129/1/5
f 131/1/5 128/1/5 127/1/5
f 132/1/5 124/1/5 128/1/5
f 132/1/5 128/1/5 131/1/5
f 133/1/5 129/1/5 121/1/5
f 136/1/5 124/1/5 132/1/5
f 137/1/5 134/1/5 133/1/5
f 137/1/5 133/1/5 121/1/5
f 138/1/5 134/1/5 137/1/5
f 139/1/5 136/1/5 135/1/5
f 140/1/5 124/1/5 136/1/5
f 140/1/5 136/1/5 139/1/5
f 141/1/5 137/1/5 121/1/5
f 142/1/5 137/1/5 141/1/5
f 143/1/5 124/1/5 140/1/5
f 144/1/5 124/1/5 143/1/5
f 147/1/5 146/1/5 145/1/5
f 148/1/5 146/1/5 147/1/5
f 149/1/5 146/1/5 148/1/5
f 150/1/5 146/1/5 149/1/5
f 152/1/5 149/1/5 148/1/5
f 153/1/5 149/1/5 152/1/5
f 155/1/5 152/1/5 151/1/5
f 155/1/5 154/1/5 153/1/5
f 155/1/5 153/1/5 152/1/5
f 156/1/5 154/1/5 155/1/5
f 157/1/5 154/1/5 156/1/5
f 158/1/5 154/1/5 157/1/5
f 160/1/5 157/1/5 156/1/5
f 161/1/5 157/1/5 160/1/5
f 163/1/5 160/1/5 159/1/5
f 163/1/5 162/1/5 161/1/5
f 163/1/5 161/1/5 160/1/5
f 164/1/5 162/1/5 163/1/5
f 165/1/6 166/1/6 167/1/6
f 167/1/6 166/1/6 168/1/6
