# MagicaVoxel @ Ephtracy

# group
g door frame

# material
mtllib door frame.mtl
usemtl palette

# normals
vn -1 0 0
vn 1 0 0
vn 0 0 1
vn 0 0 -1
vn 0 -1 0
vn 0 1 0

# texcoords
vt 0.0644531 0.5
vt 0.791016 0.5
vt 0.970703 0.5
vt 0.986328 0.5
vt 0.994141 0.5

# verts
v -4 0 20
v -4 0 14
v -4 0 -14
v -4 0 -20
v -4 1 19
v -4 1 18
v -4 1 -18
v -4 1 -19
v -4 2 19
v -4 2 18
v -4 2 -18
v -4 2 -19
v -4 12 19
v -4 12 18
v -4 12 -18
v -4 12 -19
v -4 13 19
v -4 13 18
v -4 13 -18
v -4 13 -19
v -4 14 20
v -4 14 14
v -4 14 -14
v -4 14 -20
v -4 36 20
v -4 36 14
v -4 36 -14
v -4 36 -20
v -4 38 19
v -4 38 18
v -4 38 -18
v -4 38 -19
v -4 39 19
v -4 39 18
v -4 39 -18
v -4 39 -19
v -4 40 20
v -4 40 14
v -4 40 -14
v -4 40 -20
v -3 1 19
v -3 1 18
v -3 1 -18
v -3 1 -19
v -3 2 19
v -3 2 18
v -3 2 -18
v -3 2 -19
v -3 12 19
v -3 12 18
v -3 12 -18
v -3 12 -19
v -3 13 19
v -3 13 18
v -3 13 -18
v -3 13 -19
v -3 14 20
v -3 14 14
v -3 14 -14
v -3 14 -20
v -3 15 20
v -3 15 14
v -3 15 -14
v -3 15 -20
v -3 35 20
v -3 35 14
v -3 35 -14
v -3 35 -20
v -3 36 20
v -3 36 14
v -3 36 -14
v -3 36 -20
v -3 38 19
v -3 38 18
v -3 38 -18
v -3 38 -19
v -3 39 19
v -3 39 18
v -3 39 -18
v -3 39 -19
v -2 15 20
v -2 15 14
v -2 15 -14
v -2 15 -20
v -2 20 15
v -2 20 14
v -2 20 -14
v -2 20 -15
v -2 21 15
v -2 21 14
v -2 21 -14
v -2 21 -15
v -2 28 15
v -2 28 14
v -2 28 -14
v -2 28 -15
v -2 29 15
v -2 29 14
v -2 29 -14
v -2 29 -15
v -2 35 20
v -2 35 14
v -2 35 -14
v -2 35 -20
v 1 0 15
v 1 0 14
v 1 0 -14
v 1 0 -15
v 1 20 15
v 1 20 14
v 1 20 -14
v 1 20 -15
v 1 21 15
v 1 21 14
v 1 21 -14
v 1 21 -15
v 1 28 15
v 1 28 14
v 1 28 -14
v 1 28 -15
v 1 29 15
v 1 29 14
v 1 29 -14
v 1 29 -15
v 1 40 15
v 1 40 14
v 1 40 -14
v 1 40 -15
v -1 0 15
v -1 0 14
v -1 0 -14
v -1 0 -15
v -1 20 15
v -1 20 14
v -1 20 -14
v -1 20 -15
v -1 21 15
v -1 21 14
v -1 21 -14
v -1 21 -15
v -1 28 15
v -1 28 14
v -1 28 -14
v -1 28 -15
v -1 29 15
v -1 29 14
v -1 29 -14
v -1 29 -15
v -1 40 15
v -1 40 14
v -1 40 -14
v -1 40 -15
v 2 15 20
v 2 15 14
v 2 15 -14
v 2 15 -20
v 2 18 -16
v 2 18 -17
v 2 19 -16
v 2 19 -17
v 2 20 15
v 2 20 14
v 2 20 -14
v 2 20 -15
v 2 21 15
v 2 21 14
v 2 21 -14
v 2 21 -15
v 2 28 15
v 2 28 14
v 2 28 -14
v 2 28 -15
v 2 29 15
v 2 29 14
v 2 29 -14
v 2 29 -15
v 2 35 20
v 2 35 14
v 2 35 -14
v 2 35 -20
v 3 1 19
v 3 1 18
v 3 1 -18
v 3 1 -19
v 3 2 19
v 3 2 18
v 3 2 -18
v 3 2 -19
v 3 12 19
v 3 12 18
v 3 12 -18
v 3 12 -19
v 3 13 19
v 3 13 18
v 3 13 -18
v 3 13 -19
v 3 14 20
v 3 14 14
v 3 14 -14
v 3 14 -20
v 3 15 20
v 3 15 14
v 3 15 -14
v 3 15 -20
v 3 18 -16
v 3 18 -17
v 3 19 -16
v 3 19 -17
v 3 35 20
v 3 35 14
v 3 35 -14
v 3 35 -20
v 3 36 20
v 3 36 14
v 3 36 -14
v 3 36 -20
v 3 38 19
v 3 38 18
v 3 38 -18
v 3 38 -19
v 3 39 19
v 3 39 18
v 3 39 -18
v 3 39 -19
v 4 0 20
v 4 0 14
v 4 0 -14
v 4 0 -20
v 4 1 19
v 4 1 18
v 4 1 -18
v 4 1 -19
v 4 2 19
v 4 2 18
v 4 2 -18
v 4 2 -19
v 4 12 19
v 4 12 18
v 4 12 -18
v 4 12 -19
v 4 13 19
v 4 13 18
v 4 13 -18
v 4 13 -19
v 4 14 20
v 4 14 14
v 4 14 -14
v 4 14 -20
v 4 36 20
v 4 36 14
v 4 36 -14
v 4 36 -20
v 4 38 19
v 4 38 18
v 4 38 -18
v 4 38 -19
v 4 39 19
v 4 39 18
v 4 39 -18
v 4 39 -19
v 4 40 20
v 4 40 14
v 4 40 -14
v 4 40 -20
v -4 0 20
v -4 14 20
v -4 36 20
v -4 40 20
v -3 14 20
v -3 15 20
v -3 35 20
v -3 36 20
v -3 40 20
v -2 0 20
v -2 14 20
v -2 15 20
v -2 35 20
v -2 36 20
v 2 0 20
v 2 14 20
v 2 15 20
v 2 35 20
v 2 36 20
v 3 14 20
v 3 15 20
v 3 35 20
v 3 36 20
v 3 40 20
v 4 0 20
v 4 14 20
v 4 36 20
v 4 40 20
v -4 1 18
v -4 2 18
v -4 12 18
v -4 13 18
v -4 38 18
v -4 39 18
v -3 1 18
v -3 2 18
v -3 12 18
v -3 13 18
v -3 38 18
v -3 39 18
v 3 1 18
v 3 2 18
v 3 12 18
v 3 13 18
v 3 38 18
v 3 39 18
v 4 1 18
v 4 2 18
v 4 12 18
v 4 13 18
v 4 38 18
v 4 39 18
v -4 0 -14
v -4 14 -14
v -4 36 -14
v -4 40 -14
v -3 14 -14
v -3 15 -14
v -3 35 -14
v -3 36 -14
v -3 40 -14
v -2 0 -14
v -2 14 -14
v -2 15 -14
v -2 20 -14
v -2 21 -14
v -2 28 -14
v -2 29 -14
v -2 35 -14
v -2 36 -14
v -1 0 -14
v -1 20 -14
v -1 21 -14
v -1 28 -14
v -1 29 -14
v -1 40 -14
v 1 0 -14
v 1 20 -14
v 1 21 -14
v 1 28 -14
v 1 29 -14
v 1 40 -14
v 2 0 -14
v 2 14 -14
v 2 15 -14
v 2 20 -14
v 2 21 -14
v 2 28 -14
v 2 29 -14
v 2 35 -14
v 2 36 -14
v 3 14 -14
v 3 15 -14
v 3 35 -14
v 3 36 -14
v 3 40 -14
v 4 0 -14
v 4 14 -14
v 4 36 -14
v 4 40 -14
v -2 20 -15
v -2 21 -15
v -2 28 -15
v -2 29 -15
v -1 0 -15
v -1 20 -15
v -1 21 -15
v -1 28 -15
v -1 29 -15
v -1 40 -15
v 1 0 -15
v 1 20 -15
v 1 21 -15
v 1 28 -15
v 1 29 -15
v 1 40 -15
v 2 20 -15
v 2 21 -15
v 2 28 -15
v 2 29 -15
v 2 18 -16
v 2 19 -16
v 3 18 -16
v 3 19 -16
v -4 1 -19
v -4 2 -19
v -4 12 -19
v -4 13 -19
v -4 38 -19
v -4 39 -19
v -3 1 -19
v -3 2 -19
v -3 12 -19
v -3 13 -19
v -3 38 -19
v -3 39 -19
v 3 1 -19
v 3 2 -19
v 3 12 -19
v 3 13 -19
v 3 38 -19
v 3 39 -19
v 4 1 -19
v 4 2 -19
v 4 12 -19
v 4 13 -19
v 4 38 -19
v 4 39 -19
v -4 1 19
v -4 2 19
v -4 12 19
v -4 13 19
v -4 38 19
v -4 39 19
v -3 1 19
v -3 2 19
v -3 12 19
v -3 13 19
v -3 38 19
v -3 39 19
v 3 1 19
v 3 2 19
v 3 12 19
v 3 13 19
v 3 38 19
v 3 39 19
v 4 1 19
v 4 2 19
v 4 12 19
v 4 13 19
v 4 38 19
v 4 39 19
v -2 20 15
v -2 21 15
v -2 28 15
v -2 29 15
v -1 0 15
v -1 20 15
v -1 21 15
v -1 28 15
v -1 29 15
v -1 40 15
v 1 0 15
v 1 20 15
v 1 21 15
v 1 28 15
v 1 29 15
v 1 40 15
v 2 20 15
v 2 21 15
v 2 28 15
v 2 29 15
v -4 0 14
v -4 14 14
v -4 36 14
v -4 40 14
v -3 14 14
v -3 15 14
v -3 35 14
v -3 36 14
v -3 40 14
v -2 0 14
v -2 14 14
v -2 15 14
v -2 20 14
v -2 21 14
v -2 28 14
v -2 29 14
v -2 35 14
v -2 36 14
v -1 0 14
v -1 20 14
v -1 21 14
v -1 28 14
v -1 29 14
v -1 40 14
v 1 0 14
v 1 20 14
v 1 21 14
v 1 28 14
v 1 29 14
v 1 40 14
v 2 0 14
v 2 14 14
v 2 15 14
v 2 20 14
v 2 21 14
v 2 28 14
v 2 29 14
v 2 35 14
v 2 36 14
v 3 14 14
v 3 15 14
v 3 35 14
v 3 36 14
v 3 40 14
v 4 0 14
v 4 14 14
v 4 36 14
v 4 40 14
v 2 18 -17
v 2 19 -17
v 3 18 -17
v 3 19 -17
v -4 1 -18
v -4 2 -18
v -4 12 -18
v -4 13 -18
v -4 38 -18
v -4 39 -18
v -3 1 -18
v -3 2 -18
v -3 12 -18
v -3 13 -18
v -3 38 -18
v -3 39 -18
v 3 1 -18
v 3 2 -18
v 3 12 -18
v 3 13 -18
v 3 38 -18
v 3 39 -18
v 4 1 -18
v 4 2 -18
v 4 12 -18
v 4 13 -18
v 4 38 -18
v 4 39 -18
v -4 0 -20
v -4 14 -20
v -4 36 -20
v -4 40 -20
v -3 14 -20
v -3 15 -20
v -3 35 -20
v -3 36 -20
v -3 40 -20
v -2 0 -20
v -2 14 -20
v -2 15 -20
v -2 35 -20
v -2 36 -20
v 2 0 -20
v 2 14 -20
v 2 15 -20
v 2 35 -20
v 2 36 -20
v 3 14 -20
v 3 15 -20
v 3 35 -20
v 3 36 -20
v 3 40 -20
v 4 0 -20
v 4 14 -20
v 4 36 -20
v 4 40 -20
v -4 0 20
v -2 0 20
v 2 0 20
v 4 0 20
v -1 0 16
v 1 0 16
v -1 0 15
v 1 0 15
v -4 0 14
v -2 0 14
v -1 0 14
v 1 0 14
v 2 0 14
v 4 0 14
v -4 0 -14
v -2 0 -14
v -1 0 -14
v 1 0 -14
v 2 0 -14
v 4 0 -14
v -1 0 -15
v 1 0 -15
v -1 0 -16
v 1 0 -16
v -4 0 -20
v -2 0 -20
v 2 0 -20
v 4 0 -20
v -4 2 19
v -3 2 19
v 3 2 19
v 4 2 19
v -4 2 18
v -3 2 18
v 3 2 18
v 4 2 18
v -4 2 -18
v -3 2 -18
v 3 2 -18
v 4 2 -18
v -4 2 -19
v -3 2 -19
v 3 2 -19
v 4 2 -19
v -4 13 19
v -3 13 19
v 3 13 19
v 4 13 19
v -4 13 18
v -3 13 18
v 3 13 18
v 4 13 18
v -4 13 -18
v -3 13 -18
v 3 13 -18
v 4 13 -18
v -4 13 -19
v -3 13 -19
v 3 13 -19
v 4 13 -19
v 2 18 -16
v 3 18 -16
v 2 18 -17
v 3 18 -17
v -2 21 15
v -1 21 15
v 1 21 15
v 2 21 15
v -2 21 14
v -1 21 14
v 1 21 14
v 2 21 14
v -2 21 -14
v -1 21 -14
v 1 21 -14
v 2 21 -14
v -2 21 -15
v -1 21 -15
v 1 21 -15
v 2 21 -15
v -2 29 15
v -1 29 15
v 1 29 15
v 2 29 15
v -2 29 14
v -1 29 14
v 1 29 14
v 2 29 14
v -2 29 -14
v -1 29 -14
v 1 29 -14
v 2 29 -14
v -2 29 -15
v -1 29 -15
v 1 29 -15
v 2 29 -15
v -3 35 20
v -2 35 20
v 2 35 20
v 3 35 20
v -3 35 14
v -2 35 14
v 2 35 14
v 3 35 14
v -3 35 -14
v -2 35 -14
v 2 35 -14
v 3 35 -14
v -3 35 -20
v -2 35 -20
v 2 35 -20
v 3 35 -20
v -4 36 20
v -3 36 20
v 3 36 20
v 4 36 20
v -4 36 14
v -3 36 14
v 3 36 14
v 4 36 14
v -4 36 -14
v -3 36 -14
v 3 36 -14
v 4 36 -14
v -4 36 -20
v -3 36 -20
v 3 36 -20
v 4 36 -20
v -4 39 19
v -3 39 19
v 3 39 19
v 4 39 19
v -4 39 18
v -3 39 18
v 3 39 18
v 4 39 18
v -4 39 -18
v -3 39 -18
v 3 39 -18
v 4 39 -18
v -4 39 -19
v -3 39 -19
v 3 39 -19
v 4 39 -19
v -4 1 19
v -3 1 19
v 3 1 19
v 4 1 19
v -4 1 18
v -3 1 18
v 3 1 18
v 4 1 18
v -4 1 -18
v -3 1 -18
v 3 1 -18
v 4 1 -18
v -4 1 -19
v -3 1 -19
v 3 1 -19
v 4 1 -19
v -4 12 19
v -3 12 19
v 3 12 19
v 4 12 19
v -4 12 18
v -3 12 18
v 3 12 18
v 4 12 18
v -4 12 -18
v -3 12 -18
v 3 12 -18
v 4 12 -18
v -4 12 -19
v -3 12 -19
v 3 12 -19
v 4 12 -19
v -4 14 20
v -3 14 20
v 3 14 20
v 4 14 20
v -4 14 14
v -3 14 14
v 3 14 14
v 4 14 14
v -4 14 -14
v -3 14 -14
v 3 14 -14
v 4 14 -14
v -4 14 -20
v -3 14 -20
v 3 14 -20
v 4 14 -20
v -3 15 20
v -2 15 20
v 2 15 20
v 3 15 20
v -3 15 14
v -2 15 14
v 2 15 14
v 3 15 14
v -3 15 -14
v -2 15 -14
v 2 15 -14
v 3 15 -14
v -3 15 -20
v -2 15 -20
v 2 15 -20
v 3 15 -20
v 2 19 -16
v 3 19 -16
v 2 19 -17
v 3 19 -17
v -2 20 15
v -1 20 15
v 1 20 15
v 2 20 15
v -2 20 14
v -1 20 14
v 1 20 14
v 2 20 14
v -2 20 -14
v -1 20 -14
v 1 20 -14
v 2 20 -14
v -2 20 -15
v -1 20 -15
v 1 20 -15
v 2 20 -15
v -2 28 15
v -1 28 15
v 1 28 15
v 2 28 15
v -2 28 14
v -1 28 14
v 1 28 14
v 2 28 14
v -2 28 -14
v -1 28 -14
v 1 28 -14
v 2 28 -14
v -2 28 -15
v -1 28 -15
v 1 28 -15
v 2 28 -15
v -4 38 19
v -3 38 19
v 3 38 19
v 4 38 19
v -4 38 18
v -3 38 18
v 3 38 18
v 4 38 18
v -4 38 -18
v -3 38 -18
v 3 38 -18
v 4 38 -18
v -4 38 -19
v -3 38 -19
v 3 38 -19
v 4 38 -19
v -4 40 20
v -3 40 20
v 3 40 20
v 4 40 20
v -1 40 16
v 1 40 16
v -1 40 15
v 1 40 15
v -4 40 14
v -3 40 14
v -1 40 14
v 1 40 14
v 3 40 14
v 4 40 14
v -4 40 -14
v -3 40 -14
v -1 40 -14
v 1 40 -14
v 3 40 -14
v 4 40 -14
v -1 40 -15
v 1 40 -15
v -1 40 -16
v 1 40 -16
v -4 40 -20
v -3 40 -20
v 3 40 -20
v 4 40 -20

# faces
f 5/3/1 2/3/1 1/3/1
f 6/3/1 2/3/1 5/3/1
f 7/3/1 4/3/1 3/3/1
f 8/3/1 4/3/1 7/3/1
f 9/3/1 5/3/1 1/3/1
f 10/3/1 2/3/1 6/3/1
f 11/3/1 7/3/1 3/3/1
f 12/3/1 4/3/1 8/3/1
f 13/3/1 9/3/1 1/3/1
f 13/3/1 10/3/1 9/3/1
f 14/3/1 2/3/1 10/3/1
f 14/3/1 10/3/1 13/3/1
f 15/3/1 12/3/1 11/3/1
f 15/3/1 11/3/1 3/3/1
f 16/3/1 4/3/1 12/3/1
f 16/3/1 12/3/1 15/3/1
f 17/3/1 13/3/1 1/3/1
f 18/3/1 2/3/1 14/3/1
f 19/3/1 15/3/1 3/3/1
f 20/3/1 4/3/1 16/3/1
f 21/3/1 17/3/1 1/3/1
f 21/3/1 18/3/1 17/3/1
f 22/3/1 2/3/1 18/3/1
f 22/3/1 18/3/1 21/3/1
f 23/3/1 20/3/1 19/3/1
f 23/3/1 19/3/1 3/3/1
f 24/3/1 4/3/1 20/3/1
f 24/3/1 20/3/1 23/3/1
f 29/3/1 26/3/1 25/3/1
f 30/3/1 26/3/1 29/3/1
f 31/3/1 28/3/1 27/3/1
f 32/3/1 28/3/1 31/3/1
f 33/3/1 29/3/1 25/3/1
f 34/3/1 26/3/1 30/3/1
f 35/3/1 31/3/1 27/3/1
f 36/3/1 28/3/1 32/3/1
f 37/3/1 33/3/1 25/3/1
f 37/3/1 34/3/1 33/3/1
f 38/3/1 26/3/1 34/3/1
f 38/3/1 34/3/1 37/3/1
f 39/3/1 36/3/1 35/3/1
f 39/3/1 35/3/1 27/3/1
f 40/3/1 28/3/1 36/3/1
f 40/3/1 36/3/1 39/3/1
f 45/5/1 42/5/1 41/5/1
f 46/5/1 42/5/1 45/5/1
f 47/5/1 44/5/1 43/5/1
f 48/5/1 44/5/1 47/5/1
f 53/5/1 50/5/1 49/5/1
f 54/5/1 50/5/1 53/5/1
f 55/5/1 52/5/1 51/5/1
f 56/5/1 52/5/1 55/5/1
f 61/2/1 58/2/1 57/2/1
f 62/2/1 58/2/1 61/2/1
f 63/2/1 60/2/1 59/2/1
f 64/2/1 60/2/1 63/2/1
f 69/2/1 66/2/1 65/2/1
f 70/2/1 66/2/1 69/2/1
f 71/2/1 68/2/1 67/2/1
f 72/2/1 68/2/1 71/2/1
f 77/5/1 74/5/1 73/5/1
f 78/5/1 74/5/1 77/5/1
f 79/5/1 76/5/1 75/5/1
f 80/5/1 76/5/1 79/5/1
f 85/4/1 82/4/1 81/4/1
f 86/4/1 82/4/1 85/4/1
f 87/4/1 84/4/1 83/4/1
f 88/4/1 84/4/1 87/4/1
f 89/4/1 85/4/1 81/4/1
f 92/4/1 84/4/1 88/4/1
f 93/4/1 90/4/1 89/4/1
f 93/4/1 89/4/1 81/4/1
f 94/4/1 90/4/1 93/4/1
f 95/4/1 92/4/1 91/4/1
f 96/4/1 84/4/1 92/4/1
f 96/4/1 92/4/1 95/4/1
f 97/4/1 93/4/1 81/4/1
f 100/4/1 84/4/1 96/4/1
f 101/4/1 98/4/1 97/4/1
f 101/4/1 97/4/1 81/4/1
f 102/4/1 98/4/1 101/4/1
f 103/4/1 100/4/1 99/4/1
f 104/4/1 84/4/1 100/4/1
f 104/4/1 100/4/1 103/4/1
f 109/4/1 106/4/1 105/4/1
f 110/4/1 106/4/1 109/4/1
f 111/4/1 108/4/1 107/4/1
f 112/4/1 108/4/1 111/4/1
f 117/4/1 114/4/1 113/4/1
f 118/4/1 114/4/1 117/4/1
f 119/4/1 116/4/1 115/4/1
f 120/4/1 116/4/1 119/4/1
f 125/4/1 122/4/1 121/4/1
f 126/4/1 122/4/1 125/4/1
f 127/4/1 124/4/1 123/4/1
f 128/4/1 124/4/1 127/4/1
f 129/4/2 130/4/2 133/4/2
f 133/4/2 130/4/2 134/4/2
f 131/4/2 132/4/2 135/4/2
f 135/4/2 132/4/2 136/4/2
f 137/4/2 138/4/2 141/4/2
f 141/4/2 138/4/2 142/4/2
f 139/4/2 140/4/2 143/4/2
f 143/4/2 140/4/2 144/4/2
f 145/4/2 146/4/2 149/4/2
f 149/4/2 146/4/2 150/4/2
f 147/4/2 148/4/2 151/4/2
f 151/4/2 148/4/2 152/4/2
f 155/4/2 156/4/2 157/4/2
f 157/4/2 156/4/2 158/4/2
f 155/4/2 157/4/2 159/4/2
f 158/4/2 156/4/2 160/4/2
f 153/4/2 154/4/2 161/4/2
f 161/4/2 154/4/2 162/4/2
f 159/4/2 160/4/2 163/4/2
f 155/4/2 159/4/2 163/4/2
f 163/4/2 160/4/2 164/4/2
f 153/4/2 161/4/2 165/4/2
f 164/4/2 160/4/2 168/4/2
f 165/4/2 166/4/2 169/4/2
f 153/4/2 165/4/2 169/4/2
f 169/4/2 166/4/2 170/4/2
f 167/4/2 168/4/2 171/4/2
f 168/4/2 160/4/2 172/4/2
f 171/4/2 168/4/2 172/4/2
f 153/4/2 169/4/2 173/4/2
f 172/4/2 160/4/2 176/4/2
f 173/4/2 174/4/2 177/4/2
f 153/4/2 173/4/2 177/4/2
f 177/4/2 174/4/2 178/4/2
f 175/4/2 176/4/2 179/4/2
f 160/4/2 156/4/2 180/4/2
f 179/4/2 176/4/2 180/4/2
f 176/4/2 160/4/2 180/4/2
f 181/5/2 182/5/2 185/5/2
f 185/5/2 182/5/2 186/5/2
f 183/5/2 184/5/2 187/5/2
f 187/5/2 184/5/2 188/5/2
f 189/5/2 190/5/2 193/5/2
f 193/5/2 190/5/2 194/5/2
f 191/5/2 192/5/2 195/5/2
f 195/5/2 192/5/2 196/5/2
f 197/2/2 198/2/2 201/2/2
f 201/2/2 198/2/2 202/2/2
f 199/2/2 200/2/2 203/2/2
f 203/2/2 200/2/2 204/2/2
f 205/1/2 206/1/2 207/1/2
f 207/1/2 206/1/2 208/1/2
f 209/2/2 210/2/2 213/2/2
f 213/2/2 210/2/2 214/2/2
f 211/2/2 212/2/2 215/2/2
f 215/2/2 212/2/2 216/2/2
f 217/5/2 218/5/2 221/5/2
f 221/5/2 218/5/2 222/5/2
f 219/5/2 220/5/2 223/5/2
f 223/5/2 220/5/2 224/5/2
f 225/3/2 226/3/2 229/3/2
f 229/3/2 226/3/2 230/3/2
f 227/3/2 228/3/2 231/3/2
f 231/3/2 228/3/2 232/3/2
f 225/3/2 229/3/2 233/3/2
f 230/3/2 226/3/2 234/3/2
f 227/3/2 231/3/2 235/3/2
f 232/3/2 228/3/2 236/3/2
f 225/3/2 233/3/2 237/3/2
f 233/3/2 234/3/2 237/3/2
f 234/3/2 226/3/2 238/3/2
f 237/3/2 234/3/2 238/3/2
f 235/3/2 236/3/2 239/3/2
f 227/3/2 235/3/2 239/3/2
f 236/3/2 228/3/2 240/3/2
f 239/3/2 236/3/2 240/3/2
f 225/3/2 237/3/2 241/3/2
f 238/3/2 226/3/2 242/3/2
f 227/3/2 239/3/2 243/3/2
f 240/3/2 228/3/2 244/3/2
f 225/3/2 241/3/2 245/3/2
f 241/3/2 242/3/2 245/3/2
f 242/3/2 226/3/2 246/3/2
f 245/3/2 242/3/2 246/3/2
f 243/3/2 244/3/2 247/3/2
f 227/3/2 243/3/2 247/3/2
f 244/3/2 228/3/2 248/3/2
f 247/3/2 244/3/2 248/3/2
f 249/3/2 250/3/2 253/3/2
f 253/3/2 250/3/2 254/3/2
f 251/3/2 252/3/2 255/3/2
f 255/3/2 252/3/2 256/3/2
f 249/3/2 253/3/2 257/3/2
f 254/3/2 250/3/2 258/3/2
f 251/3/2 255/3/2 259/3/2
f 256/3/2 252/3/2 260/3/2
f 249/3/2 257/3/2 261/3/2
f 257/3/2 258/3/2 261/3/2
f 258/3/2 250/3/2 262/3/2
f 261/3/2 258/3/2 262/3/2
f 259/3/2 260/3/2 263/3/2
f 251/3/2 259/3/2 263/3/2
f 260/3/2 252/3/2 264/3/2
f 263/3/2 260/3/2 264/3/2
f 269/3/3 266/3/3 265/3/3
f 272/3/3 268/3/3 267/3/3
f 273/3/3 268/3/3 272/3/3
f 274/3/3 269/3/3 265/3/3
f 275/2/3 270/2/3 269/2/3
f 275/3/3 269/3/3 274/3/3
f 276/2/3 270/2/3 275/2/3
f 277/2/3 272/2/3 271/2/3
f 278/4/3 273/4/3 272/4/3
f 278/2/3 272/2/3 277/2/3
f 279/4/3 276/4/3 275/4/3
f 279/4/3 277/4/3 276/4/3
f 279/4/3 278/4/3 277/4/3
f 279/4/3 275/4/3 274/4/3
f 280/4/3 278/4/3 279/4/3
f 281/4/3 278/4/3 280/4/3
f 282/4/3 278/4/3 281/4/3
f 283/4/3 273/4/3 278/4/3
f 283/4/3 278/4/3 282/4/3
f 284/3/3 280/3/3 279/3/3
f 284/2/3 281/2/3 280/2/3
f 285/2/3 281/2/3 284/2/3
f 286/2/3 283/2/3 282/2/3
f 287/4/3 273/4/3 283/4/3
f 287/2/3 283/2/3 286/2/3
f 288/4/3 273/4/3 287/4/3
f 289/3/3 284/3/3 279/3/3
f 290/3/3 284/3/3 289/3/3
f 291/3/3 288/3/3 287/3/3
f 292/3/3 288/3/3 291/3/3
f 299/3/3 294/3/3 293/3/3
f 300/3/3 294/3/3 299/3/3
f 301/3/3 296/3/3 295/3/3
f 302/3/3 296/3/3 301/3/3
f 303/3/3 298/3/3 297/3/3
f 304/3/3 298/3/3 303/3/3
f 311/3/3 306/3/3 305/3/3
f 312/3/3 306/3/3 311/3/3
f 313/3/3 308/3/3 307/3/3
f 314/3/3 308/3/3 313/3/3
f 315/3/3 310/3/3 309/3/3
f 316/3/3 310/3/3 315/3/3
f 321/3/3 318/3/3 317/3/3
f 324/3/3 320/3/3 319/3/3
f 325/3/3 320/3/3 324/3/3
f 326/3/3 321/3/3 317/3/3
f 327/2/3 322/2/3 321/2/3
f 327/3/3 321/3/3 326/3/3
f 328/2/3 322/2/3 327/2/3
f 333/2/3 324/2/3 323/2/3
f 334/4/3 325/4/3 324/4/3
f 334/2/3 324/2/3 333/2/3
f 335/4/3 327/4/3 326/4/3
f 335/4/3 328/4/3 327/4/3
f 335/4/3 329/4/3 328/4/3
f 336/4/3 329/4/3 335/4/3
f 337/4/3 331/4/3 330/4/3
f 338/4/3 331/4/3 337/4/3
f 339/4/3 333/4/3 332/4/3
f 339/4/3 334/4/3 333/4/3
f 340/4/3 325/4/3 334/4/3
f 340/4/3 334/4/3 339/4/3
f 347/4/3 342/4/3 341/4/3
f 348/4/3 342/4/3 347/4/3
f 349/4/3 342/4/3 348/4/3
f 350/4/3 342/4/3 349/4/3
f 351/4/3 344/4/3 343/4/3
f 352/4/3 344/4/3 351/4/3
f 353/4/3 346/4/3 345/4/3
f 354/4/3 346/4/3 353/4/3
f 355/4/3 346/4/3 354/4/3
f 356/3/3 348/3/3 347/3/3
f 356/2/3 349/2/3 348/2/3
f 357/2/3 349/2/3 356/2/3
f 358/2/3 355/2/3 354/2/3
f 359/4/3 346/4/3 355/4/3
f 359/2/3 355/2/3 358/2/3
f 360/4/3 346/4/3 359/4/3
f 361/3/3 356/3/3 347/3/3
f 362/3/3 356/3/3 361/3/3
f 363/3/3 360/3/3 359/3/3
f 364/3/3 360/3/3 363/3/3
f 370/4/3 366/4/3 365/4/3
f 371/4/3 366/4/3 370/4/3
f 372/4/3 368/4/3 367/4/3
f 373/4/3 368/4/3 372/4/3
f 375/5/3 371/5/3 370/5/3
f 375/5/3 374/5/3 373/5/3
f 375/5/3 373/5/3 372/5/3
f 375/5/3 372/5/3 371/5/3
f 375/5/3 370/5/3 369/5/3
f 376/5/3 374/5/3 375/5/3
f 377/5/3 374/5/3 376/5/3
f 378/5/3 374/5/3 377/5/3
f 379/5/3 374/5/3 378/5/3
f 380/5/3 374/5/3 379/5/3
f 381/4/3 377/4/3 376/4/3
f 382/4/3 377/4/3 381/4/3
f 383/4/3 379/4/3 378/4/3
f 384/4/3 379/4/3 383/4/3
f 387/1/3 386/1/3 385/1/3
f 388/1/3 386/1/3 387/1/3
f 395/3/3 390/3/3 389/3/3
f 396/3/3 390/3/3 395/3/3
f 397/3/3 392/3/3 391/3/3
f 398/3/3 392/3/3 397/3/3
f 399/3/3 394/3/3 393/3/3
f 400/3/3 394/3/3 399/3/3
f 407/3/3 402/3/3 401/3/3
f 408/3/3 402/3/3 407/3/3
f 409/3/3 404/3/3 403/3/3
f 410/3/3 404/3/3 409/3/3
f 411/3/3 406/3/3 405/3/3
f 412/3/3 406/3/3 411/3/3
f 413/3/4 414/3/4 419/3/4
f 419/3/4 414/3/4 420/3/4
f 415/3/4 416/3/4 421/3/4
f 421/3/4 416/3/4 422/3/4
f 417/3/4 418/3/4 423/3/4
f 423/3/4 418/3/4 424/3/4
f 425/3/4 426/3/4 431/3/4
f 431/3/4 426/3/4 432/3/4
f 427/3/4 428/3/4 433/3/4
f 433/3/4 428/3/4 434/3/4
f 429/3/4 430/3/4 435/3/4
f 435/3/4 430/3/4 436/3/4
f 437/4/4 438/4/4 442/4/4
f 442/4/4 438/4/4 443/4/4
f 439/4/4 440/4/4 444/4/4
f 444/4/4 440/4/4 445/4/4
f 442/5/4 443/5/4 447/5/4
f 445/5/4 446/5/4 447/5/4
f 444/5/4 445/5/4 447/5/4
f 443/5/4 444/5/4 447/5/4
f 441/5/4 442/5/4 447/5/4
f 447/5/4 446/5/4 448/5/4
f 448/5/4 446/5/4 449/5/4
f 449/5/4 446/5/4 450/5/4
f 450/5/4 446/5/4 451/5/4
f 451/5/4 446/5/4 452/5/4
f 448/4/4 449/4/4 453/4/4
f 453/4/4 449/4/4 454/4/4
f 450/4/4 451/4/4 455/4/4
f 455/4/4 451/4/4 456/4/4
f 457/3/4 458/3/4 461/3/4
f 459/3/4 460/3/4 464/3/4
f 464/3/4 460/3/4 465/3/4
f 457/3/4 461/3/4 466/3/4
f 461/2/4 462/2/4 467/2/4
f 466/3/4 461/3/4 467/3/4
f 467/2/4 462/2/4 468/2/4
f 463/2/4 464/2/4 473/2/4
f 464/4/4 465/4/4 474/4/4
f 473/2/4 464/2/4 474/2/4
f 466/4/4 467/4/4 475/4/4
f 467/4/4 468/4/4 475/4/4
f 468/4/4 469/4/4 475/4/4
f 475/4/4 469/4/4 476/4/4
f 470/4/4 471/4/4 477/4/4
f 477/4/4 471/4/4 478/4/4
f 472/4/4 473/4/4 479/4/4
f 473/4/4 474/4/4 479/4/4
f 474/4/4 465/4/4 480/4/4
f 479/4/4 474/4/4 480/4/4
f 481/4/4 482/4/4 487/4/4
f 487/4/4 482/4/4 488/4/4
f 488/4/4 482/4/4 489/4/4
f 489/4/4 482/4/4 490/4/4
f 483/4/4 484/4/4 491/4/4
f 491/4/4 484/4/4 492/4/4
f 485/4/4 486/4/4 493/4/4
f 493/4/4 486/4/4 494/4/4
f 494/4/4 486/4/4 495/4/4
f 487/3/4 488/3/4 496/3/4
f 488/2/4 489/2/4 496/2/4
f 496/2/4 489/2/4 497/2/4
f 494/2/4 495/2/4 498/2/4
f 495/4/4 486/4/4 499/4/4
f 498/2/4 495/2/4 499/2/4
f 499/4/4 486/4/4 500/4/4
f 487/3/4 496/3/4 501/3/4
f 501/3/4 496/3/4 502/3/4
f 499/3/4 500/3/4 503/3/4
f 503/3/4 500/3/4 504/3/4
f 505/1/4 506/1/4 507/1/4
f 507/1/4 506/1/4 508/1/4
f 509/3/4 510/3/4 515/3/4
f 515/3/4 510/3/4 516/3/4
f 511/3/4 512/3/4 517/3/4
f 517/3/4 512/3/4 518/3/4
f 513/3/4 514/3/4 519/3/4
f 519/3/4 514/3/4 520/3/4
f 521/3/4 522/3/4 527/3/4
f 527/3/4 522/3/4 528/3/4
f 523/3/4 524/3/4 529/3/4
f 529/3/4 524/3/4 530/3/4
f 525/3/4 526/3/4 531/3/4
f 531/3/4 526/3/4 532/3/4
f 533/3/4 534/3/4 537/3/4
f 535/3/4 536/3/4 540/3/4
f 540/3/4 536/3/4 541/3/4
f 533/3/4 537/3/4 542/3/4
f 537/2/4 538/2/4 543/2/4
f 542/3/4 537/3/4 543/3/4
f 543/2/4 538/2/4 544/2/4
f 539/2/4 540/2/4 545/2/4
f 540/4/4 541/4/4 546/4/4
f 545/2/4 540/2/4 546/2/4
f 543/4/4 544/4/4 547/4/4
f 544/4/4 545/4/4 547/4/4
f 545/4/4 546/4/4 547/4/4
f 542/4/4 543/4/4 547/4/4
f 547/4/4 546/4/4 548/4/4
f 548/4/4 546/4/4 549/4/4
f 549/4/4 546/4/4 550/4/4
f 546/4/4 541/4/4 551/4/4
f 550/4/4 546/4/4 551/4/4
f 547/3/4 548/3/4 552/3/4
f 548/2/4 549/2/4 552/2/4
f 552/2/4 549/2/4 553/2/4
f 550/2/4 551/2/4 554/2/4
f 551/4/4 541/4/4 555/4/4
f 554/2/4 551/2/4 555/2/4
f 555/4/4 541/4/4 556/4/4
f 547/3/4 552/3/4 557/3/4
f 557/3/4 552/3/4 558/3/4
f 555/3/4 556/3/4 559/3/4
f 559/3/4 556/3/4 560/3/4
f 565/4/5 563/4/5 562/4/5
f 566/4/5 563/4/5 565/4/5
f 567/4/5 565/4/5 562/4/5
f 567/5/5 566/5/5 565/5/5
f 568/4/5 563/4/5 566/4/5
f 568/5/5 566/5/5 567/5/5
f 569/3/5 562/3/5 561/3/5
f 570/4/5 567/4/5 562/4/5
f 570/3/5 562/3/5 569/3/5
f 571/4/5 567/4/5 570/4/5
f 572/4/5 563/4/5 568/4/5
f 573/3/5 564/3/5 563/3/5
f 573/4/5 563/4/5 572/4/5
f 574/3/5 564/3/5 573/3/5
f 581/4/5 577/4/5 576/4/5
f 582/4/5 579/4/5 578/4/5
f 583/4/5 581/4/5 576/4/5
f 583/5/5 582/5/5 581/5/5
f 584/4/5 579/4/5 582/4/5
f 584/5/5 582/5/5 583/5/5
f 585/3/5 576/3/5 575/3/5
f 586/4/5 583/4/5 576/4/5
f 586/3/5 576/3/5 585/3/5
f 586/4/5 584/4/5 583/4/5
f 587/4/5 579/4/5 584/4/5
f 587/4/5 584/4/5 586/4/5
f 587/3/5 580/3/5 579/3/5
f 588/3/5 580/3/5 587/3/5
f 593/3/5 590/3/5 589/3/5
f 594/3/5 590/3/5 593/3/5
f 595/3/5 592/3/5 591/3/5
f 596/3/5 592/3/5 595/3/5
f 601/3/5 598/3/5 597/3/5
f 602/3/5 598/3/5 601/3/5
f 603/3/5 600/3/5 599/3/5
f 604/3/5 600/3/5 603/3/5
f 609/3/5 606/3/5 605/3/5
f 610/3/5 606/3/5 609/3/5
f 611/3/5 608/3/5 607/3/5
f 612/3/5 608/3/5 611/3/5
f 617/3/5 614/3/5 613/3/5
f 618/3/5 614/3/5 617/3/5
f 619/3/5 616/3/5 615/3/5
f 620/3/5 616/3/5 619/3/5
f 623/1/5 622/1/5 621/1/5
f 624/1/5 622/1/5 623/1/5
f 629/4/5 626/4/5 625/4/5
f 630/4/5 626/4/5 629/4/5
f 631/4/5 628/4/5 627/4/5
f 632/4/5 628/4/5 631/4/5
f 637/4/5 634/4/5 633/4/5
f 638/4/5 634/4/5 637/4/5
f 639/4/5 636/4/5 635/4/5
f 640/4/5 636/4/5 639/4/5
f 645/4/5 642/4/5 641/4/5
f 646/4/5 642/4/5 645/4/5
f 647/4/5 644/4/5 643/4/5
f 648/4/5 644/4/5 647/4/5
f 653/4/5 650/4/5 649/4/5
f 654/4/5 650/4/5 653/4/5
f 655/4/5 652/4/5 651/4/5
f 656/4/5 652/4/5 655/4/5
f 661/2/5 658/2/5 657/2/5
f 662/2/5 658/2/5 661/2/5
f 663/2/5 660/2/5 659/2/5
f 664/2/5 660/2/5 663/2/5
f 669/2/5 666/2/5 665/2/5
f 670/2/5 666/2/5 669/2/5
f 671/2/5 668/2/5 667/2/5
f 672/2/5 668/2/5 671/2/5
f 677/3/5 674/3/5 673/3/5
f 678/3/5 674/3/5 677/3/5
f 679/3/5 676/3/5 675/3/5
f 680/3/5 676/3/5 679/3/5
f 685/3/5 682/3/5 681/3/5
f 686/3/5 682/3/5 685/3/5
f 687/3/5 684/3/5 683/3/5
f 688/3/5 684/3/5 687/3/5
f 693/3/5 690/3/5 689/3/5
f 694/3/5 690/3/5 693/3/5
f 695/3/5 692/3/5 691/3/5
f 696/3/5 692/3/5 695/3/5
f 701/3/5 698/3/5 697/3/5
f 702/3/5 698/3/5 701/3/5
f 703/3/5 700/3/5 699/3/5
f 704/3/5 700/3/5 703/3/5
f 705/3/6 706/3/6 709/3/6
f 709/3/6 706/3/6 710/3/6
f 707/3/6 708/3/6 711/3/6
f 711/3/6 708/3/6 712/3/6
f 713/3/6 714/3/6 717/3/6
f 717/3/6 714/3/6 718/3/6
f 715/3/6 716/3/6 719/3/6
f 719/3/6 716/3/6 720/3/6
f 721/3/6 722/3/6 725/3/6
f 725/3/6 722/3/6 726/3/6
f 723/3/6 724/3/6 727/3/6
f 727/3/6 724/3/6 728/3/6
f 729/3/6 730/3/6 733/3/6
f 733/3/6 730/3/6 734/3/6
f 731/3/6 732/3/6 735/3/6
f 735/3/6 732/3/6 736/3/6
f 737/3/6 738/3/6 741/3/6
f 741/3/6 738/3/6 742/3/6
f 739/3/6 740/3/6 743/3/6
f 743/3/6 740/3/6 744/3/6
f 745/3/6 746/3/6 749/3/6
f 749/3/6 746/3/6 750/3/6
f 747/3/6 748/3/6 751/3/6
f 751/3/6 748/3/6 752/3/6
f 753/2/6 754/2/6 757/2/6
f 757/2/6 754/2/6 758/2/6
f 755/2/6 756/2/6 759/2/6
f 759/2/6 756/2/6 760/2/6
f 761/2/6 762/2/6 765/2/6
f 765/2/6 762/2/6 766/2/6
f 763/2/6 764/2/6 767/2/6
f 767/2/6 764/2/6 768/2/6
f 769/1/6 770/1/6 771/1/6
f 771/1/6 770/1/6 772/1/6
f 773/4/6 774/4/6 777/4/6
f 777/4/6 774/4/6 778/4/6
f 775/4/6 776/4/6 779/4/6
f 779/4/6 776/4/6 780/4/6
f 781/4/6 782/4/6 785/4/6
f 785/4/6 782/4/6 786/4/6
f 783/4/6 784/4/6 787/4/6
f 787/4/6 784/4/6 788/4/6
f 789/4/6 790/4/6 793/4/6
f 793/4/6 790/4/6 794/4/6
f 791/4/6 792/4/6 795/4/6
f 795/4/6 792/4/6 796/4/6
f 797/4/6 798/4/6 801/4/6
f 801/4/6 798/4/6 802/4/6
f 799/4/6 800/4/6 803/4/6
f 803/4/6 800/4/6 804/4/6
f 805/3/6 806/3/6 809/3/6
f 809/3/6 806/3/6 810/3/6
f 807/3/6 808/3/6 811/3/6
f 811/3/6 808/3/6 812/3/6
f 813/3/6 814/3/6 817/3/6
f 817/3/6 814/3/6 818/3/6
f 815/3/6 816/3/6 819/3/6
f 819/3/6 816/3/6 820/3/6
f 822/4/6 823/4/6 825/4/6
f 825/4/6 823/4/6 826/4/6
f 822/4/6 825/4/6 827/4/6
f 825/5/6 826/5/6 827/5/6
f 826/4/6 823/4/6 828/4/6
f 827/5/6 826/5/6 828/5/6
f 821/3/6 822/3/6 829/3/6
f 822/4/6 827/4/6 830/4/6
f 829/3/6 822/3/6 830/3/6
f 830/4/6 827/4/6 831/4/6
f 828/4/6 823/4/6 832/4/6
f 823/3/6 824/3/6 833/3/6
f 832/4/6 823/4/6 833/4/6
f 833/3/6 824/3/6 834/3/6
f 836/4/6 837/4/6 841/4/6
f 838/4/6 839/4/6 842/4/6
f 836/4/6 841/4/6 843/4/6
f 841/5/6 842/5/6 843/5/6
f 842/4/6 839/4/6 844/4/6
f 843/5/6 842/5/6 844/5/6
f 835/3/6 836/3/6 845/3/6
f 836/4/6 843/4/6 846/4/6
f 845/3/6 836/3/6 846/3/6
f 843/4/6 844/4/6 846/4/6
f 844/4/6 839/4/6 847/4/6
f 846/4/6 844/4/6 847/4/6
f 839/3/6 840/3/6 847/3/6
f 847/3/6 840/3/6 848/3/6
