# MagicaVoxel @ Ephtracy

# group
g floor blood

# material
mtllib floor blood.mtl
usemtl palette

# normals
vn -1 0 0
vn 1 0 0
vn 0 0 1
vn 0 0 -1
vn 0 -1 0
vn 0 1 0

# texcoords
vt 0.845703 0.5
vt 0.986328 0.5
vt 0.994141 0.5

# verts
v -20 38 20
v -20 38 -20
v -20 40 20
v -20 40 -20
v 20 38 20
v 20 38 -20
v 20 40 20
v 20 40 -20
v -20 38 20
v -20 40 20
v 20 38 20
v 20 40 20
v -20 38 -20
v -20 40 -20
v 20 38 -20
v 20 40 -20
v -20 38 20
v 20 38 20
v -20 38 -20
v 20 38 -20
v -20 40 20
v 20 40 20
v -4 40 17
v -3 40 17
v -2 40 17
v 2 40 17
v 3 40 17
v -4 40 16
v -3 40 16
v -2 40 16
v 2 40 16
v 3 40 16
v -15 40 15
v -14 40 15
v 14 40 15
v 15 40 15
v -15 40 14
v -14 40 14
v 14 40 14
v 15 40 14
v -7 40 13
v 7 40 13
v -12 40 12
v -11 40 12
v -7 40 12
v 7 40 12
v 11 40 12
v 12 40 12
v -14 40 11
v -12 40 11
v -11 40 11
v -10 40 11
v 10 40 11
v 11 40 11
v 12 40 11
v -15 40 10
v -14 40 10
v -10 40 10
v -9 40 10
v -5 40 10
v 5 40 10
v 7 40 10
v 10 40 10
v 11 40 10
v -16 40 9
v -15 40 9
v -9 40 9
v -8 40 9
v -5 40 9
v 5 40 9
v 6 40 9
v 7 40 9
v 10 40 9
v 11 40 9
v -9 40 8
v -8 40 8
v -7 40 8
v -9 40 7
v -8 40 7
v -7 40 7
v -6 40 7
v -4 40 7
v -3 40 7
v 12 40 7
v 13 40 7
v -7 40 6
v -6 40 6
v -4 40 6
v 5 40 6
v 6 40 6
v 7 40 6
v 10 40 6
v 11 40 6
v -16 40 5
v -15 40 5
v -6 40 5
v -5 40 5
v 4 40 5
v 5 40 5
v 6 40 5
v 7 40 5
v 9 40 5
v 10 40 5
v -15 40 4
v -13 40 4
v -5 40 4
v -4 40 4
v -3 40 4
v -2 40 4
v 3 40 4
v 4 40 4
v 5 40 4
v -18 40 3
v -17 40 3
v -8 40 3
v -7 40 3
v -4 40 3
v -3 40 3
v 2 40 3
v 3 40 3
v 4 40 3
v 17 40 3
v 18 40 3
v -18 40 2
v -17 40 2
v -7 40 2
v -6 40 2
v -3 40 2
v -2 40 2
v 2 40 2
v 3 40 2
v 17 40 2
v 18 40 2
v -18 40 1
v -16 40 1
v -6 40 1
v -4 40 1
v -4 40 -0
v -3 40 -0
v -18 40 -1
v -17 40 -1
v -16 40 -1
v -15 40 -1
v -14 40 -1
v -13 40 -1
v -3 40 -1
v -2 40 -1
v -18 40 -2
v -17 40 -2
v -16 40 -2
v -2 40 -2
v -1 40 -2
v 2 40 -2
v 3 40 -2
v 17 40 -2
v 18 40 -2
v -18 40 -3
v -17 40 -3
v -16 40 -3
v -15 40 -3
v 2 40 -3
v 3 40 -3
v 4 40 -3
v 17 40 -3
v 18 40 -3
v -1 40 -4
v 0 40 -4
v 3 40 -4
v 4 40 -4
v 5 40 -4
v -14 40 -5
v -13 40 -5
v 4 40 -5
v 5 40 -5
v 6 40 -5
v 9 40 -5
v 10 40 -5
v 16 40 -5
v 18 40 -5
v 0 40 -6
v 1 40 -6
v 5 40 -6
v 6 40 -6
v 7 40 -6
v 15 40 -6
v 16 40 -6
v 18 40 -6
v 19 40 -6
v -13 40 -7
v -11 40 -7
v -7 40 -7
v -6 40 -7
v 6 40 -7
v 7 40 -7
v 8 40 -7
v 12 40 -7
v 13 40 -7
v -14 40 -8
v -11 40 -8
v -10 40 -8
v -9 40 -8
v -8 40 -8
v -7 40 -8
v -6 40 -8
v -5 40 -8
v 7 40 -8
v 8 40 -8
v 9 40 -8
v 15 40 -8
v 16 40 -8
v 18 40 -8
v 19 40 -8
v -13 40 -9
v -12 40 -9
v -11 40 -9
v -10 40 -9
v -9 40 -9
v -8 40 -9
v 1 40 -9
v 5 40 -9
v 8 40 -9
v 9 40 -9
v 10 40 -9
v 16 40 -9
v 18 40 -9
v -14 40 -10
v -13 40 -10
v -12 40 -10
v -11 40 -10
v -10 40 -10
v -9 40 -10
v -5 40 -10
v 5 40 -10
v 9 40 -10
v 10 40 -10
v 11 40 -10
v -12 40 -11
v -11 40 -11
v -10 40 -11
v 10 40 -11
v 11 40 -11
v 12 40 -11
v -13 40 -12
v -12 40 -12
v -11 40 -12
v -7 40 -12
v -2 40 -12
v 1 40 -12
v 7 40 -12
v 11 40 -12
v 12 40 -12
v -7 40 -13
v -2 40 -13
v -1 40 -13
v 1 40 -13
v 7 40 -13
v -15 40 -14
v -14 40 -14
v -1 40 -14
v 1 40 -14
v 14 40 -14
v 15 40 -14
v 17 40 -14
v -15 40 -15
v -14 40 -15
v 14 40 -15
v 15 40 -15
v -3 40 -16
v -2 40 -16
v 2 40 -16
v 3 40 -16
v 9 40 -16
v 10 40 -16
v 15 40 -16
v 17 40 -16
v -3 40 -17
v -2 40 -17
v 2 40 -17
v 3 40 -17
v 9 40 -17
v 10 40 -17
v 12 40 -17
v 15 40 -17
v 12 40 -18
v 15 40 -18
v -20 40 -20
v 20 40 -20

# faces
f 3/2/1 2/2/1 1/2/1
f 4/2/1 2/2/1 3/2/1
f 5/2/2 6/2/2 7/2/2
f 7/2/2 6/2/2 8/2/2
f 11/2/3 10/2/3 9/2/3
f 12/2/3 10/2/3 11/2/3
f 13/2/4 14/2/4 15/2/4
f 15/2/4 14/2/4 16/2/4
f 19/2/5 18/2/5 17/2/5
f 20/2/5 18/2/5 19/2/5
f 21/2/6 22/2/6 23/2/6
f 23/2/6 22/2/6 24/2/6
f 24/2/6 22/2/6 25/2/6
f 25/2/6 22/2/6 26/2/6
f 26/2/6 22/2/6 27/2/6
f 21/2/6 23/2/6 28/2/6
f 23/1/6 24/1/6 28/1/6
f 24/3/6 25/3/6 29/3/6
f 28/1/6 24/1/6 29/1/6
f 25/2/6 26/2/6 30/2/6
f 29/3/6 25/3/6 30/3/6
f 26/3/6 27/3/6 31/3/6
f 30/2/6 26/2/6 31/2/6
f 27/2/6 22/2/6 32/2/6
f 31/3/6 27/3/6 32/3/6
f 30/2/6 31/2/6 33/2/6
f 29/2/6 30/2/6 33/2/6
f 31/2/6 32/2/6 33/2/6
f 28/2/6 29/2/6 33/2/6
f 21/2/6 28/2/6 33/2/6
f 33/2/6 32/2/6 34/2/6
f 32/2/6 22/2/6 35/2/6
f 34/2/6 32/2/6 35/2/6
f 35/2/6 22/2/6 36/2/6
f 33/3/6 34/3/6 37/3/6
f 21/2/6 33/2/6 37/2/6
f 34/2/6 35/2/6 38/2/6
f 37/3/6 34/3/6 38/3/6
f 35/3/6 36/3/6 39/3/6
f 38/2/6 35/2/6 39/2/6
f 36/2/6 22/2/6 40/2/6
f 39/3/6 36/3/6 40/3/6
f 38/2/6 39/2/6 41/2/6
f 37/2/6 38/2/6 41/2/6
f 39/2/6 40/2/6 41/2/6
f 41/2/6 40/2/6 42/2/6
f 37/2/6 41/2/6 43/2/6
f 43/2/6 41/2/6 44/2/6
f 41/3/6 42/3/6 45/3/6
f 44/2/6 41/2/6 45/2/6
f 42/2/6 40/2/6 46/2/6
f 45/3/6 42/3/6 46/3/6
f 46/2/6 40/2/6 47/2/6
f 47/2/6 40/2/6 48/2/6
f 37/2/6 43/2/6 49/2/6
f 43/3/6 44/3/6 50/3/6
f 49/2/6 43/2/6 50/2/6
f 44/2/6 45/2/6 51/2/6
f 50/3/6 44/3/6 51/3/6
f 45/2/6 46/2/6 51/2/6
f 46/2/6 47/2/6 51/2/6
f 51/2/6 47/2/6 52/2/6
f 52/2/6 47/2/6 53/2/6
f 47/3/6 48/3/6 54/3/6
f 53/2/6 47/2/6 54/2/6
f 48/2/6 40/2/6 55/2/6
f 54/3/6 48/3/6 55/3/6
f 21/2/6 37/2/6 56/2/6
f 37/2/6 49/2/6 56/2/6
f 49/1/6 50/1/6 57/1/6
f 56/2/6 49/2/6 57/2/6
f 50/1/6 51/1/6 57/1/6
f 51/1/6 52/1/6 57/1/6
f 52/2/6 53/2/6 58/2/6
f 57/1/6 52/1/6 58/1/6
f 58/2/6 53/2/6 59/2/6
f 59/2/6 53/2/6 60/2/6
f 60/2/6 53/2/6 61/2/6
f 61/2/6 53/2/6 62/2/6
f 53/1/6 54/1/6 63/1/6
f 62/2/6 53/2/6 63/2/6
f 54/2/6 55/2/6 64/2/6
f 63/1/6 54/1/6 64/1/6
f 21/2/6 56/2/6 65/2/6
f 56/1/6 57/1/6 66/1/6
f 65/2/6 56/2/6 66/2/6
f 57/1/6 58/1/6 66/1/6
f 58/1/6 59/1/6 66/1/6
f 59/2/6 60/2/6 67/2/6
f 66/1/6 59/1/6 67/1/6
f 67/2/6 60/2/6 68/2/6
f 60/3/6 61/3/6 69/3/6
f 68/2/6 60/2/6 69/2/6
f 61/2/6 62/2/6 70/2/6
f 69/3/6 61/3/6 70/3/6
f 70/2/6 62/2/6 71/2/6
f 62/1/6 63/1/6 72/1/6
f 71/2/6 62/2/6 72/2/6
f 63/2/6 64/2/6 73/2/6
f 72/1/6 63/1/6 73/1/6
f 64/2/6 55/2/6 74/2/6
f 73/2/6 64/2/6 74/2/6
f 67/3/6 68/3/6 75/3/6
f 65/1/6 66/1/6 75/1/6
f 66/1/6 67/1/6 75/1/6
f 70/2/6 71/2/6 76/2/6
f 75/3/6 68/3/6 76/3/6
f 68/2/6 69/2/6 76/2/6
f 69/2/6 70/2/6 76/2/6
f 76/2/6 71/2/6 77/2/6
f 65/1/6 75/1/6 78/1/6
f 75/2/6 76/2/6 78/2/6
f 76/3/6 77/3/6 79/3/6
f 78/2/6 76/2/6 79/2/6
f 77/2/6 71/2/6 80/2/6
f 79/3/6 77/3/6 80/3/6
f 80/2/6 71/2/6 81/2/6
f 81/2/6 71/2/6 82/2/6
f 82/2/6 71/2/6 83/2/6
f 55/2/6 40/2/6 84/2/6
f 74/2/6 55/2/6 84/2/6
f 84/2/6 40/2/6 85/2/6
f 79/2/6 80/2/6 86/2/6
f 80/3/6 81/3/6 86/3/6
f 81/2/6 82/2/6 87/2/6
f 86/3/6 81/3/6 87/3/6
f 82/1/6 83/1/6 88/1/6
f 87/2/6 82/2/6 88/2/6
f 83/2/6 71/2/6 89/2/6
f 72/1/6 73/1/6 90/1/6
f 89/2/6 71/2/6 90/2/6
f 73/1/6 74/1/6 90/1/6
f 71/1/6 72/1/6 90/1/6
f 90/1/6 74/1/6 91/1/6
f 91/1/6 74/1/6 92/1/6
f 74/2/6 84/2/6 93/2/6
f 92/1/6 74/1/6 93/1/6
f 78/1/6 79/1/6 94/1/6
f 21/2/6 65/2/6 94/2/6
f 65/1/6 78/1/6 94/1/6
f 94/1/6 79/1/6 95/1/6
f 87/1/6 88/1/6 96/1/6
f 86/2/6 87/2/6 96/2/6
f 96/1/6 88/1/6 97/1/6
f 83/2/6 89/2/6 98/2/6
f 89/1/6 90/1/6 99/1/6
f 98/2/6 89/2/6 99/2/6
f 90/2/6 91/2/6 100/2/6
f 99/1/6 90/1/6 100/1/6
f 91/1/6 92/1/6 101/1/6
f 100/2/6 91/2/6 101/2/6
f 101/1/6 92/1/6 102/1/6
f 92/2/6 93/2/6 103/2/6
f 102/1/6 92/1/6 103/1/6
f 95/1/6 79/1/6 104/1/6
f 94/2/6 95/2/6 104/2/6
f 104/1/6 79/1/6 105/1/6
f 97/1/6 88/1/6 106/1/6
f 96/2/6 97/2/6 106/2/6
f 88/1/6 83/1/6 107/1/6
f 106/1/6 88/1/6 107/1/6
f 83/2/6 98/2/6 108/2/6
f 107/1/6 83/1/6 108/1/6
f 108/2/6 98/2/6 109/2/6
f 109/2/6 98/2/6 110/2/6
f 98/1/6 99/1/6 111/1/6
f 110/2/6 98/2/6 111/2/6
f 101/2/6 102/2/6 112/2/6
f 111/1/6 99/1/6 112/1/6
f 99/2/6 100/2/6 112/2/6
f 100/2/6 101/2/6 112/2/6
f 21/2/6 94/2/6 113/2/6
f 104/2/6 105/2/6 113/2/6
f 94/2/6 104/2/6 113/2/6
f 113/2/6 105/2/6 114/2/6
f 96/2/6 106/2/6 115/2/6
f 105/1/6 79/1/6 115/1/6
f 79/2/6 86/2/6 115/2/6
f 106/2/6 107/2/6 115/2/6
f 86/2/6 96/2/6 115/2/6
f 115/2/6 107/2/6 116/2/6
f 108/1/6 109/1/6 117/1/6
f 116/2/6 107/2/6 117/2/6
f 107/1/6 108/1/6 117/1/6
f 117/1/6 109/1/6 118/1/6
f 109/2/6 110/2/6 119/2/6
f 110/3/6 111/3/6 120/3/6
f 119/2/6 110/2/6 120/2/6
f 111/2/6 112/2/6 121/2/6
f 120/3/6 111/3/6 121/3/6
f 40/2/6 22/2/6 122/2/6
f 85/2/6 40/2/6 122/2/6
f 122/2/6 22/2/6 123/2/6
f 113/3/6 114/3/6 124/3/6
f 21/2/6 113/2/6 124/2/6
f 114/2/6 105/2/6 125/2/6
f 124/3/6 114/3/6 125/3/6
f 115/1/6 116/1/6 126/1/6
f 116/2/6 117/2/6 126/2/6
f 117/2/6 118/2/6 126/2/6
f 126/2/6 118/2/6 127/2/6
f 118/1/6 109/1/6 128/1/6
f 127/2/6 118/2/6 128/2/6
f 109/2/6 119/2/6 129/2/6
f 128/1/6 109/1/6 129/1/6
f 119/3/6 120/3/6 130/3/6
f 129/2/6 119/2/6 130/2/6
f 120/2/6 121/2/6 131/2/6
f 130/3/6 120/3/6 131/3/6
f 122/3/6 123/3/6 132/3/6
f 85/2/6 122/2/6 132/2/6
f 123/2/6 22/2/6 133/2/6
f 132/3/6 123/3/6 133/3/6
f 21/2/6 124/2/6 134/2/6
f 124/2/6 125/2/6 134/2/6
f 125/2/6 105/2/6 135/2/6
f 134/2/6 125/2/6 135/2/6
f 127/2/6 128/2/6 136/2/6
f 126/1/6 127/1/6 136/1/6
f 129/2/6 130/2/6 136/2/6
f 128/2/6 129/2/6 136/2/6
f 130/2/6 131/2/6 136/2/6
f 136/2/6 131/2/6 137/2/6
f 136/1/6 137/1/6 138/1/6
f 137/2/6 131/2/6 138/2/6
f 138/2/6 131/2/6 139/2/6
f 21/2/6 134/2/6 140/2/6
f 134/1/6 135/1/6 140/1/6
f 140/1/6 135/1/6 141/1/6
f 135/2/6 105/2/6 142/2/6
f 141/1/6 135/1/6 142/1/6
f 142/2/6 105/2/6 143/2/6
f 143/2/6 105/2/6 144/2/6
f 138/1/6 139/1/6 145/1/6
f 144/2/6 105/2/6 145/2/6
f 115/1/6 126/1/6 145/1/6
f 105/1/6 115/1/6 145/1/6
f 126/1/6 136/1/6 145/1/6
f 136/1/6 138/1/6 145/1/6
f 139/2/6 131/2/6 146/2/6
f 145/1/6 139/1/6 146/1/6
f 146/2/6 131/2/6 147/2/6
f 140/2/6 141/2/6 148/2/6
f 21/2/6 140/2/6 148/2/6
f 142/1/6 143/1/6 149/1/6
f 148/2/6 141/2/6 149/2/6
f 141/1/6 142/1/6 149/1/6
f 149/1/6 143/1/6 150/1/6
f 147/2/6 131/2/6 151/2/6
f 144/1/6 145/1/6 151/1/6
f 145/1/6 146/1/6 151/1/6
f 146/1/6 147/1/6 151/1/6
f 151/2/6 131/2/6 152/2/6
f 152/2/6 131/2/6 153/2/6
f 131/2/6 121/2/6 154/2/6
f 153/2/6 131/2/6 154/2/6
f 85/2/6 132/2/6 155/2/6
f 132/2/6 133/2/6 155/2/6
f 133/2/6 22/2/6 156/2/6
f 155/2/6 133/2/6 156/2/6
f 21/2/6 148/2/6 157/2/6
f 148/3/6 149/3/6 157/3/6
f 149/2/6 150/2/6 158/2/6
f 157/3/6 149/3/6 158/3/6
f 150/1/6 143/1/6 159/1/6
f 158/2/6 150/2/6 159/2/6
f 143/2/6 144/2/6 160/2/6
f 159/1/6 143/1/6 160/1/6
f 152/2/6 153/2/6 161/2/6
f 153/3/6 154/3/6 161/3/6
f 154/2/6 121/2/6 162/2/6
f 161/3/6 154/3/6 162/3/6
f 121/2/6 112/2/6 163/2/6
f 162/2/6 121/2/6 163/2/6
f 85/2/6 155/2/6 164/2/6
f 155/3/6 156/3/6 164/3/6
f 156/2/6 22/2/6 165/2/6
f 164/3/6 156/3/6 165/3/6
f 161/2/6 162/2/6 166/2/6
f 152/2/6 161/2/6 166/2/6
f 151/1/6 152/1/6 166/1/6
f 166/2/6 162/2/6 167/2/6
f 162/3/6 163/3/6 168/3/6
f 167/2/6 162/2/6 168/2/6
f 163/2/6 112/2/6 169/2/6
f 168/3/6 163/3/6 169/3/6
f 112/2/6 102/2/6 170/2/6
f 169/2/6 112/2/6 170/2/6
f 157/2/6 158/2/6 171/2/6
f 158/2/6 159/2/6 171/2/6
f 160/2/6 144/2/6 171/2/6
f 151/1/6 166/1/6 171/1/6
f 144/1/6 151/1/6 171/1/6
f 159/2/6 160/2/6 171/2/6
f 166/1/6 167/1/6 171/1/6
f 171/1/6 167/1/6 172/1/6
f 167/2/6 168/2/6 173/2/6
f 169/3/6 170/3/6 173/3/6
f 168/2/6 169/2/6 173/2/6
f 170/2/6 102/2/6 174/2/6
f 173/3/6 170/3/6 174/3/6
f 174/2/6 102/2/6 175/2/6
f 102/3/6 103/3/6 176/3/6
f 175/2/6 102/2/6 176/2/6
f 103/2/6 93/2/6 177/2/6
f 176/3/6 103/3/6 177/3/6
f 164/2/6 165/2/6 178/2/6
f 85/2/6 164/2/6 178/2/6
f 165/2/6 22/2/6 179/2/6
f 178/2/6 165/2/6 179/2/6
f 172/1/6 167/1/6 180/1/6
f 167/2/6 173/2/6 180/2/6
f 173/2/6 174/2/6 180/2/6
f 180/2/6 174/2/6 181/2/6
f 174/3/6 175/3/6 182/3/6
f 181/2/6 174/2/6 182/2/6
f 175/2/6 176/2/6 183/2/6
f 182/3/6 175/3/6 183/3/6
f 176/2/6 177/2/6 183/2/6
f 183/2/6 177/2/6 184/2/6
f 85/2/6 178/2/6 185/2/6
f 178/1/6 179/1/6 186/1/6
f 185/2/6 178/2/6 186/2/6
f 179/2/6 22/2/6 187/2/6
f 186/1/6 179/1/6 187/1/6
f 187/2/6 22/2/6 188/2/6
f 180/1/6 181/1/6 189/1/6
f 171/2/6 172/2/6 189/2/6
f 172/1/6 180/1/6 189/1/6
f 189/1/6 181/1/6 190/1/6
f 190/1/6 181/1/6 191/1/6
f 191/1/6 181/1/6 192/1/6
f 181/2/6 182/2/6 193/2/6
f 182/2/6 183/2/6 193/2/6
f 183/3/6 184/3/6 193/3/6
f 184/2/6 177/2/6 194/2/6
f 193/3/6 184/3/6 194/3/6
f 194/2/6 177/2/6 195/2/6
f 177/2/6 93/2/6 196/2/6
f 195/2/6 177/2/6 196/2/6
f 93/2/6 84/2/6 196/2/6
f 84/3/6 85/3/6 196/3/6
f 85/2/6 185/2/6 197/2/6
f 196/3/6 85/3/6 197/3/6
f 189/2/6 190/2/6 198/2/6
f 157/2/6 171/2/6 198/2/6
f 171/2/6 189/2/6 198/2/6
f 190/1/6 191/1/6 199/1/6
f 198/2/6 190/2/6 199/2/6
f 199/1/6 191/1/6 200/1/6
f 200/1/6 191/1/6 201/1/6
f 201/1/6 191/1/6 202/1/6
f 191/2/6 192/2/6 203/2/6
f 202/1/6 191/1/6 203/1/6
f 192/1/6 181/1/6 204/1/6
f 203/2/6 192/2/6 204/2/6
f 204/1/6 181/1/6 205/1/6
f 194/3/6 195/3/6 206/3/6
f 193/2/6 194/2/6 206/2/6
f 195/2/6 196/2/6 207/2/6
f 206/3/6 195/3/6 207/3/6
f 196/2/6 197/2/6 207/2/6
f 207/2/6 197/2/6 208/2/6
f 185/1/6 186/1/6 209/1/6
f 208/2/6 197/2/6 209/2/6
f 187/1/6 188/1/6 209/1/6
f 186/1/6 187/1/6 209/1/6
f 197/2/6 185/2/6 209/2/6
f 209/1/6 188/1/6 210/1/6
f 210/1/6 188/1/6 211/1/6
f 188/2/6 22/2/6 212/2/6
f 211/1/6 188/1/6 212/1/6
f 199/1/6 200/1/6 213/1/6
f 198/1/6 199/1/6 213/1/6
f 213/1/6 200/1/6 214/1/6
f 214/1/6 200/1/6 215/1/6
f 200/2/6 201/2/6 216/2/6
f 215/1/6 200/1/6 216/1/6
f 201/1/6 202/1/6 217/1/6
f 216/2/6 201/2/6 217/2/6
f 204/2/6 205/2/6 218/2/6
f 217/1/6 202/1/6 218/1/6
f 202/2/6 203/2/6 218/2/6
f 203/2/6 204/2/6 218/2/6
f 181/2/6 193/2/6 219/2/6
f 205/1/6 181/1/6 219/1/6
f 193/2/6 206/2/6 219/2/6
f 206/2/6 207/2/6 219/2/6
f 219/2/6 207/2/6 220/2/6
f 207/3/6 208/3/6 221/3/6
f 220/2/6 207/2/6 221/2/6
f 209/2/6 210/2/6 222/2/6
f 221/3/6 208/3/6 222/3/6
f 208/2/6 209/2/6 222/2/6
f 222/2/6 210/2/6 223/2/6
f 210/1/6 211/1/6 224/1/6
f 223/2/6 210/2/6 224/2/6
f 211/2/6 212/2/6 225/2/6
f 224/1/6 211/1/6 225/1/6
f 198/1/6 213/1/6 226/1/6
f 157/2/6 198/2/6 226/2/6
f 213/2/6 214/2/6 227/2/6
f 226/1/6 213/1/6 227/1/6
f 214/1/6 215/1/6 228/1/6
f 227/2/6 214/2/6 228/2/6
f 215/2/6 216/2/6 229/2/6
f 228/1/6 215/1/6 229/1/6
f 216/1/6 217/1/6 230/1/6
f 229/2/6 216/2/6 230/2/6
f 217/2/6 218/2/6 231/2/6
f 230/1/6 217/1/6 231/1/6
f 218/2/6 205/2/6 232/2/6
f 231/2/6 218/2/6 232/2/6
f 219/1/6 220/1/6 232/1/6
f 205/1/6 219/1/6 232/1/6
f 221/2/6 222/2/6 233/2/6
f 232/1/6 220/1/6 233/1/6
f 220/2/6 221/2/6 233/2/6
f 222/3/6 223/3/6 234/3/6
f 233/2/6 222/2/6 234/2/6
f 224/2/6 225/2/6 235/2/6
f 234/3/6 223/3/6 235/3/6
f 223/2/6 224/2/6 235/2/6
f 235/2/6 225/2/6 236/2/6
f 228/2/6 229/2/6 237/2/6
f 227/1/6 228/1/6 237/1/6
f 229/1/6 230/1/6 238/1/6
f 237/2/6 229/2/6 238/2/6
f 230/2/6 231/2/6 239/2/6
f 238/1/6 230/1/6 239/1/6
f 231/2/6 232/2/6 239/2/6
f 234/2/6 235/2/6 239/2/6
f 233/2/6 234/2/6 239/2/6
f 232/2/6 233/2/6 239/2/6
f 235/3/6 236/3/6 240/3/6
f 239/2/6 235/2/6 240/2/6
f 236/2/6 225/2/6 241/2/6
f 240/3/6 236/3/6 241/3/6
f 241/2/6 225/2/6 242/2/6
f 227/1/6 237/1/6 243/1/6
f 226/2/6 227/2/6 243/2/6
f 237/3/6 238/3/6 244/3/6
f 243/1/6 237/1/6 244/1/6
f 239/2/6 240/2/6 245/2/6
f 244/3/6 238/3/6 245/3/6
f 238/2/6 239/2/6 245/2/6
f 240/2/6 241/2/6 245/2/6
f 245/2/6 241/2/6 246/2/6
f 246/2/6 241/2/6 247/2/6
f 247/2/6 241/2/6 248/2/6
f 248/2/6 241/2/6 249/2/6
f 241/3/6 242/3/6 250/3/6
f 249/2/6 241/2/6 250/2/6
f 242/2/6 225/2/6 251/2/6
f 250/3/6 242/3/6 251/3/6
f 243/2/6 244/2/6 252/2/6
f 244/2/6 245/2/6 252/2/6
f 245/2/6 246/2/6 252/2/6
f 246/3/6 247/3/6 252/3/6
f 247/1/6 248/1/6 253/1/6
f 252/3/6 247/3/6 253/3/6
f 253/1/6 248/1/6 254/1/6
f 248/3/6 249/3/6 255/3/6
f 254/1/6 248/1/6 255/1/6
f 249/2/6 250/2/6 256/2/6
f 255/3/6 249/3/6 256/3/6
f 250/2/6 251/2/6 256/2/6
f 226/2/6 243/2/6 257/2/6
f 157/2/6 226/2/6 257/2/6
f 253/2/6 254/2/6 257/2/6
f 243/2/6 252/2/6 257/2/6
f 252/2/6 253/2/6 257/2/6
f 257/2/6 254/2/6 258/2/6
f 254/1/6 255/1/6 259/1/6
f 258/2/6 254/2/6 259/2/6
f 255/2/6 256/2/6 260/2/6
f 259/1/6 255/1/6 260/1/6
f 256/2/6 251/2/6 261/2/6
f 260/2/6 256/2/6 261/2/6
f 251/2/6 225/2/6 261/2/6
f 261/2/6 225/2/6 262/2/6
f 262/2/6 225/2/6 263/2/6
f 257/3/6 258/3/6 264/3/6
f 157/2/6 257/2/6 264/2/6
f 259/2/6 260/2/6 265/2/6
f 264/3/6 258/3/6 265/3/6
f 258/2/6 259/2/6 265/2/6
f 260/2/6 261/2/6 265/2/6
f 261/3/6 262/3/6 266/3/6
f 265/2/6 261/2/6 266/2/6
f 262/1/6 263/1/6 267/1/6
f 266/3/6 262/3/6 267/3/6
f 265/2/6 266/2/6 268/2/6
f 264/2/6 265/2/6 268/2/6
f 266/2/6 267/2/6 268/2/6
f 268/2/6 267/2/6 269/2/6
f 269/2/6 267/2/6 270/2/6
f 270/2/6 267/2/6 271/2/6
f 271/2/6 267/2/6 272/2/6
f 272/2/6 267/2/6 273/2/6
f 267/1/6 263/1/6 274/1/6
f 273/2/6 267/2/6 274/2/6
f 263/2/6 225/2/6 275/2/6
f 274/1/6 263/1/6 275/1/6
f 264/2/6 268/2/6 276/2/6
f 268/3/6 269/3/6 276/3/6
f 269/2/6 270/2/6 277/2/6
f 276/3/6 269/3/6 277/3/6
f 270/3/6 271/3/6 278/3/6
f 277/2/6 270/2/6 278/2/6
f 271/2/6 272/2/6 279/2/6
f 278/3/6 271/3/6 279/3/6
f 272/1/6 273/1/6 280/1/6
f 279/2/6 272/2/6 280/2/6
f 273/2/6 274/2/6 281/2/6
f 280/1/6 273/1/6 281/1/6
f 274/2/6 275/2/6 281/2/6
f 281/2/6 275/2/6 282/2/6
f 282/2/6 275/2/6 283/2/6
f 279/2/6 280/2/6 284/2/6
f 278/2/6 279/2/6 284/2/6
f 282/1/6 283/1/6 284/1/6
f 281/2/6 282/2/6 284/2/6
f 280/2/6 281/2/6 284/2/6
f 276/2/6 277/2/6 284/2/6
f 277/2/6 278/2/6 284/2/6
f 283/2/6 275/2/6 285/2/6
f 284/1/6 283/1/6 285/1/6
f 157/2/6 264/2/6 286/2/6
f 276/2/6 284/2/6 286/2/6
f 284/2/6 285/2/6 286/2/6
f 264/2/6 276/2/6 286/2/6
f 21/2/6 157/2/6 286/2/6
f 285/2/6 275/2/6 287/2/6
f 286/2/6 285/2/6 287/2/6
f 225/2/6 212/2/6 287/2/6
f 212/2/6 22/2/6 287/2/6
f 275/2/6 225/2/6 287/2/6
