# MagicaVoxel @ Ephtracy

# group
g floor

# material
mtllib floor.mtl
usemtl palette

# normals
vn -1 0 0
vn 1 0 0
vn 0 0 1
vn 0 0 -1
vn 0 -1 0
vn 0 1 0

# texcoords
vt 0.986328 0.5
vt 0.994141 0.5

# verts
v -20 38 20
v -20 38 -20
v -20 40 20
v -20 40 -20
v 20 38 20
v 20 38 -20
v 20 40 20
v 20 40 -20
v -20 38 20
v -20 40 20
v 20 38 20
v 20 40 20
v -20 38 -20
v -20 40 -20
v 20 38 -20
v 20 40 -20
v -20 38 20
v 20 38 20
v -20 38 -20
v 20 38 -20
v -20 40 20
v 20 40 20
v -3 40 17
v -2 40 17
v 2 40 17
v 3 40 17
v -3 40 16
v -2 40 16
v 2 40 16
v 3 40 16
v -7 40 13
v 7 40 13
v -12 40 12
v -11 40 12
v -7 40 12
v 7 40 12
v 11 40 12
v 12 40 12
v -12 40 11
v -11 40 11
v 11 40 11
v 12 40 11
v -5 40 10
v 5 40 10
v -5 40 9
v 5 40 9
v -13 40 7
v -12 40 7
v 12 40 7
v 13 40 7
v -10 40 5
v -9 40 5
v 9 40 5
v 10 40 5
v -18 40 3
v -17 40 3
v -3 40 3
v -2 40 3
v 2 40 3
v 3 40 3
v 17 40 3
v 18 40 3
v -18 40 2
v -17 40 2
v -3 40 2
v -2 40 2
v 2 40 2
v 3 40 2
v 17 40 2
v 18 40 2
v -18 40 -2
v -17 40 -2
v -3 40 -2
v -2 40 -2
v 2 40 -2
v 3 40 -2
v 17 40 -2
v 18 40 -2
v -18 40 -3
v -17 40 -3
v -3 40 -3
v -2 40 -3
v 2 40 -3
v 3 40 -3
v 17 40 -3
v 18 40 -3
v -10 40 -5
v -9 40 -5
v 9 40 -5
v 10 40 -5
v -13 40 -7
v -12 40 -7
v 12 40 -7
v 13 40 -7
v -5 40 -9
v 5 40 -9
v -5 40 -10
v 5 40 -10
v -12 40 -11
v -11 40 -11
v 11 40 -11
v 12 40 -11
v -12 40 -12
v -11 40 -12
v -7 40 -12
v 7 40 -12
v 11 40 -12
v 12 40 -12
v -7 40 -13
v 7 40 -13
v -3 40 -16
v -2 40 -16
v 2 40 -16
v 3 40 -16
v -3 40 -17
v -2 40 -17
v 2 40 -17
v 3 40 -17
v -20 40 -20
v 20 40 -20

# faces
f 3/1/1 2/1/1 1/1/1
f 4/1/1 2/1/1 3/1/1
f 5/1/2 6/1/2 7/1/2
f 7/1/2 6/1/2 8/1/2
f 11/1/3 10/1/3 9/1/3
f 12/1/3 10/1/3 11/1/3
f 13/1/4 14/1/4 15/1/4
f 15/1/4 14/1/4 16/1/4
f 19/1/5 18/1/5 17/1/5
f 20/1/5 18/1/5 19/1/5
f 21/1/6 22/1/6 23/1/6
f 23/1/6 22/1/6 24/1/6
f 24/1/6 22/1/6 25/1/6
f 25/1/6 22/1/6 26/1/6
f 21/1/6 23/1/6 27/1/6
f 23/2/6 24/2/6 27/2/6
f 24/1/6 25/1/6 28/1/6
f 27/2/6 24/2/6 28/2/6
f 25/2/6 26/2/6 29/2/6
f 28/1/6 25/1/6 29/1/6
f 26/1/6 22/1/6 30/1/6
f 29/2/6 26/2/6 30/2/6
f 28/1/6 29/1/6 31/1/6
f 27/1/6 28/1/6 31/1/6
f 29/1/6 30/1/6 31/1/6
f 21/1/6 27/1/6 31/1/6
f 30/1/6 22/1/6 32/1/6
f 31/1/6 30/1/6 32/1/6
f 21/1/6 31/1/6 33/1/6
f 33/1/6 31/1/6 34/1/6
f 31/2/6 32/2/6 35/2/6
f 34/1/6 31/1/6 35/1/6
f 32/1/6 22/1/6 36/1/6
f 35/2/6 32/2/6 36/2/6
f 36/1/6 22/1/6 37/1/6
f 37/1/6 22/1/6 38/1/6
f 33/2/6 34/2/6 39/2/6
f 21/1/6 33/1/6 39/1/6
f 34/1/6 35/1/6 40/1/6
f 39/2/6 34/2/6 40/2/6
f 35/1/6 36/1/6 40/1/6
f 36/1/6 37/1/6 40/1/6
f 37/2/6 38/2/6 41/2/6
f 40/1/6 37/1/6 41/1/6
f 38/1/6 22/1/6 42/1/6
f 41/2/6 38/2/6 42/2/6
f 40/1/6 41/1/6 43/1/6
f 39/1/6 40/1/6 43/1/6
f 41/1/6 42/1/6 43/1/6
f 43/1/6 42/1/6 44/1/6
f 39/1/6 43/1/6 45/1/6
f 43/2/6 44/2/6 45/2/6
f 44/1/6 42/1/6 46/1/6
f 45/2/6 44/2/6 46/2/6
f 21/1/6 39/1/6 47/1/6
f 39/1/6 45/1/6 47/1/6
f 45/1/6 46/1/6 47/1/6
f 47/1/6 46/1/6 48/1/6
f 46/1/6 42/1/6 49/1/6
f 48/1/6 46/1/6 49/1/6
f 42/1/6 22/1/6 49/1/6
f 49/1/6 22/1/6 50/1/6
f 48/1/6 49/1/6 51/1/6
f 51/1/6 49/1/6 52/1/6
f 52/1/6 49/1/6 53/1/6
f 53/1/6 49/1/6 54/1/6
f 21/1/6 47/1/6 55/1/6
f 55/1/6 47/1/6 56/1/6
f 52/1/6 53/1/6 57/1/6
f 57/1/6 53/1/6 58/1/6
f 58/1/6 53/1/6 59/1/6
f 59/1/6 53/1/6 60/1/6
f 50/1/6 22/1/6 61/1/6
f 61/1/6 22/1/6 62/1/6
f 21/1/6 55/1/6 63/1/6
f 55/2/6 56/2/6 63/2/6
f 56/1/6 47/1/6 64/1/6
f 63/2/6 56/2/6 64/2/6
f 52/1/6 57/1/6 65/1/6
f 57/2/6 58/2/6 65/2/6
f 58/1/6 59/1/6 66/1/6
f 65/2/6 58/2/6 66/2/6
f 59/2/6 60/2/6 67/2/6
f 66/1/6 59/1/6 67/1/6
f 60/1/6 53/1/6 68/1/6
f 67/2/6 60/2/6 68/2/6
f 61/2/6 62/2/6 69/2/6
f 50/1/6 61/1/6 69/1/6
f 62/1/6 22/1/6 70/1/6
f 69/2/6 62/2/6 70/2/6
f 21/1/6 63/1/6 71/1/6
f 63/1/6 64/1/6 71/1/6
f 64/1/6 47/1/6 72/1/6
f 71/1/6 64/1/6 72/1/6
f 66/1/6 67/1/6 73/1/6
f 52/1/6 65/1/6 73/1/6
f 65/1/6 66/1/6 73/1/6
f 67/1/6 68/1/6 73/1/6
f 73/1/6 68/1/6 74/1/6
f 74/1/6 68/1/6 75/1/6
f 68/1/6 53/1/6 76/1/6
f 75/1/6 68/1/6 76/1/6
f 50/1/6 69/1/6 77/1/6
f 69/1/6 70/1/6 77/1/6
f 70/1/6 22/1/6 78/1/6
f 77/1/6 70/1/6 78/1/6
f 21/1/6 71/1/6 79/1/6
f 71/2/6 72/2/6 79/2/6
f 72/1/6 47/1/6 80/1/6
f 79/2/6 72/2/6 80/2/6
f 52/1/6 73/1/6 81/1/6
f 73/2/6 74/2/6 81/2/6
f 74/1/6 75/1/6 82/1/6
f 81/2/6 74/2/6 82/2/6
f 75/2/6 76/2/6 83/2/6
f 82/1/6 75/1/6 83/1/6
f 76/1/6 53/1/6 84/1/6
f 83/2/6 76/2/6 84/2/6
f 50/1/6 77/1/6 85/1/6
f 77/2/6 78/2/6 85/2/6
f 78/1/6 22/1/6 86/1/6
f 85/2/6 78/2/6 86/2/6
f 48/1/6 51/1/6 87/1/6
f 51/2/6 52/2/6 87/2/6
f 82/1/6 83/1/6 88/1/6
f 87/2/6 52/2/6 88/2/6
f 52/1/6 81/1/6 88/1/6
f 81/1/6 82/1/6 88/1/6
f 83/1/6 84/1/6 88/1/6
f 84/1/6 53/1/6 89/1/6
f 88/1/6 84/1/6 89/1/6
f 53/2/6 54/2/6 89/2/6
f 54/1/6 49/1/6 90/1/6
f 89/2/6 54/2/6 90/2/6
f 47/2/6 48/2/6 91/2/6
f 80/1/6 47/1/6 91/1/6
f 79/1/6 80/1/6 91/1/6
f 88/1/6 89/1/6 92/1/6
f 91/2/6 48/2/6 92/2/6
f 87/1/6 88/1/6 92/1/6
f 89/1/6 90/1/6 92/1/6
f 48/1/6 87/1/6 92/1/6
f 90/1/6 49/1/6 93/1/6
f 92/1/6 90/1/6 93/1/6
f 49/2/6 50/2/6 93/2/6
f 50/1/6 85/1/6 94/1/6
f 93/2/6 50/2/6 94/2/6
f 85/1/6 86/1/6 94/1/6
f 91/1/6 92/1/6 95/1/6
f 92/1/6 93/1/6 95/1/6
f 93/1/6 94/1/6 95/1/6
f 95/1/6 94/1/6 96/1/6
f 91/1/6 95/1/6 97/1/6
f 95/2/6 96/2/6 97/2/6
f 96/1/6 94/1/6 98/1/6
f 97/2/6 96/2/6 98/2/6
f 91/1/6 97/1/6 99/1/6
f 97/1/6 98/1/6 99/1/6
f 99/1/6 98/1/6 100/1/6
f 98/1/6 94/1/6 101/1/6
f 100/1/6 98/1/6 101/1/6
f 101/1/6 94/1/6 102/1/6
f 99/2/6 100/2/6 103/2/6
f 91/1/6 99/1/6 103/1/6
f 100/1/6 101/1/6 104/1/6
f 103/2/6 100/2/6 104/2/6
f 104/1/6 101/1/6 105/1/6
f 105/1/6 101/1/6 106/1/6
f 101/2/6 102/2/6 107/2/6
f 106/1/6 101/1/6 107/1/6
f 102/1/6 94/1/6 108/1/6
f 107/2/6 102/2/6 108/2/6
f 105/2/6 106/2/6 109/2/6
f 103/1/6 104/1/6 109/1/6
f 104/1/6 105/1/6 109/1/6
f 106/1/6 107/1/6 110/1/6
f 109/2/6 106/2/6 110/2/6
f 107/1/6 108/1/6 110/1/6
f 109/1/6 110/1/6 111/1/6
f 111/1/6 110/1/6 112/1/6
f 112/1/6 110/1/6 113/1/6
f 113/1/6 110/1/6 114/1/6
f 109/1/6 111/1/6 115/1/6
f 111/2/6 112/2/6 115/2/6
f 112/1/6 113/1/6 116/1/6
f 115/2/6 112/2/6 116/2/6
f 113/2/6 114/2/6 117/2/6
f 116/1/6 113/1/6 117/1/6
f 114/1/6 110/1/6 118/1/6
f 117/2/6 114/2/6 118/2/6
f 79/1/6 91/1/6 119/1/6
f 21/1/6 79/1/6 119/1/6
f 117/1/6 118/1/6 119/1/6
f 109/1/6 115/1/6 119/1/6
f 115/1/6 116/1/6 119/1/6
f 116/1/6 117/1/6 119/1/6
f 103/1/6 109/1/6 119/1/6
f 91/1/6 103/1/6 119/1/6
f 94/1/6 86/1/6 120/1/6
f 119/1/6 118/1/6 120/1/6
f 118/1/6 110/1/6 120/1/6
f 108/1/6 94/1/6 120/1/6
f 86/1/6 22/1/6 120/1/6
f 110/1/6 108/1/6 120/1/6
