# MagicaVoxel @ Ephtracy

# group
g ground

# material
mtllib ground.mtl
usemtl palette

# normals
vn -1 0 0
vn 1 0 0
vn 0 0 1
vn 0 0 -1
vn 0 -1 0
vn 0 1 0

# texcoords
vt 0.986328 0.5

# verts
v -20 0 20
v -20 0 -20
v -20 2 20
v -20 2 -20
v -18 0 19
v -18 0 18
v -18 1 19
v -18 1 18
v -18 1 -18
v -18 2 18
v -18 2 -18
v 19 0 19
v 19 0 18
v 19 1 18
v 19 1 -19
v 19 2 19
v 19 2 -19
v -19 0 19
v -19 0 18
v -19 1 18
v -19 1 -19
v -19 2 19
v -19 2 -19
v 18 0 19
v 18 0 18
v 18 1 19
v 18 1 18
v 18 1 -18
v 18 2 18
v 18 2 -18
v 20 0 20
v 20 0 -20
v 20 2 20
v 20 2 -20
v -20 0 20
v -20 2 20
v 20 0 20
v 20 2 20
v -19 0 18
v -19 1 18
v -18 0 18
v -18 1 18
v -18 2 18
v 18 0 18
v 18 1 18
v 18 2 18
v 19 0 18
v 19 1 18
v -19 1 -19
v -19 2 -19
v 19 1 -19
v 19 2 -19
v -19 0 19
v -19 2 19
v -18 0 19
v -18 1 19
v 18 0 19
v 18 1 19
v 19 0 19
v 19 2 19
v -18 1 -18
v -18 2 -18
v 18 1 -18
v 18 2 -18
v -20 0 -20
v -20 2 -20
v 20 0 -20
v 20 2 -20
v -20 0 20
v 20 0 20
v -19 0 19
v -18 0 19
v 18 0 19
v 19 0 19
v -19 0 18
v -18 0 18
v 18 0 18
v 19 0 18
v -20 0 -20
v 20 0 -20
v -18 1 19
v 18 1 19
v -19 1 18
v -18 1 18
v 18 1 18
v 19 1 18
v -18 1 -18
v 18 1 -18
v -19 1 -19
v 19 1 -19
v -20 2 20
v 20 2 20
v -19 2 19
v 19 2 19
v -18 2 18
v 18 2 18
v -18 2 -18
v 18 2 -18
v -19 2 -19
v 19 2 -19
v -20 2 -20
v 20 2 -20

# faces
f 3/1/1 2/1/1 1/1/1
f 4/1/1 2/1/1 3/1/1
f 7/1/1 6/1/1 5/1/1
f 8/1/1 6/1/1 7/1/1
f 10/1/1 9/1/1 8/1/1
f 11/1/1 9/1/1 10/1/1
f 14/1/1 13/1/1 12/1/1
f 16/1/1 14/1/1 12/1/1
f 16/1/1 15/1/1 14/1/1
f 17/1/1 15/1/1 16/1/1
f 18/1/2 19/1/2 20/1/2
f 18/1/2 20/1/2 22/1/2
f 20/1/2 21/1/2 22/1/2
f 22/1/2 21/1/2 23/1/2
f 24/1/2 25/1/2 26/1/2
f 26/1/2 25/1/2 27/1/2
f 27/1/2 28/1/2 29/1/2
f 29/1/2 28/1/2 30/1/2
f 31/1/2 32/1/2 33/1/2
f 33/1/2 32/1/2 34/1/2
f 37/1/3 36/1/3 35/1/3
f 38/1/3 36/1/3 37/1/3
f 41/1/3 40/1/3 39/1/3
f 42/1/3 40/1/3 41/1/3
f 45/1/3 43/1/3 42/1/3
f 46/1/3 43/1/3 45/1/3
f 47/1/3 45/1/3 44/1/3
f 48/1/3 45/1/3 47/1/3
f 51/1/3 50/1/3 49/1/3
f 52/1/3 50/1/3 51/1/3
f 53/1/4 54/1/4 55/1/4
f 55/1/4 54/1/4 56/1/4
f 56/1/4 54/1/4 58/1/4
f 57/1/4 58/1/4 59/1/4
f 58/1/4 54/1/4 60/1/4
f 59/1/4 58/1/4 60/1/4
f 61/1/4 62/1/4 63/1/4
f 63/1/4 62/1/4 64/1/4
f 65/1/4 66/1/4 67/1/4
f 67/1/4 66/1/4 68/1/4
f 71/1/5 70/1/5 69/1/5
f 72/1/5 70/1/5 71/1/5
f 73/1/5 70/1/5 72/1/5
f 74/1/5 70/1/5 73/1/5
f 75/1/5 71/1/5 69/1/5
f 76/1/5 73/1/5 72/1/5
f 77/1/5 73/1/5 76/1/5
f 78/1/5 70/1/5 74/1/5
f 79/1/5 77/1/5 76/1/5
f 79/1/5 78/1/5 77/1/5
f 79/1/5 75/1/5 69/1/5
f 79/1/5 76/1/5 75/1/5
f 80/1/5 70/1/5 78/1/5
f 80/1/5 78/1/5 79/1/5
f 81/1/6 82/1/6 84/1/6
f 84/1/6 82/1/6 85/1/6
f 83/1/6 84/1/6 87/1/6
f 85/1/6 86/1/6 88/1/6
f 83/1/6 87/1/6 89/1/6
f 87/1/6 88/1/6 89/1/6
f 88/1/6 86/1/6 90/1/6
f 89/1/6 88/1/6 90/1/6
f 91/1/6 92/1/6 93/1/6
f 93/1/6 92/1/6 94/1/6
f 95/1/6 96/1/6 97/1/6
f 97/1/6 96/1/6 98/1/6
f 91/1/6 93/1/6 99/1/6
f 94/1/6 92/1/6 100/1/6
f 91/1/6 99/1/6 101/1/6
f 99/1/6 100/1/6 101/1/6
f 100/1/6 92/1/6 102/1/6
f 101/1/6 100/1/6 102/1/6
