# Blender v2.82 (sub 7) OBJ File: ''
# www.blender.org
mtllib lamp.mtl
o ObjObject.001
v -0.250002 0.150001 0.337500
v -0.250002 -0.149999 0.137500
v -0.250002 -0.149999 0.337500
v -0.250002 0.150001 0.137500
v -0.150002 -0.149999 0.337500
v -0.150002 -0.249999 0.137500
v -0.150002 -0.249999 0.337500
v -0.150002 -0.149999 0.137500
v -0.150002 -0.049999 0.037500
v -0.150002 -0.149999 0.037500
v -0.150002 -0.049999 -0.062500
v -0.150002 -0.149999 -0.162500
v -0.150002 -0.149999 -0.062500
v -0.150002 -0.049999 -0.162500
v -0.150002 -0.049999 -0.262500
v -0.150002 -0.149999 -0.462500
v -0.150002 -0.149999 -0.262500
v -0.150002 0.050001 0.037500
v -0.150002 0.050001 -0.062500
v -0.150002 0.050001 -0.162500
v -0.150002 0.050001 -0.262500
v -0.150002 0.150001 0.137500
v -0.150002 0.150001 0.037500
v -0.150002 0.150001 -0.062500
v -0.150002 0.150001 -0.162500
v -0.150002 0.150001 -0.262500
v -0.150002 0.150001 -0.462500
v -0.150002 0.250001 0.337500
v -0.150002 0.150001 0.337500
v -0.150002 0.250001 0.137500
v -0.050002 -0.049999 0.037500
v -0.050002 -0.149999 -0.062500
v -0.050002 -0.149999 0.037500
v -0.050002 -0.049999 -0.062500
v -0.050002 -0.049999 -0.162500
v -0.050002 -0.149999 -0.262500
v -0.050002 -0.149999 -0.162500
v -0.050002 -0.049999 -0.262500
v -0.050002 0.150001 0.037500
v -0.050002 0.050001 -0.062500
v -0.050002 0.050001 0.037500
v -0.050002 0.150001 -0.062500
v -0.050002 0.150001 -0.162500
v -0.050002 0.050001 -0.262500
v -0.050002 0.050001 -0.162500
v -0.050002 0.150001 -0.262500
v 0.049998 0.050001 0.237500
v 0.049998 -0.049999 0.137500
v 0.049998 -0.049999 0.237500
v 0.049998 0.050001 0.137500
v 0.149998 0.150001 0.337500
v 0.149998 -0.149999 0.237500
v 0.149998 -0.149999 0.337500
v 0.149998 0.150001 0.237500
v -0.150002 -0.149999 0.337500
v -0.150002 -0.149999 0.237500
v -0.150002 0.150001 0.337500
v -0.150002 0.150001 0.237500
v -0.050002 -0.049999 0.237500
v -0.050002 -0.049999 0.137500
v -0.050002 0.050001 0.237500
v -0.050002 0.050001 0.137500
v 0.049998 -0.149999 0.037500
v 0.049998 -0.149999 -0.062500
v 0.049998 -0.049999 0.037500
v 0.049998 -0.049999 -0.062500
v 0.049998 -0.149999 -0.162500
v 0.049998 -0.149999 -0.262500
v 0.049998 -0.049999 -0.162500
v 0.049998 -0.049999 -0.262500
v 0.049998 0.050001 0.037500
v 0.049998 0.050001 -0.062500
v 0.049998 0.150001 0.037500
v 0.049998 0.150001 -0.062500
v 0.049998 0.050001 -0.162500
v 0.049998 0.050001 -0.262500
v 0.049998 0.150001 -0.162500
v 0.049998 0.150001 -0.262500
v 0.149998 -0.249999 0.337500
v 0.149998 -0.249999 0.137500
v 0.149998 -0.149999 0.337500
v 0.149998 -0.149999 0.137500
v 0.149998 -0.149999 0.037500
v 0.149998 -0.049999 0.037500
v 0.149998 -0.149999 -0.062500
v 0.149998 -0.149999 -0.162500
v 0.149998 -0.049999 -0.062500
v 0.149998 -0.049999 -0.162500
v 0.149998 -0.149999 -0.262500
v 0.149998 -0.149999 -0.462500
v 0.149998 -0.049999 -0.262500
v 0.149998 0.050001 0.037500
v 0.149998 0.050001 -0.062500
v 0.149998 0.050001 -0.162500
v 0.149998 0.050001 -0.262500
v 0.149998 0.150001 0.137500
v 0.149998 0.150001 0.037500
v 0.149998 0.150001 -0.062500
v 0.149998 0.150001 -0.162500
v 0.149998 0.150001 -0.262500
v 0.149998 0.150001 -0.462500
v 0.149998 0.150001 0.337500
v 0.149998 0.250001 0.337500
v 0.149998 0.250001 0.137500
v 0.249998 -0.149999 0.337500
v 0.249998 -0.149999 0.137500
v 0.249998 0.150001 0.337500
v 0.249998 0.150001 0.137500
v -0.150002 -0.149999 0.337500
v -0.250002 0.150001 0.337500
v -0.250002 -0.149999 0.337500
v -0.150002 0.150001 0.337500
v 0.149998 -0.249999 0.337500
v -0.150002 -0.249999 0.337500
v 0.149998 -0.149999 0.337500
v 0.149998 0.150001 0.337500
v -0.150002 0.250001 0.337500
v 0.149998 0.250001 0.337500
v 0.249998 -0.149999 0.337500
v 0.249998 0.150001 0.337500
v -0.050002 -0.049999 0.237500
v -0.150002 0.150001 0.237500
v -0.150002 -0.149999 0.237500
v -0.050002 0.050001 0.237500
v 0.049998 -0.049999 0.237500
v 0.049998 0.050001 0.237500
v 0.149998 -0.149999 0.237500
v 0.149998 0.150001 0.237500
v 0.049998 -0.049999 0.137500
v -0.050002 0.050001 0.137500
v -0.050002 -0.049999 0.137500
v 0.049998 0.050001 0.137500
v -0.050002 -0.149999 -0.062500
v -0.150002 -0.049999 -0.062500
v -0.150002 -0.149999 -0.062500
v -0.050002 -0.049999 -0.062500
v -0.050002 0.050001 -0.062500
v -0.150002 0.150001 -0.062500
v -0.150002 0.050001 -0.062500
v -0.050002 0.150001 -0.062500
v 0.149998 -0.149999 -0.062500
v 0.049998 -0.049999 -0.062500
v 0.049998 -0.149999 -0.062500
v 0.149998 -0.049999 -0.062500
v 0.149998 0.050001 -0.062500
v 0.049998 0.150001 -0.062500
v 0.049998 0.050001 -0.062500
v 0.149998 0.150001 -0.062500
v -0.050002 -0.149999 -0.262500
v -0.150002 -0.049999 -0.262500
v -0.150002 -0.149999 -0.262500
v -0.050002 -0.049999 -0.262500
v -0.050002 0.050001 -0.262500
v -0.150002 0.150001 -0.262500
v -0.150002 0.050001 -0.262500
v -0.050002 0.150001 -0.262500
v 0.149998 -0.149999 -0.262500
v 0.049998 -0.049999 -0.262500
v 0.049998 -0.149999 -0.262500
v 0.149998 -0.049999 -0.262500
v 0.149998 0.050001 -0.262500
v 0.049998 0.150001 -0.262500
v 0.049998 0.050001 -0.262500
v 0.149998 0.150001 -0.262500
v -0.250002 -0.149999 0.137500
v -0.250002 0.150001 0.137500
v -0.150002 -0.149999 0.137500
v -0.150002 0.150001 0.137500
v -0.150002 -0.249999 0.137500
v 0.149998 -0.249999 0.137500
v 0.149998 -0.149999 0.137500
v -0.150002 0.250001 0.137500
v 0.149998 0.150001 0.137500
v 0.149998 0.250001 0.137500
v 0.249998 -0.149999 0.137500
v 0.249998 0.150001 0.137500
v -0.150002 -0.149999 0.037500
v -0.150002 -0.049999 0.037500
v -0.050002 -0.149999 0.037500
v -0.050002 -0.049999 0.037500
v -0.150002 0.050001 0.037500
v -0.150002 0.150001 0.037500
v -0.050002 0.050001 0.037500
v -0.050002 0.150001 0.037500
v 0.049998 -0.149999 0.037500
v 0.049998 -0.049999 0.037500
v 0.149998 -0.149999 0.037500
v 0.149998 -0.049999 0.037500
v 0.049998 0.050001 0.037500
v 0.049998 0.150001 0.037500
v 0.149998 0.050001 0.037500
v 0.149998 0.150001 0.037500
v -0.150002 -0.149999 -0.162500
v -0.150002 -0.049999 -0.162500
v -0.050002 -0.149999 -0.162500
v -0.050002 -0.049999 -0.162500
v -0.150002 0.050001 -0.162500
v -0.150002 0.150001 -0.162500
v -0.050002 0.050001 -0.162500
v -0.050002 0.150001 -0.162500
v 0.049998 -0.149999 -0.162500
v 0.049998 -0.049999 -0.162500
v 0.149998 -0.149999 -0.162500
v 0.149998 -0.049999 -0.162500
v 0.049998 0.050001 -0.162500
v 0.049998 0.150001 -0.162500
v 0.149998 0.050001 -0.162500
v 0.149998 0.150001 -0.162500
v -0.150002 -0.149999 -0.462500
v -0.150002 0.150001 -0.462500
v 0.149998 -0.149999 -0.462500
v 0.149998 0.150001 -0.462500
v -0.150002 -0.249999 0.137500
v 0.149998 -0.249999 0.337500
v -0.150002 -0.249999 0.337500
v 0.149998 -0.249999 0.137500
v -0.250002 -0.149999 0.137500
v -0.150002 -0.149999 0.337500
v -0.250002 -0.149999 0.337500
v -0.150002 -0.149999 0.137500
v 0.149998 -0.149999 0.137500
v 0.249998 -0.149999 0.337500
v 0.149998 -0.149999 0.337500
v 0.249998 -0.149999 0.137500
v -0.150002 -0.149999 0.037500
v -0.050002 -0.149999 0.037500
v 0.049998 -0.149999 0.037500
v 0.149998 -0.149999 0.037500
v -0.050002 -0.149999 -0.062500
v 0.049998 -0.149999 -0.062500
v -0.150002 -0.149999 -0.162500
v -0.150002 -0.149999 -0.062500
v 0.149998 -0.149999 -0.062500
v -0.050002 -0.149999 -0.162500
v 0.049998 -0.149999 -0.162500
v 0.149998 -0.149999 -0.162500
v -0.050002 -0.149999 -0.262500
v 0.049998 -0.149999 -0.262500
v -0.150002 -0.149999 -0.462500
v -0.150002 -0.149999 -0.262500
v 0.149998 -0.149999 -0.262500
v 0.149998 -0.149999 -0.462500
v -0.150002 -0.049999 -0.062500
v -0.050002 -0.049999 0.037500
v -0.150002 -0.049999 0.037500
v -0.050002 -0.049999 -0.062500
v 0.049998 -0.049999 -0.062500
v 0.149998 -0.049999 0.037500
v 0.049998 -0.049999 0.037500
v 0.149998 -0.049999 -0.062500
v -0.150002 -0.049999 -0.262500
v -0.050002 -0.049999 -0.162500
v -0.150002 -0.049999 -0.162500
v -0.050002 -0.049999 -0.262500
v 0.049998 -0.049999 -0.262500
v 0.149998 -0.049999 -0.162500
v 0.049998 -0.049999 -0.162500
v 0.149998 -0.049999 -0.262500
v -0.050002 0.050001 0.137500
v 0.049998 0.050001 0.237500
v -0.050002 0.050001 0.237500
v 0.049998 0.050001 0.137500
v -0.150002 0.150001 0.237500
v 0.149998 0.150001 0.337500
v -0.150002 0.150001 0.337500
v 0.149998 0.150001 0.237500
v -0.150002 -0.149999 0.337500
v 0.149998 -0.149999 0.337500
v -0.150002 -0.149999 0.237500
v 0.149998 -0.149999 0.237500
v -0.050002 -0.049999 0.237500
v 0.049998 -0.049999 0.237500
v -0.050002 -0.049999 0.137500
v 0.049998 -0.049999 0.137500
v -0.150002 0.050001 0.037500
v -0.050002 0.050001 0.037500
v -0.150002 0.050001 -0.062500
v -0.050002 0.050001 -0.062500
v 0.049998 0.050001 0.037500
v 0.149998 0.050001 0.037500
v 0.049998 0.050001 -0.062500
v 0.149998 0.050001 -0.062500
v -0.150002 0.050001 -0.162500
v -0.050002 0.050001 -0.162500
v -0.150002 0.050001 -0.262500
v -0.050002 0.050001 -0.262500
v 0.049998 0.050001 -0.162500
v 0.149998 0.050001 -0.162500
v 0.049998 0.050001 -0.262500
v 0.149998 0.050001 -0.262500
v -0.250002 0.150001 0.337500
v -0.150002 0.150001 0.337500
v -0.250002 0.150001 0.137500
v -0.150002 0.150001 0.137500
v 0.149998 0.150001 0.337500
v 0.249998 0.150001 0.337500
v 0.149998 0.150001 0.137500
v 0.249998 0.150001 0.137500
v -0.150002 0.150001 0.037500
v -0.050002 0.150001 0.037500
v 0.049998 0.150001 0.037500
v 0.149998 0.150001 0.037500
v -0.050002 0.150001 -0.062500
v 0.049998 0.150001 -0.062500
v -0.150002 0.150001 -0.062500
v -0.150002 0.150001 -0.162500
v 0.149998 0.150001 -0.062500
v -0.050002 0.150001 -0.162500
v 0.049998 0.150001 -0.162500
v 0.149998 0.150001 -0.162500
v -0.050002 0.150001 -0.262500
v 0.049998 0.150001 -0.262500
v -0.150002 0.150001 -0.262500
v -0.150002 0.150001 -0.462500
v 0.149998 0.150001 -0.262500
v 0.149998 0.150001 -0.462500
v -0.150002 0.250001 0.337500
v 0.149998 0.250001 0.337500
v -0.150002 0.250001 0.137500
v 0.149998 0.250001 0.137500
vt 0.994141 0.500000
vt 0.994141 0.500000
vt 0.994141 0.500000
vt 0.994141 0.500000
vt 0.994141 0.500000
vt 0.994141 0.500000
vt 0.994141 0.500000
vt 0.994141 0.500000
vt 0.994141 0.500000
vt 0.994141 0.500000
vt 0.994141 0.500000
vt 0.994141 0.500000
vt 0.994141 0.500000
vt 0.994141 0.500000
vt 0.994141 0.500000
vt 0.994141 0.500000
vt 0.994141 0.500000
vt 0.994141 0.500000
vt 0.994141 0.500000
vt 0.994141 0.500000
vt 0.994141 0.500000
vt 0.994141 0.500000
vt 0.994141 0.500000
vt 0.994141 0.500000
vt 0.994141 0.500000
vt 0.994141 0.500000
vt 0.994141 0.500000
vt 0.994141 0.500000
vt 0.994141 0.500000
vt 0.994141 0.500000
vt 0.994141 0.500000
vt 0.994141 0.500000
vt 0.994141 0.500000
vt 0.994141 0.500000
vt 0.994141 0.500000
vt 0.994141 0.500000
vt 0.994141 0.500000
vt 0.994141 0.500000
vt 0.994141 0.500000
vt 0.994141 0.500000
vt 0.994141 0.500000
vt 0.994141 0.500000
vt 0.994141 0.500000
vt 0.994141 0.500000
vt 0.994141 0.500000
vt 0.994141 0.500000
vt 0.986328 0.500000
vt 0.986328 0.500000
vt 0.986328 0.500000
vt 0.986328 0.500000
vt 0.994141 0.500000
vt 0.994141 0.500000
vt 0.994141 0.500000
vt 0.994141 0.500000
vt 0.994141 0.500000
vt 0.994141 0.500000
vt 0.994141 0.500000
vt 0.994141 0.500000
vt 0.986328 0.500000
vt 0.986328 0.500000
vt 0.986328 0.500000
vt 0.986328 0.500000
vt 0.994141 0.500000
vt 0.994141 0.500000
vt 0.994141 0.500000
vt 0.994141 0.500000
vt 0.994141 0.500000
vt 0.994141 0.500000
vt 0.994141 0.500000
vt 0.994141 0.500000
vt 0.994141 0.500000
vt 0.994141 0.500000
vt 0.994141 0.500000
vt 0.994141 0.500000
vt 0.994141 0.500000
vt 0.994141 0.500000
vt 0.994141 0.500000
vt 0.994141 0.500000
vt 0.994141 0.500000
vt 0.994141 0.500000
vt 0.994141 0.500000
vt 0.994141 0.500000
vt 0.994141 0.500000
vt 0.994141 0.500000
vt 0.994141 0.500000
vt 0.994141 0.500000
vt 0.994141 0.500000
vt 0.994141 0.500000
vt 0.994141 0.500000
vt 0.994141 0.500000
vt 0.994141 0.500000
vt 0.994141 0.500000
vt 0.994141 0.500000
vt 0.994141 0.500000
vt 0.994141 0.500000
vt 0.994141 0.500000
vt 0.994141 0.500000
vt 0.994141 0.500000
vt 0.994141 0.500000
vt 0.994141 0.500000
vt 0.994141 0.500000
vt 0.994141 0.500000
vt 0.994141 0.500000
vt 0.994141 0.500000
vt 0.994141 0.500000
vt 0.994141 0.500000
vt 0.994141 0.500000
vt 0.994141 0.500000
vt 0.994141 0.500000
vt 0.994141 0.500000
vt 0.994141 0.500000
vt 0.994141 0.500000
vt 0.994141 0.500000
vt 0.994141 0.500000
vt 0.994141 0.500000
vt 0.994141 0.500000
vt 0.994141 0.500000
vt 0.994141 0.500000
vt 0.994141 0.500000
vt 0.994141 0.500000
vt 0.986328 0.500000
vt 0.986328 0.500000
vt 0.986328 0.500000
vt 0.986328 0.500000
vt 0.986328 0.500000
vt 0.986328 0.500000
vt 0.986328 0.500000
vt 0.986328 0.500000
vt 0.986328 0.500000
vt 0.986328 0.500000
vt 0.986328 0.500000
vt 0.986328 0.500000
vt 0.994141 0.500000
vt 0.994141 0.500000
vt 0.994141 0.500000
vt 0.994141 0.500000
vt 0.994141 0.500000
vt 0.994141 0.500000
vt 0.994141 0.500000
vt 0.994141 0.500000
vt 0.994141 0.500000
vt 0.994141 0.500000
vt 0.994141 0.500000
vt 0.994141 0.500000
vt 0.994141 0.500000
vt 0.994141 0.500000
vt 0.994141 0.500000
vt 0.994141 0.500000
vt 0.994141 0.500000
vt 0.994141 0.500000
vt 0.994141 0.500000
vt 0.994141 0.500000
vt 0.994141 0.500000
vt 0.994141 0.500000
vt 0.994141 0.500000
vt 0.994141 0.500000
vt 0.994141 0.500000
vt 0.994141 0.500000
vt 0.994141 0.500000
vt 0.994141 0.500000
vt 0.994141 0.500000
vt 0.994141 0.500000
vt 0.994141 0.500000
vt 0.994141 0.500000
vt 0.994141 0.500000
vt 0.994141 0.500000
vt 0.994141 0.500000
vt 0.994141 0.500000
vt 0.994141 0.500000
vt 0.994141 0.500000
vt 0.994141 0.500000
vt 0.994141 0.500000
vt 0.994141 0.500000
vt 0.994141 0.500000
vt 0.994141 0.500000
vt 0.994141 0.500000
vt 0.994141 0.500000
vt 0.994141 0.500000
vt 0.994141 0.500000
vt 0.994141 0.500000
vt 0.994141 0.500000
vt 0.994141 0.500000
vt 0.994141 0.500000
vt 0.994141 0.500000
vt 0.994141 0.500000
vt 0.994141 0.500000
vt 0.994141 0.500000
vt 0.994141 0.500000
vt 0.994141 0.500000
vt 0.994141 0.500000
vt 0.994141 0.500000
vt 0.994141 0.500000
vt 0.994141 0.500000
vt 0.994141 0.500000
vt 0.994141 0.500000
vt 0.994141 0.500000
vt 0.994141 0.500000
vt 0.994141 0.500000
vt 0.994141 0.500000
vt 0.994141 0.500000
vt 0.994141 0.500000
vt 0.994141 0.500000
vt 0.994141 0.500000
vt 0.994141 0.500000
vt 0.994141 0.500000
vt 0.994141 0.500000
vt 0.994141 0.500000
vt 0.994141 0.500000
vt 0.994141 0.500000
vt 0.994141 0.500000
vt 0.994141 0.500000
vt 0.994141 0.500000
vt 0.994141 0.500000
vt 0.994141 0.500000
vt 0.994141 0.500000
vt 0.994141 0.500000
vt 0.994141 0.500000
vt 0.994141 0.500000
vt 0.994141 0.500000
vt 0.994141 0.500000
vt 0.994141 0.500000
vt 0.994141 0.500000
vt 0.994141 0.500000
vt 0.994141 0.500000
vt 0.994141 0.500000
vt 0.994141 0.500000
vt 0.994141 0.500000
vt 0.994141 0.500000
vt 0.994141 0.500000
vt 0.994141 0.500000
vt 0.994141 0.500000
vt 0.994141 0.500000
vt 0.994141 0.500000
vt 0.994141 0.500000
vt 0.994141 0.500000
vt 0.994141 0.500000
vt 0.994141 0.500000
vt 0.994141 0.500000
vt 0.994141 0.500000
vt 0.994141 0.500000
vt 0.994141 0.500000
vt 0.994141 0.500000
vt 0.994141 0.500000
vt 0.994141 0.500000
vt 0.994141 0.500000
vt 0.994141 0.500000
vt 0.994141 0.500000
vt 0.994141 0.500000
vt 0.994141 0.500000
vt 0.994141 0.500000
vt 0.994141 0.500000
vt 0.994141 0.500000
vt 0.994141 0.500000
vt 0.994141 0.500000
vt 0.994141 0.500000
vt 0.994141 0.500000
vt 0.994141 0.500000
vt 0.994141 0.500000
vt 0.986328 0.500000
vt 0.986328 0.500000
vt 0.986328 0.500000
vt 0.986328 0.500000
vt 0.994141 0.500000
vt 0.994141 0.500000
vt 0.994141 0.500000
vt 0.994141 0.500000
vt 0.994141 0.500000
vt 0.994141 0.500000
vt 0.994141 0.500000
vt 0.994141 0.500000
vt 0.986328 0.500000
vt 0.986328 0.500000
vt 0.986328 0.500000
vt 0.986328 0.500000
vt 0.994141 0.500000
vt 0.994141 0.500000
vt 0.994141 0.500000
vt 0.994141 0.500000
vt 0.994141 0.500000
vt 0.994141 0.500000
vt 0.994141 0.500000
vt 0.994141 0.500000
vt 0.994141 0.500000
vt 0.994141 0.500000
vt 0.994141 0.500000
vt 0.994141 0.500000
vt 0.994141 0.500000
vt 0.994141 0.500000
vt 0.994141 0.500000
vt 0.994141 0.500000
vt 0.994141 0.500000
vt 0.994141 0.500000
vt 0.994141 0.500000
vt 0.994141 0.500000
vt 0.994141 0.500000
vt 0.994141 0.500000
vt 0.994141 0.500000
vt 0.994141 0.500000
vt 0.994141 0.500000
vt 0.994141 0.500000
vt 0.994141 0.500000
vt 0.994141 0.500000
vt 0.994141 0.500000
vt 0.994141 0.500000
vt 0.994141 0.500000
vt 0.994141 0.500000
vt 0.994141 0.500000
vt 0.994141 0.500000
vt 0.994141 0.500000
vt 0.994141 0.500000
vt 0.994141 0.500000
vt 0.994141 0.500000
vt 0.994141 0.500000
vt 0.994141 0.500000
vt 0.994141 0.500000
vt 0.994141 0.500000
vt 0.994141 0.500000
vt 0.994141 0.500000
vt 0.994141 0.500000
vt 0.994141 0.500000
vn -1.0000 0.0000 0.0000
vn 1.0000 -0.0000 0.0000
vn 0.0000 -0.0000 1.0000
vn 0.0000 0.0000 -1.0000
vn 0.0000 -1.0000 -0.0000
vn 0.0000 1.0000 0.0000
usemtl palette.001
s 1
f 1/1/1 2/2/1 3/3/1
f 4/4/1 2/2/1 1/1/1
f 5/5/1 6/6/1 7/7/1
f 8/8/1 6/6/1 5/5/1
f 9/9/1 10/10/1 8/8/1
f 11/11/1 12/12/1 13/13/1
f 14/14/1 12/12/1 11/11/1
f 15/15/1 16/16/1 17/17/1
f 18/18/1 14/14/1 11/11/1
f 18/18/1 15/15/1 14/14/1
f 18/18/1 9/9/1 8/8/1
f 18/18/1 11/11/1 9/9/1
f 19/19/1 15/15/1 18/18/1
f 20/20/1 15/15/1 19/19/1
f 21/21/1 16/16/1 15/15/1
f 21/21/1 15/15/1 20/20/1
f 22/22/1 18/18/1 8/8/1
f 23/23/1 18/18/1 22/22/1
f 24/24/1 20/20/1 19/19/1
f 25/25/1 20/20/1 24/24/1
f 26/26/1 16/16/1 21/21/1
f 27/27/1 16/16/1 26/26/1
f 28/28/1 22/22/1 29/29/1
f 30/30/1 22/22/1 28/28/1
f 31/31/1 32/32/1 33/33/1
f 34/34/1 32/32/1 31/31/1
f 35/35/1 36/36/1 37/37/1
f 38/38/1 36/36/1 35/35/1
f 39/39/1 40/40/1 41/41/1
f 42/42/1 40/40/1 39/39/1
f 43/43/1 44/44/1 45/45/1
f 46/46/1 44/44/1 43/43/1
f 47/47/1 48/48/1 49/49/1
f 50/50/1 48/48/1 47/47/1
f 51/51/1 52/52/1 53/53/1
f 54/54/1 52/52/1 51/51/1
f 55/55/2 56/56/2 57/57/2
f 57/57/2 56/56/2 58/58/2
f 59/59/2 60/60/2 61/61/2
f 61/61/2 60/60/2 62/62/2
f 63/63/2 64/64/2 65/65/2
f 65/65/2 64/64/2 66/66/2
f 67/67/2 68/68/2 69/69/2
f 69/69/2 68/68/2 70/70/2
f 71/71/2 72/72/2 73/73/2
f 73/73/2 72/72/2 74/74/2
f 75/75/2 76/76/2 77/77/2
f 77/77/2 76/76/2 78/78/2
f 79/79/2 80/80/2 81/81/2
f 81/81/2 80/80/2 82/82/2
f 82/82/2 83/83/2 84/84/2
f 85/85/2 86/86/2 87/87/2
f 87/87/2 86/86/2 88/88/2
f 89/89/2 90/90/2 91/91/2
f 87/87/2 88/88/2 92/92/2
f 88/88/2 91/91/2 92/92/2
f 82/82/2 84/84/2 92/92/2
f 84/84/2 87/87/2 92/92/2
f 92/92/2 91/91/2 93/93/2
f 93/93/2 91/91/2 94/94/2
f 91/91/2 90/90/2 95/95/2
f 94/94/2 91/91/2 95/95/2
f 82/82/2 92/92/2 96/96/2
f 96/96/2 92/92/2 97/97/2
f 93/93/2 94/94/2 98/98/2
f 98/98/2 94/94/2 99/99/2
f 95/95/2 90/90/2 100/100/2
f 100/100/2 90/90/2 101/101/2
f 102/102/2 96/96/2 103/103/2
f 103/103/2 96/96/2 104/104/2
f 105/105/2 106/106/2 107/107/2
f 107/107/2 106/106/2 108/108/2
f 109/109/3 110/110/3 111/111/3
f 112/112/3 110/110/3 109/109/3
f 113/113/3 109/109/3 114/114/3
f 115/115/3 109/109/3 113/113/3
f 116/116/3 117/117/3 112/112/3
f 118/118/3 117/117/3 116/116/3
f 119/119/3 116/116/3 115/115/3
f 120/120/3 116/116/3 119/119/3
f 121/121/3 122/122/3 123/123/3
f 124/124/3 122/122/3 121/121/3
f 125/125/3 121/121/3 123/123/3
f 126/126/3 122/122/3 124/124/3
f 127/127/3 125/125/3 123/123/3
f 127/127/3 126/126/3 125/125/3
f 128/128/3 122/122/3 126/126/3
f 128/128/3 126/126/3 127/127/3
f 129/129/3 130/130/3 131/131/3
f 132/132/3 130/130/3 129/129/3
f 133/133/3 134/134/3 135/135/3
f 136/136/3 134/134/3 133/133/3
f 137/137/3 138/138/3 139/139/3
f 140/140/3 138/138/3 137/137/3
f 141/141/3 142/142/3 143/143/3
f 144/144/3 142/142/3 141/141/3
f 145/145/3 146/146/3 147/147/3
f 148/148/3 146/146/3 145/145/3
f 149/149/3 150/150/3 151/151/3
f 152/152/3 150/150/3 149/149/3
f 153/153/3 154/154/3 155/155/3
f 156/156/3 154/154/3 153/153/3
f 157/157/3 158/158/3 159/159/3
f 160/160/3 158/158/3 157/157/3
f 161/161/3 162/162/3 163/163/3
f 164/164/3 162/162/3 161/161/3
f 165/165/4 166/166/4 167/167/4
f 167/167/4 166/166/4 168/168/4
f 169/169/4 167/167/4 170/170/4
f 170/170/4 167/167/4 171/171/4
f 168/168/4 172/172/4 173/173/4
f 173/173/4 172/172/4 174/174/4
f 171/171/4 173/173/4 175/175/4
f 175/175/4 173/173/4 176/176/4
f 177/177/4 178/178/4 179/179/4
f 179/179/4 178/178/4 180/180/4
f 181/181/4 182/182/4 183/183/4
f 183/183/4 182/182/4 184/184/4
f 185/185/4 186/186/4 187/187/4
f 187/187/4 186/186/4 188/188/4
f 189/189/4 190/190/4 191/191/4
f 191/191/4 190/190/4 192/192/4
f 193/193/4 194/194/4 195/195/4
f 195/195/4 194/194/4 196/196/4
f 197/197/4 198/198/4 199/199/4
f 199/199/4 198/198/4 200/200/4
f 201/201/4 202/202/4 203/203/4
f 203/203/4 202/202/4 204/204/4
f 205/205/4 206/206/4 207/207/4
f 207/207/4 206/206/4 208/208/4
f 209/209/4 210/210/4 211/211/4
f 211/211/4 210/210/4 212/212/4
f 213/213/5 214/214/5 215/215/5
f 216/216/5 214/214/5 213/213/5
f 217/217/5 218/218/5 219/219/5
f 220/220/5 218/218/5 217/217/5
f 221/221/5 222/222/5 223/223/5
f 224/224/5 222/222/5 221/221/5
f 225/225/5 221/221/5 220/220/5
f 226/226/5 221/221/5 225/225/5
f 227/227/5 221/221/5 226/226/5
f 228/228/5 221/221/5 227/227/5
f 229/229/5 227/227/5 226/226/5
f 230/230/5 227/227/5 229/229/5
f 231/231/5 229/229/5 232/232/5
f 231/231/5 233/233/5 230/230/5
f 231/231/5 230/230/5 229/229/5
f 234/234/5 233/233/5 231/231/5
f 235/235/5 233/233/5 234/234/5
f 236/236/5 233/233/5 235/235/5
f 237/237/5 235/235/5 234/234/5
f 238/238/5 235/235/5 237/237/5
f 239/239/5 237/237/5 240/240/5
f 239/239/5 241/241/5 238/238/5
f 239/239/5 238/238/5 237/237/5
f 242/242/5 241/241/5 239/239/5
f 243/243/5 244/244/5 245/245/5
f 246/246/5 244/244/5 243/243/5
f 247/247/5 248/248/5 249/249/5
f 250/250/5 248/248/5 247/247/5
f 251/251/5 252/252/5 253/253/5
f 254/254/5 252/252/5 251/251/5
f 255/255/5 256/256/5 257/257/5
f 258/258/5 256/256/5 255/255/5
f 259/259/5 260/260/5 261/261/5
f 262/262/5 260/260/5 259/259/5
f 263/263/5 264/264/5 265/265/5
f 266/266/5 264/264/5 263/263/5
f 267/267/6 268/268/6 269/269/6
f 269/269/6 268/268/6 270/270/6
f 271/271/6 272/272/6 273/273/6
f 273/273/6 272/272/6 274/274/6
f 275/275/6 276/276/6 277/277/6
f 277/277/6 276/276/6 278/278/6
f 279/279/6 280/280/6 281/281/6
f 281/281/6 280/280/6 282/282/6
f 283/283/6 284/284/6 285/285/6
f 285/285/6 284/284/6 286/286/6
f 287/287/6 288/288/6 289/289/6
f 289/289/6 288/288/6 290/290/6
f 291/291/6 292/292/6 293/293/6
f 293/293/6 292/292/6 294/294/6
f 295/295/6 296/296/6 297/297/6
f 297/297/6 296/296/6 298/298/6
f 294/294/6 297/297/6 299/299/6
f 299/299/6 297/297/6 300/300/6
f 300/300/6 297/297/6 301/301/6
f 301/301/6 297/297/6 302/302/6
f 300/300/6 301/301/6 303/303/6
f 303/303/6 301/301/6 304/304/6
f 305/305/6 303/303/6 306/306/6
f 304/304/6 307/307/6 306/306/6
f 303/303/6 304/304/6 306/306/6
f 306/306/6 307/307/6 308/308/6
f 308/308/6 307/307/6 309/309/6
f 309/309/6 307/307/6 310/310/6
f 308/308/6 309/309/6 311/311/6
f 311/311/6 309/309/6 312/312/6
f 313/313/6 311/311/6 314/314/6
f 312/312/6 315/315/6 314/314/6
f 311/311/6 312/312/6 314/314/6
f 314/314/6 315/315/6 316/316/6
f 317/317/6 318/318/6 319/319/6
f 319/319/6 318/318/6 320/320/6
