# This file was created with Minddesk Qubicle 3.0
# Get Qubicle at www.getqubicle.com

mtllib pillar.mtl

vn 0.0 0.0 1.0
vn 0.0 0.0 -1.0
vn -1.0 0.0 0.0
vn 1.0 0.0 0.0
vn 0.0 1.0 0.0
vn 0.0 -1.0 0.0

v 5.00000 31.00000 -5.00000
v 5.00000 9.00000 -5.00000
v -5.00000 9.00000 -5.00000
v -5.00000 31.00000 -5.00000
v 6.00000 9.00000 -6.00000
v 6.00000 0.00000 -6.00000
v -6.00000 0.00000 -6.00000
v -6.00000 9.00000 -6.00000
v 6.00000 40.00000 -6.00000
v 6.00000 31.00000 -6.00000
v -6.00000 31.00000 -6.00000
v -6.00000 40.00000 -6.00000
v -5.00000 31.00000 5.00000
v -5.00000 9.00000 5.00000
v 5.00000 9.00000 5.00000
v 5.00000 31.00000 5.00000
v -6.00000 9.00000 6.00000
v -6.00000 0.00000 6.00000
v 6.00000 0.00000 6.00000
v 6.00000 9.00000 6.00000
v -6.00000 40.00000 6.00000
v -6.00000 31.00000 6.00000
v 6.00000 31.00000 6.00000
v 6.00000 40.00000 6.00000
v -6.00000 9.00000 -5.00000
v -6.00000 9.00000 5.00000
v 6.00000 9.00000 5.00000
v 6.00000 9.00000 -5.00000
v -6.00000 31.00000 5.00000
v -6.00000 31.00000 -5.00000
v 6.00000 31.00000 -5.00000
v 6.00000 31.00000 5.00000

vt 0.01563 0.35938
vt 0.01563 0.01563
vt 0.17188 0.01563
vt 0.17188 0.35938
vt 0.20313 0.35938
vt 0.20313 0.01563
vt 0.35938 0.01563
vt 0.35938 0.35938
vt 0.39063 0.35938
vt 0.39063 0.01563
vt 0.54688 0.01563
vt 0.54688 0.35938
vt 0.57813 0.35938
vt 0.57813 0.01563
vt 0.73438 0.01563
vt 0.73438 0.35938
vt 0.76563 0.20313
vt 0.76563 0.01563
vt 0.95313 0.01563
vt 0.95313 0.20313
vt 0.01563 0.57813
vt 0.01563 0.39063
vt 0.20313 0.39063
vt 0.20313 0.57813
vt 0.23438 0.54688
vt 0.23438 0.39063
vt 0.25000 0.39063
vt 0.25000 0.54688
vt 0.28125 0.54688
vt 0.28125 0.39063
vt 0.29688 0.39063
vt 0.29688 0.54688
vt 0.32813 0.54688
vt 0.32813 0.39063
vt 0.34375 0.39063
vt 0.34375 0.54688
vt 0.37500 0.54688
vt 0.37500 0.39063
vt 0.39063 0.39063
vt 0.39063 0.54688
vt 0.42188 0.53125
vt 0.42188 0.39063
vt 0.60938 0.39063
vt 0.60938 0.53125
vt 0.64063 0.53125
vt 0.64063 0.39063
vt 0.82813 0.39063
vt 0.82813 0.53125
vt 0.01563 0.75000
vt 0.01563 0.60938
vt 0.20313 0.60938
vt 0.20313 0.75000
vt 0.23438 0.75000
vt 0.23438 0.60938
vt 0.42188 0.60938
vt 0.42188 0.75000
vt 0.45313 0.75000
vt 0.45313 0.60938
vt 0.64063 0.60938
vt 0.64063 0.75000
vt 0.67188 0.75000
vt 0.67188 0.60938
vt 0.85938 0.60938
vt 0.85938 0.75000
vt 0.01563 0.92188
vt 0.01563 0.78125
vt 0.20313 0.78125
vt 0.20313 0.92188
vt 0.23438 0.92188
vt 0.23438 0.78125
vt 0.42188 0.78125
vt 0.42188 0.92188
vt 0.76563 0.25000
vt 0.76563 0.23438
vt 0.95313 0.23438
vt 0.95313 0.25000
vt 0.76563 0.29688
vt 0.76563 0.28125
vt 0.95313 0.28125
vt 0.95313 0.29688
vt 0.76563 0.34375
vt 0.76563 0.32813
vt 0.95313 0.32813
vt 0.95313 0.34375
vt 0.45313 0.79688
vt 0.45313 0.78125
vt 0.64063 0.78125
vt 0.64063 0.79688

g pillar
usemtl pillar_Material
f 1/9/2 2/10/2 3/11/2 4/12/2
f 5/41/2 6/42/2 7/43/2 8/44/2
f 9/49/2 10/50/2 11/51/2 12/52/2
f 13/5/1 14/6/1 15/7/1 16/8/1
f 17/53/1 18/54/1 19/55/1 20/56/1
f 21/45/1 22/46/1 23/47/1 24/48/1
f 4/13/3 3/14/3 14/15/3 13/16/3
f 8/57/3 7/58/3 18/59/3 17/60/3
f 12/69/3 11/70/3 22/71/3 21/72/3
f 16/1/4 15/2/4 2/3/4 1/4/4
f 20/65/4 19/66/4 6/67/4 5/68/4
f 24/61/4 23/62/4 10/63/4 9/64/4
f 12/21/5 21/22/5 24/23/5 9/24/5
f 25/25/5 26/26/5 14/27/5 3/28/5
f 2/29/5 15/30/5 27/31/5 28/32/5
f 8/81/5 25/82/5 28/83/5 5/84/5
f 26/85/5 17/86/5 20/87/5 27/88/5
f 18/17/6 7/18/6 6/19/6 19/20/6
f 29/37/6 30/38/6 4/39/6 13/40/6
f 16/33/6 1/34/6 31/35/6 32/36/6
f 30/73/6 11/74/6 10/75/6 31/76/6
f 22/77/6 29/78/6 32/79/6 23/80/6
