# MagicaVoxel @ Ephtracy

# group
g ramp

# material
mtllib ramp.mtl
usemtl palette

# normals
vn -1 0 0
vn 1 0 0
vn 0 0 1
vn 0 0 -1
vn 0 -1 0
vn 0 1 0

# texcoords
vt 0.986328 0.5

# verts
v -40 0 20
v -40 0 -20
v -40 40 20
v -40 40 -20
v -37 39 20
v -37 39 -20
v -37 40 20
v -37 40 -20
v -33 37 20
v -33 37 -20
v -33 39 20
v -33 39 -20
v -29 35 20
v -29 35 -20
v -29 37 20
v -29 37 -20
v -25 33 20
v -25 33 -20
v -25 35 20
v -25 35 -20
v -21 31 20
v -21 31 -20
v -21 33 20
v -21 33 -20
v -17 29 20
v -17 29 -20
v -17 31 20
v -17 31 -20
v -13 27 20
v -13 27 -20
v -13 29 20
v -13 29 -20
v -9 25 20
v -9 25 -20
v -9 27 20
v -9 27 -20
v -5 23 20
v -5 23 -20
v -5 25 20
v -5 25 -20
v -1 21 20
v -1 21 -20
v -1 23 20
v -1 23 -20
v 4 19 20
v 4 19 -20
v 4 21 20
v 4 21 -20
v 8 17 20
v 8 17 -20
v 8 19 20
v 8 19 -20
v 12 15 20
v 12 15 -20
v 12 17 20
v 12 17 -20
v 16 13 20
v 16 13 -20
v 16 15 20
v 16 15 -20
v 20 11 20
v 20 11 -20
v 20 13 20
v 20 13 -20
v 24 9 20
v 24 9 -20
v 24 11 20
v 24 11 -20
v 28 7 20
v 28 7 -20
v 28 9 20
v 28 9 -20
v 32 5 20
v 32 5 -20
v 32 7 20
v 32 7 -20
v 36 3 20
v 36 3 -20
v 36 5 20
v 36 5 -20
v 40 0 20
v 40 0 -20
v 40 3 20
v 40 3 -20
v -40 0 20
v -40 40 20
v -37 39 20
v -37 40 20
v -33 37 20
v -33 39 20
v -29 35 20
v -29 37 20
v -25 33 20
v -25 35 20
v -21 31 20
v -21 33 20
v -17 29 20
v -17 31 20
v -13 27 20
v -13 29 20
v -9 25 20
v -9 27 20
v -5 23 20
v -5 25 20
v -1 21 20
v -1 23 20
v 4 19 20
v 4 21 20
v 8 17 20
v 8 19 20
v 12 15 20
v 12 17 20
v 16 13 20
v 16 15 20
v 20 11 20
v 20 13 20
v 24 9 20
v 24 11 20
v 28 7 20
v 28 9 20
v 32 5 20
v 32 7 20
v 36 3 20
v 36 5 20
v 40 0 20
v 40 3 20
v -40 0 -20
v -40 40 -20
v -37 39 -20
v -37 40 -20
v -33 37 -20
v -33 39 -20
v -29 35 -20
v -29 37 -20
v -25 33 -20
v -25 35 -20
v -21 31 -20
v -21 33 -20
v -17 29 -20
v -17 31 -20
v -13 27 -20
v -13 29 -20
v -9 25 -20
v -9 27 -20
v -5 23 -20
v -5 25 -20
v -1 21 -20
v -1 23 -20
v 4 19 -20
v 4 21 -20
v 8 17 -20
v 8 19 -20
v 12 15 -20
v 12 17 -20
v 16 13 -20
v 16 15 -20
v 20 11 -20
v 20 13 -20
v 24 9 -20
v 24 11 -20
v 28 7 -20
v 28 9 -20
v 32 5 -20
v 32 7 -20
v 36 3 -20
v 36 5 -20
v 40 0 -20
v 40 3 -20
v -40 0 20
v 40 0 20
v -40 0 -20
v 40 0 -20
v 36 3 20
v 40 3 20
v 36 3 -20
v 40 3 -20
v 32 5 20
v 36 5 20
v 32 5 -20
v 36 5 -20
v 28 7 20
v 32 7 20
v 28 7 -20
v 32 7 -20
v 24 9 20
v 28 9 20
v 24 9 -20
v 28 9 -20
v 20 11 20
v 24 11 20
v 20 11 -20
v 24 11 -20
v 16 13 20
v 20 13 20
v 16 13 -20
v 20 13 -20
v 12 15 20
v 16 15 20
v 12 15 -20
v 16 15 -20
v 8 17 20
v 12 17 20
v 8 17 -20
v 12 17 -20
v 4 19 20
v 8 19 20
v 4 19 -20
v 8 19 -20
v -1 21 20
v 4 21 20
v -1 21 -20
v 4 21 -20
v -5 23 20
v -1 23 20
v -5 23 -20
v -1 23 -20
v -9 25 20
v -5 25 20
v -9 25 -20
v -5 25 -20
v -13 27 20
v -9 27 20
v -13 27 -20
v -9 27 -20
v -17 29 20
v -13 29 20
v -17 29 -20
v -13 29 -20
v -21 31 20
v -17 31 20
v -21 31 -20
v -17 31 -20
v -25 33 20
v -21 33 20
v -25 33 -20
v -21 33 -20
v -29 35 20
v -25 35 20
v -29 35 -20
v -25 35 -20
v -33 37 20
v -29 37 20
v -33 37 -20
v -29 37 -20
v -37 39 20
v -33 39 20
v -37 39 -20
v -33 39 -20
v -40 40 20
v -37 40 20
v -40 40 -20
v -37 40 -20

# faces
f 3/1/1 2/1/1 1/1/1
f 4/1/1 2/1/1 3/1/1
f 5/1/2 6/1/2 7/1/2
f 7/1/2 6/1/2 8/1/2
f 9/1/2 10/1/2 11/1/2
f 11/1/2 10/1/2 12/1/2
f 13/1/2 14/1/2 15/1/2
f 15/1/2 14/1/2 16/1/2
f 17/1/2 18/1/2 19/1/2
f 19/1/2 18/1/2 20/1/2
f 21/1/2 22/1/2 23/1/2
f 23/1/2 22/1/2 24/1/2
f 25/1/2 26/1/2 27/1/2
f 27/1/2 26/1/2 28/1/2
f 29/1/2 30/1/2 31/1/2
f 31/1/2 30/1/2 32/1/2
f 33/1/2 34/1/2 35/1/2
f 35/1/2 34/1/2 36/1/2
f 37/1/2 38/1/2 39/1/2
f 39/1/2 38/1/2 40/1/2
f 41/1/2 42/1/2 43/1/2
f 43/1/2 42/1/2 44/1/2
f 45/1/2 46/1/2 47/1/2
f 47/1/2 46/1/2 48/1/2
f 49/1/2 50/1/2 51/1/2
f 51/1/2 50/1/2 52/1/2
f 53/1/2 54/1/2 55/1/2
f 55/1/2 54/1/2 56/1/2
f 57/1/2 58/1/2 59/1/2
f 59/1/2 58/1/2 60/1/2
f 61/1/2 62/1/2 63/1/2
f 63/1/2 62/1/2 64/1/2
f 65/1/2 66/1/2 67/1/2
f 67/1/2 66/1/2 68/1/2
f 69/1/2 70/1/2 71/1/2
f 71/1/2 70/1/2 72/1/2
f 73/1/2 74/1/2 75/1/2
f 75/1/2 74/1/2 76/1/2
f 77/1/2 78/1/2 79/1/2
f 79/1/2 78/1/2 80/1/2
f 81/1/2 82/1/2 83/1/2
f 83/1/2 82/1/2 84/1/2
f 87/1/3 86/1/3 85/1/3
f 88/1/3 86/1/3 87/1/3
f 89/1/3 87/1/3 85/1/3
f 90/1/3 87/1/3 89/1/3
f 91/1/3 89/1/3 85/1/3
f 92/1/3 89/1/3 91/1/3
f 93/1/3 91/1/3 85/1/3
f 94/1/3 91/1/3 93/1/3
f 95/1/3 93/1/3 85/1/3
f 96/1/3 93/1/3 95/1/3
f 97/1/3 95/1/3 85/1/3
f 98/1/3 95/1/3 97/1/3
f 99/1/3 97/1/3 85/1/3
f 100/1/3 97/1/3 99/1/3
f 101/1/3 99/1/3 85/1/3
f 102/1/3 99/1/3 101/1/3
f 103/1/3 101/1/3 85/1/3
f 104/1/3 101/1/3 103/1/3
f 105/1/3 103/1/3 85/1/3
f 106/1/3 103/1/3 105/1/3
f 107/1/3 105/1/3 85/1/3
f 108/1/3 105/1/3 107/1/3
f 109/1/3 107/1/3 85/1/3
f 110/1/3 107/1/3 109/1/3
f 111/1/3 109/1/3 85/1/3
f 112/1/3 109/1/3 111/1/3
f 113/1/3 111/1/3 85/1/3
f 114/1/3 111/1/3 113/1/3
f 115/1/3 113/1/3 85/1/3
f 116/1/3 113/1/3 115/1/3
f 117/1/3 115/1/3 85/1/3
f 118/1/3 115/1/3 117/1/3
f 119/1/3 117/1/3 85/1/3
f 120/1/3 117/1/3 119/1/3
f 121/1/3 119/1/3 85/1/3
f 122/1/3 119/1/3 121/1/3
f 123/1/3 121/1/3 85/1/3
f 124/1/3 121/1/3 123/1/3
f 125/1/3 123/1/3 85/1/3
f 126/1/3 123/1/3 125/1/3
f 127/1/4 128/1/4 129/1/4
f 129/1/4 128/1/4 130/1/4
f 127/1/4 129/1/4 131/1/4
f 131/1/4 129/1/4 132/1/4
f 127/1/4 131/1/4 133/1/4
f 133/1/4 131/1/4 134/1/4
f 127/1/4 133/1/4 135/1/4
f 135/1/4 133/1/4 136/1/4
f 127/1/4 135/1/4 137/1/4
f 137/1/4 135/1/4 138/1/4
f 127/1/4 137/1/4 139/1/4
f 139/1/4 137/1/4 140/1/4
f 127/1/4 139/1/4 141/1/4
f 141/1/4 139/1/4 142/1/4
f 127/1/4 141/1/4 143/1/4
f 143/1/4 141/1/4 144/1/4
f 127/1/4 143/1/4 145/1/4
f 145/1/4 143/1/4 146/1/4
f 127/1/4 145/1/4 147/1/4
f 147/1/4 145/1/4 148/1/4
f 127/1/4 147/1/4 149/1/4
f 149/1/4 147/1/4 150/1/4
f 127/1/4 149/1/4 151/1/4
f 151/1/4 149/1/4 152/1/4
f 127/1/4 151/1/4 153/1/4
f 153/1/4 151/1/4 154/1/4
f 127/1/4 153/1/4 155/1/4
f 155/1/4 153/1/4 156/1/4
f 127/1/4 155/1/4 157/1/4
f 157/1/4 155/1/4 158/1/4
f 127/1/4 157/1/4 159/1/4
f 159/1/4 157/1/4 160/1/4
f 127/1/4 159/1/4 161/1/4
f 161/1/4 159/1/4 162/1/4
f 127/1/4 161/1/4 163/1/4
f 163/1/4 161/1/4 164/1/4
f 127/1/4 163/1/4 165/1/4
f 165/1/4 163/1/4 166/1/4
f 127/1/4 165/1/4 167/1/4
f 167/1/4 165/1/4 168/1/4
f 171/1/5 170/1/5 169/1/5
f 172/1/5 170/1/5 171/1/5
f 173/1/6 174/1/6 175/1/6
f 175/1/6 174/1/6 176/1/6
f 177/1/6 178/1/6 179/1/6
f 179/1/6 178/1/6 180/1/6
f 181/1/6 182/1/6 183/1/6
f 183/1/6 182/1/6 184/1/6
f 185/1/6 186/1/6 187/1/6
f 187/1/6 186/1/6 188/1/6
f 189/1/6 190/1/6 191/1/6
f 191/1/6 190/1/6 192/1/6
f 193/1/6 194/1/6 195/1/6
f 195/1/6 194/1/6 196/1/6
f 197/1/6 198/1/6 199/1/6
f 199/1/6 198/1/6 200/1/6
f 201/1/6 202/1/6 203/1/6
f 203/1/6 202/1/6 204/1/6
f 205/1/6 206/1/6 207/1/6
f 207/1/6 206/1/6 208/1/6
f 209/1/6 210/1/6 211/1/6
f 211/1/6 210/1/6 212/1/6
f 213/1/6 214/1/6 215/1/6
f 215/1/6 214/1/6 216/1/6
f 217/1/6 218/1/6 219/1/6
f 219/1/6 218/1/6 220/1/6
f 221/1/6 222/1/6 223/1/6
f 223/1/6 222/1/6 224/1/6
f 225/1/6 226/1/6 227/1/6
f 227/1/6 226/1/6 228/1/6
f 229/1/6 230/1/6 231/1/6
f 231/1/6 230/1/6 232/1/6
f 233/1/6 234/1/6 235/1/6
f 235/1/6 234/1/6 236/1/6
f 237/1/6 238/1/6 239/1/6
f 239/1/6 238/1/6 240/1/6
f 241/1/6 242/1/6 243/1/6
f 243/1/6 242/1/6 244/1/6
f 245/1/6 246/1/6 247/1/6
f 247/1/6 246/1/6 248/1/6
f 249/1/6 250/1/6 251/1/6
f 251/1/6 250/1/6 252/1/6
