# MagicaVoxel @ Ephtracy

# group
g wall window

# material
mtllib wall window.mtl
usemtl palette

# normals
vn -1 0 0
vn 1 0 0
vn 0 0 1
vn 0 0 -1
vn 0 -1 0
vn 0 1 0

# texcoords
vt 0.791016 0.5
vt 0.970703 0.5
vt 0.986328 0.5
vt 0.994141 0.5

# verts
v -4 0 20
v -4 0 -20
v -4 1 19
v -4 1 18
v -4 1 6
v -4 1 5
v -4 1 -5
v -4 1 -6
v -4 1 -18
v -4 1 -19
v -4 2 19
v -4 2 18
v -4 2 6
v -4 2 5
v -4 2 -5
v -4 2 -6
v -4 2 -18
v -4 2 -19
v -4 9 11
v -4 9 -11
v -4 12 19
v -4 12 18
v -4 12 -18
v -4 12 -19
v -4 13 19
v -4 13 18
v -4 13 -18
v -4 13 -19
v -4 14 20
v -4 14 11
v -4 14 -11
v -4 14 -20
v -4 36 20
v -4 36 -20
v -4 38 19
v -4 38 18
v -4 38 -18
v -4 38 -19
v -4 39 19
v -4 39 18
v -4 39 -18
v -4 39 -19
v -4 40 20
v -4 40 -20
v -3 1 19
v -3 1 18
v -3 1 6
v -3 1 5
v -3 1 -5
v -3 1 -6
v -3 1 -18
v -3 1 -19
v -3 2 19
v -3 2 18
v -3 2 6
v -3 2 5
v -3 2 -5
v -3 2 -6
v -3 2 -18
v -3 2 -19
v -3 12 19
v -3 12 18
v -3 12 -18
v -3 12 -19
v -3 13 19
v -3 13 18
v -3 13 -18
v -3 13 -19
v -3 14 20
v -3 14 11
v -3 14 -11
v -3 14 -20
v -3 15 20
v -3 15 11
v -3 15 -11
v -3 15 -20
v -3 35 20
v -3 35 -20
v -3 36 20
v -3 36 -20
v -3 38 19
v -3 38 18
v -3 38 -18
v -3 38 -19
v -3 39 19
v -3 39 18
v -3 39 -18
v -3 39 -19
v -2 5 11
v -2 5 10
v -2 5 -10
v -2 5 -11
v -2 6 11
v -2 6 10
v -2 6 -10
v -2 6 -11
v -2 15 20
v -2 15 11
v -2 15 -11
v -2 15 -20
v -2 27 10
v -2 27 -10
v -2 35 20
v -2 35 11
v -2 35 10
v -2 35 -10
v -2 35 -11
v -2 35 -20
v -1 9 11
v -1 9 -11
v -1 10 10
v -1 10 -10
v -1 26 10
v -1 26 -10
v -1 27 10
v -1 27 -10
v -1 35 11
v -1 35 10
v -1 35 -10
v -1 35 -11
v 3 5 11
v 3 5 10
v 3 5 -10
v 3 5 -11
v 3 6 11
v 3 6 10
v 3 6 -10
v 3 6 -11
v -3 5 11
v -3 5 10
v -3 5 -10
v -3 5 -11
v -3 6 11
v -3 6 10
v -3 6 -10
v -3 6 -11
v 1 9 11
v 1 9 -11
v 1 10 10
v 1 10 -10
v 1 26 10
v 1 26 -10
v 1 27 10
v 1 27 -10
v 1 35 11
v 1 35 10
v 1 35 -10
v 1 35 -11
v 2 5 11
v 2 5 10
v 2 5 -10
v 2 5 -11
v 2 6 11
v 2 6 10
v 2 6 -10
v 2 6 -11
v 2 15 20
v 2 15 11
v 2 15 -11
v 2 15 -20
v 2 27 10
v 2 27 -10
v 2 35 20
v 2 35 11
v 2 35 10
v 2 35 -10
v 2 35 -11
v 2 35 -20
v 3 1 19
v 3 1 18
v 3 1 6
v 3 1 5
v 3 1 -5
v 3 1 -6
v 3 1 -18
v 3 1 -19
v 3 2 19
v 3 2 18
v 3 2 6
v 3 2 5
v 3 2 -5
v 3 2 -6
v 3 2 -18
v 3 2 -19
v 3 12 19
v 3 12 18
v 3 12 -18
v 3 12 -19
v 3 13 19
v 3 13 18
v 3 13 -18
v 3 13 -19
v 3 14 20
v 3 14 11
v 3 14 -11
v 3 14 -20
v 3 15 20
v 3 15 11
v 3 15 -11
v 3 15 -20
v 3 35 20
v 3 35 -20
v 3 36 20
v 3 36 -20
v 3 38 19
v 3 38 18
v 3 38 -18
v 3 38 -19
v 3 39 19
v 3 39 18
v 3 39 -18
v 3 39 -19
v 4 0 20
v 4 0 -20
v 4 1 19
v 4 1 18
v 4 1 6
v 4 1 5
v 4 1 -5
v 4 1 -6
v 4 1 -18
v 4 1 -19
v 4 2 19
v 4 2 18
v 4 2 6
v 4 2 5
v 4 2 -5
v 4 2 -6
v 4 2 -18
v 4 2 -19
v 4 9 11
v 4 9 -11
v 4 12 19
v 4 12 18
v 4 12 -18
v 4 12 -19
v 4 13 19
v 4 13 18
v 4 13 -18
v 4 13 -19
v 4 14 20
v 4 14 11
v 4 14 -11
v 4 14 -20
v 4 36 20
v 4 36 -20
v 4 38 19
v 4 38 18
v 4 38 -18
v 4 38 -19
v 4 39 19
v 4 39 18
v 4 39 -18
v 4 39 -19
v 4 40 20
v 4 40 -20
v -4 0 20
v -4 14 20
v -4 36 20
v -4 40 20
v -3 14 20
v -3 15 20
v -3 35 20
v -3 36 20
v -3 40 20
v -2 0 20
v -2 14 20
v -2 15 20
v -2 35 20
v -2 36 20
v 2 0 20
v 2 14 20
v 2 15 20
v 2 35 20
v 2 36 20
v 3 14 20
v 3 15 20
v 3 35 20
v 3 36 20
v 3 40 20
v 4 0 20
v 4 14 20
v 4 36 20
v 4 40 20
v -4 1 18
v -4 2 18
v -4 12 18
v -4 13 18
v -4 38 18
v -4 39 18
v -3 1 18
v -3 2 18
v -3 12 18
v -3 13 18
v -3 38 18
v -3 39 18
v 3 1 18
v 3 2 18
v 3 12 18
v 3 13 18
v 3 38 18
v 3 39 18
v 4 1 18
v 4 2 18
v 4 12 18
v 4 13 18
v 4 38 18
v 4 39 18
v -3 5 10
v -3 6 10
v -2 5 10
v -2 6 10
v -2 27 10
v -2 35 10
v -1 27 10
v -1 35 10
v 1 27 10
v 1 35 10
v 2 5 10
v 2 6 10
v 2 27 10
v 2 35 10
v 3 5 10
v 3 6 10
v -4 1 5
v -4 2 5
v -3 1 5
v -3 2 5
v 3 1 5
v 3 2 5
v 4 1 5
v 4 2 5
v -4 1 -6
v -4 2 -6
v -3 1 -6
v -3 2 -6
v 3 1 -6
v 3 2 -6
v 4 1 -6
v 4 2 -6
v -1 10 -10
v -1 26 -10
v 1 10 -10
v 1 26 -10
v -4 9 -11
v -4 14 -11
v -3 5 -11
v -3 6 -11
v -3 14 -11
v -3 15 -11
v -2 5 -11
v -2 6 -11
v -2 9 -11
v -2 14 -11
v -2 15 -11
v -2 35 -11
v -1 9 -11
v -1 35 -11
v 1 9 -11
v 1 35 -11
v 2 5 -11
v 2 6 -11
v 2 9 -11
v 2 14 -11
v 2 15 -11
v 2 35 -11
v 3 5 -11
v 3 6 -11
v 3 14 -11
v 3 15 -11
v 4 9 -11
v 4 14 -11
v -4 1 -19
v -4 2 -19
v -4 12 -19
v -4 13 -19
v -4 38 -19
v -4 39 -19
v -3 1 -19
v -3 2 -19
v -3 12 -19
v -3 13 -19
v -3 38 -19
v -3 39 -19
v 3 1 -19
v 3 2 -19
v 3 12 -19
v 3 13 -19
v 3 38 -19
v 3 39 -19
v 4 1 -19
v 4 2 -19
v 4 12 -19
v 4 13 -19
v 4 38 -19
v 4 39 -19
v -4 1 19
v -4 2 19
v -4 12 19
v -4 13 19
v -4 38 19
v -4 39 19
v -3 1 19
v -3 2 19
v -3 12 19
v -3 13 19
v -3 38 19
v -3 39 19
v 3 1 19
v 3 2 19
v 3 12 19
v 3 13 19
v 3 38 19
v 3 39 19
v 4 1 19
v 4 2 19
v 4 12 19
v 4 13 19
v 4 38 19
v 4 39 19
v -4 9 11
v -4 14 11
v -3 5 11
v -3 6 11
v -3 14 11
v -3 15 11
v -2 5 11
v -2 6 11
v -2 9 11
v -2 14 11
v -2 15 11
v -2 35 11
v -1 9 11
v -1 35 11
v 1 9 11
v 1 35 11
v 2 5 11
v 2 6 11
v 2 9 11
v 2 14 11
v 2 15 11
v 2 35 11
v 3 5 11
v 3 6 11
v 3 14 11
v 3 15 11
v 4 9 11
v 4 14 11
v -1 10 10
v -1 26 10
v 1 10 10
v 1 26 10
v -4 1 6
v -4 2 6
v -3 1 6
v -3 2 6
v 3 1 6
v 3 2 6
v 4 1 6
v 4 2 6
v -4 1 -5
v -4 2 -5
v -3 1 -5
v -3 2 -5
v 3 1 -5
v 3 2 -5
v 4 1 -5
v 4 2 -5
v -3 5 -10
v -3 6 -10
v -2 5 -10
v -2 6 -10
v -2 27 -10
v -2 35 -10
v -1 27 -10
v -1 35 -10
v 1 27 -10
v 1 35 -10
v 2 5 -10
v 2 6 -10
v 2 27 -10
v 2 35 -10
v 3 5 -10
v 3 6 -10
v -4 1 -18
v -4 2 -18
v -4 12 -18
v -4 13 -18
v -4 38 -18
v -4 39 -18
v -3 1 -18
v -3 2 -18
v -3 12 -18
v -3 13 -18
v -3 38 -18
v -3 39 -18
v 3 1 -18
v 3 2 -18
v 3 12 -18
v 3 13 -18
v 3 38 -18
v 3 39 -18
v 4 1 -18
v 4 2 -18
v 4 12 -18
v 4 13 -18
v 4 38 -18
v 4 39 -18
v -4 0 -20
v -4 14 -20
v -4 36 -20
v -4 40 -20
v -3 14 -20
v -3 15 -20
v -3 35 -20
v -3 36 -20
v -3 40 -20
v -2 0 -20
v -2 14 -20
v -2 15 -20
v -2 35 -20
v -2 36 -20
v 2 0 -20
v 2 14 -20
v 2 15 -20
v 2 35 -20
v 2 36 -20
v 3 14 -20
v 3 15 -20
v 3 35 -20
v 3 36 -20
v 3 40 -20
v 4 0 -20
v 4 14 -20
v 4 36 -20
v 4 40 -20
v -4 0 20
v -2 0 20
v 2 0 20
v 4 0 20
v -4 0 -20
v -2 0 -20
v 2 0 -20
v 4 0 -20
v -4 2 19
v -3 2 19
v 3 2 19
v 4 2 19
v -4 2 18
v -3 2 18
v 3 2 18
v 4 2 18
v -4 2 6
v -3 2 6
v 3 2 6
v 4 2 6
v -4 2 5
v -3 2 5
v 3 2 5
v 4 2 5
v -4 2 -5
v -3 2 -5
v 3 2 -5
v 4 2 -5
v -4 2 -6
v -3 2 -6
v 3 2 -6
v 4 2 -6
v -4 2 -18
v -3 2 -18
v 3 2 -18
v 4 2 -18
v -4 2 -19
v -3 2 -19
v 3 2 -19
v 4 2 -19
v -3 6 11
v -2 6 11
v 2 6 11
v 3 6 11
v -3 6 10
v -2 6 10
v 2 6 10
v 3 6 10
v -3 6 -10
v -2 6 -10
v 2 6 -10
v 3 6 -10
v -3 6 -11
v -2 6 -11
v 2 6 -11
v 3 6 -11
v -4 13 19
v -3 13 19
v 3 13 19
v 4 13 19
v -4 13 18
v -3 13 18
v 3 13 18
v 4 13 18
v -4 13 -18
v -3 13 -18
v 3 13 -18
v 4 13 -18
v -4 13 -19
v -3 13 -19
v 3 13 -19
v 4 13 -19
v -1 26 10
v 1 26 10
v -1 26 -10
v 1 26 -10
v -2 27 10
v -1 27 10
v 1 27 10
v 2 27 10
v -2 27 -10
v -1 27 -10
v 1 27 -10
v 2 27 -10
v -3 35 20
v -2 35 20
v 2 35 20
v 3 35 20
v -2 35 11
v -1 35 11
v 1 35 11
v 2 35 11
v -2 35 10
v -1 35 10
v 1 35 10
v 2 35 10
v -2 35 -10
v -1 35 -10
v 1 35 -10
v 2 35 -10
v -2 35 -11
v -1 35 -11
v 1 35 -11
v 2 35 -11
v -3 35 -20
v -2 35 -20
v 2 35 -20
v 3 35 -20
v -4 36 20
v -3 36 20
v 3 36 20
v 4 36 20
v -4 36 -20
v -3 36 -20
v 3 36 -20
v 4 36 -20
v -4 39 19
v -3 39 19
v 3 39 19
v 4 39 19
v -4 39 18
v -3 39 18
v 3 39 18
v 4 39 18
v -4 39 -18
v -3 39 -18
v 3 39 -18
v 4 39 -18
v -4 39 -19
v -3 39 -19
v 3 39 -19
v 4 39 -19
v -4 1 19
v -3 1 19
v 3 1 19
v 4 1 19
v -4 1 18
v -3 1 18
v 3 1 18
v 4 1 18
v -4 1 6
v -3 1 6
v 3 1 6
v 4 1 6
v -4 1 5
v -3 1 5
v 3 1 5
v 4 1 5
v -4 1 -5
v -3 1 -5
v 3 1 -5
v 4 1 -5
v -4 1 -6
v -3 1 -6
v 3 1 -6
v 4 1 -6
v -4 1 -18
v -3 1 -18
v 3 1 -18
v 4 1 -18
v -4 1 -19
v -3 1 -19
v 3 1 -19
v 4 1 -19
v -3 5 11
v -2 5 11
v 2 5 11
v 3 5 11
v -3 5 10
v -2 5 10
v 2 5 10
v 3 5 10
v -3 5 -10
v -2 5 -10
v 2 5 -10
v 3 5 -10
v -3 5 -11
v -2 5 -11
v 2 5 -11
v 3 5 -11
v -4 9 11
v -2 9 11
v -1 9 11
v 1 9 11
v 2 9 11
v 4 9 11
v -4 9 -11
v -2 9 -11
v -1 9 -11
v 1 9 -11
v 2 9 -11
v 4 9 -11
v -1 10 10
v 1 10 10
v -1 10 -10
v 1 10 -10
v -4 12 19
v -3 12 19
v 3 12 19
v 4 12 19
v -4 12 18
v -3 12 18
v 3 12 18
v 4 12 18
v -4 12 -18
v -3 12 -18
v 3 12 -18
v 4 12 -18
v -4 12 -19
v -3 12 -19
v 3 12 -19
v 4 12 -19
v -4 14 20
v -3 14 20
v 3 14 20
v 4 14 20
v -4 14 11
v -3 14 11
v 3 14 11
v 4 14 11
v -4 14 -11
v -3 14 -11
v 3 14 -11
v 4 14 -11
v -4 14 -20
v -3 14 -20
v 3 14 -20
v 4 14 -20
v -3 15 20
v -2 15 20
v 2 15 20
v 3 15 20
v -3 15 11
v -2 15 11
v 2 15 11
v 3 15 11
v -3 15 -11
v -2 15 -11
v 2 15 -11
v 3 15 -11
v -3 15 -20
v -2 15 -20
v 2 15 -20
v 3 15 -20
v -4 38 19
v -3 38 19
v 3 38 19
v 4 38 19
v -4 38 18
v -3 38 18
v 3 38 18
v 4 38 18
v -4 38 -18
v -3 38 -18
v 3 38 -18
v 4 38 -18
v -4 38 -19
v -3 38 -19
v 3 38 -19
v 4 38 -19
v -4 40 20
v -3 40 20
v 3 40 20
v 4 40 20
v -4 40 -20
v -3 40 -20
v 3 40 -20
v 4 40 -20

# faces
f 3/2/1 2/2/1 1/2/1
f 4/2/1 2/2/1 3/2/1
f 5/2/1 2/2/1 4/2/1
f 6/2/1 2/2/1 5/2/1
f 7/2/1 2/2/1 6/2/1
f 8/2/1 2/2/1 7/2/1
f 9/2/1 2/2/1 8/2/1
f 10/2/1 2/2/1 9/2/1
f 11/2/1 3/2/1 1/2/1
f 12/2/1 5/2/1 4/2/1
f 13/2/1 5/2/1 12/2/1
f 14/2/1 7/2/1 6/2/1
f 15/2/1 7/2/1 14/2/1
f 16/2/1 9/2/1 8/2/1
f 17/2/1 9/2/1 16/2/1
f 18/2/1 2/2/1 10/2/1
f 19/2/1 17/2/1 16/2/1
f 19/2/1 18/2/1 17/2/1
f 19/2/1 15/2/1 14/2/1
f 19/2/1 13/2/1 12/2/1
f 19/2/1 16/2/1 15/2/1
f 19/2/1 12/2/1 11/2/1
f 19/2/1 14/2/1 13/2/1
f 20/2/1 18/2/1 19/2/1
f 21/2/1 11/2/1 1/2/1
f 21/2/1 19/2/1 11/2/1
f 22/2/1 19/2/1 21/2/1
f 23/2/1 18/2/1 20/2/1
f 24/2/1 2/2/1 18/2/1
f 24/2/1 18/2/1 23/2/1
f 25/2/1 21/2/1 1/2/1
f 26/2/1 19/2/1 22/2/1
f 27/2/1 23/2/1 20/2/1
f 28/2/1 2/2/1 24/2/1
f 29/2/1 26/2/1 25/2/1
f 29/2/1 25/2/1 1/2/1
f 30/2/1 19/2/1 26/2/1
f 30/2/1 26/2/1 29/2/1
f 31/2/1 28/2/1 27/2/1
f 31/2/1 27/2/1 20/2/1
f 32/2/1 2/2/1 28/2/1
f 32/2/1 28/2/1 31/2/1
f 35/2/1 34/2/1 33/2/1
f 36/2/1 34/2/1 35/2/1
f 37/2/1 34/2/1 36/2/1
f 38/2/1 34/2/1 37/2/1
f 39/2/1 35/2/1 33/2/1
f 40/2/1 37/2/1 36/2/1
f 41/2/1 37/2/1 40/2/1
f 42/2/1 34/2/1 38/2/1
f 43/2/1 41/2/1 40/2/1
f 43/2/1 42/2/1 41/2/1
f 43/2/1 39/2/1 33/2/1
f 43/2/1 40/2/1 39/2/1
f 44/2/1 34/2/1 42/2/1
f 44/2/1 42/2/1 43/2/1
f 53/4/1 46/4/1 45/4/1
f 54/4/1 46/4/1 53/4/1
f 55/4/1 48/4/1 47/4/1
f 56/4/1 48/4/1 55/4/1
f 57/4/1 50/4/1 49/4/1
f 58/4/1 50/4/1 57/4/1
f 59/4/1 52/4/1 51/4/1
f 60/4/1 52/4/1 59/4/1
f 65/4/1 62/4/1 61/4/1
f 66/4/1 62/4/1 65/4/1
f 67/4/1 64/4/1 63/4/1
f 68/4/1 64/4/1 67/4/1
f 73/1/1 70/1/1 69/1/1
f 74/1/1 70/1/1 73/1/1
f 75/1/1 72/1/1 71/1/1
f 76/1/1 72/1/1 75/1/1
f 79/1/1 78/1/1 77/1/1
f 80/1/1 78/1/1 79/1/1
f 85/4/1 82/4/1 81/4/1
f 86/4/1 82/4/1 85/4/1
f 87/4/1 84/4/1 83/4/1
f 88/4/1 84/4/1 87/4/1
f 93/3/1 90/3/1 89/3/1
f 94/3/1 90/3/1 93/3/1
f 95/3/1 92/3/1 91/3/1
f 96/3/1 92/3/1 95/3/1
f 103/3/1 98/3/1 97/3/1
f 104/3/1 98/3/1 103/3/1
f 105/3/1 102/3/1 101/3/1
f 106/3/1 102/3/1 105/3/1
f 107/3/1 100/3/1 99/3/1
f 108/3/1 100/3/1 107/3/1
f 111/4/1 110/4/1 109/4/1
f 112/4/1 110/4/1 111/4/1
f 113/4/1 111/4/1 109/4/1
f 114/4/1 110/4/1 112/4/1
f 115/4/1 113/4/1 109/4/1
f 115/4/1 114/4/1 113/4/1
f 116/4/1 110/4/1 114/4/1
f 116/4/1 114/4/1 115/4/1
f 117/4/1 115/4/1 109/4/1
f 118/4/1 115/4/1 117/4/1
f 119/4/1 110/4/1 116/4/1
f 120/4/1 110/4/1 119/4/1
f 125/2/1 122/2/1 121/2/1
f 126/2/1 122/2/1 125/2/1
f 127/2/1 124/2/1 123/2/1
f 128/2/1 124/2/1 127/2/1
f 129/2/2 130/2/2 133/2/2
f 133/2/2 130/2/2 134/2/2
f 131/2/2 132/2/2 135/2/2
f 135/2/2 132/2/2 136/2/2
f 137/4/2 138/4/2 139/4/2
f 139/4/2 138/4/2 140/4/2
f 137/4/2 139/4/2 141/4/2
f 140/4/2 138/4/2 142/4/2
f 137/4/2 141/4/2 143/4/2
f 141/4/2 142/4/2 143/4/2
f 142/4/2 138/4/2 144/4/2
f 143/4/2 142/4/2 144/4/2
f 137/4/2 143/4/2 145/4/2
f 145/4/2 143/4/2 146/4/2
f 144/4/2 138/4/2 147/4/2
f 147/4/2 138/4/2 148/4/2
f 149/3/2 150/3/2 153/3/2
f 153/3/2 150/3/2 154/3/2
f 151/3/2 152/3/2 155/3/2
f 155/3/2 152/3/2 156/3/2
f 157/3/2 158/3/2 163/3/2
f 163/3/2 158/3/2 164/3/2
f 161/3/2 162/3/2 165/3/2
f 165/3/2 162/3/2 166/3/2
f 159/3/2 160/3/2 167/3/2
f 167/3/2 160/3/2 168/3/2
f 169/4/2 170/4/2 177/4/2
f 177/4/2 170/4/2 178/4/2
f 171/4/2 172/4/2 179/4/2
f 179/4/2 172/4/2 180/4/2
f 173/4/2 174/4/2 181/4/2
f 181/4/2 174/4/2 182/4/2
f 175/4/2 176/4/2 183/4/2
f 183/4/2 176/4/2 184/4/2
f 185/4/2 186/4/2 189/4/2
f 189/4/2 186/4/2 190/4/2
f 187/4/2 188/4/2 191/4/2
f 191/4/2 188/4/2 192/4/2
f 193/1/2 194/1/2 197/1/2
f 197/1/2 194/1/2 198/1/2
f 195/1/2 196/1/2 199/1/2
f 199/1/2 196/1/2 200/1/2
f 201/1/2 202/1/2 203/1/2
f 203/1/2 202/1/2 204/1/2
f 205/4/2 206/4/2 209/4/2
f 209/4/2 206/4/2 210/4/2
f 207/4/2 208/4/2 211/4/2
f 211/4/2 208/4/2 212/4/2
f 213/2/2 214/2/2 215/2/2
f 215/2/2 214/2/2 216/2/2
f 216/2/2 214/2/2 217/2/2
f 217/2/2 214/2/2 218/2/2
f 218/2/2 214/2/2 219/2/2
f 219/2/2 214/2/2 220/2/2
f 220/2/2 214/2/2 221/2/2
f 221/2/2 214/2/2 222/2/2
f 213/2/2 215/2/2 223/2/2
f 216/2/2 217/2/2 224/2/2
f 224/2/2 217/2/2 225/2/2
f 218/2/2 219/2/2 226/2/2
f 226/2/2 219/2/2 227/2/2
f 220/2/2 221/2/2 228/2/2
f 228/2/2 221/2/2 229/2/2
f 222/2/2 214/2/2 230/2/2
f 228/2/2 229/2/2 231/2/2
f 229/2/2 230/2/2 231/2/2
f 226/2/2 227/2/2 231/2/2
f 224/2/2 225/2/2 231/2/2
f 227/2/2 228/2/2 231/2/2
f 223/2/2 224/2/2 231/2/2
f 225/2/2 226/2/2 231/2/2
f 231/2/2 230/2/2 232/2/2
f 213/2/2 223/2/2 233/2/2
f 223/2/2 231/2/2 233/2/2
f 233/2/2 231/2/2 234/2/2
f 232/2/2 230/2/2 235/2/2
f 230/2/2 214/2/2 236/2/2
f 235/2/2 230/2/2 236/2/2
f 213/2/2 233/2/2 237/2/2
f 234/2/2 231/2/2 238/2/2
f 232/2/2 235/2/2 239/2/2
f 236/2/2 214/2/2 240/2/2
f 237/2/2 238/2/2 241/2/2
f 213/2/2 237/2/2 241/2/2
f 238/2/2 231/2/2 242/2/2
f 241/2/2 238/2/2 242/2/2
f 239/2/2 240/2/2 243/2/2
f 232/2/2 239/2/2 243/2/2
f 240/2/2 214/2/2 244/2/2
f 243/2/2 240/2/2 244/2/2
f 245/2/2 246/2/2 247/2/2
f 247/2/2 246/2/2 248/2/2
f 248/2/2 246/2/2 249/2/2
f 249/2/2 246/2/2 250/2/2
f 245/2/2 247/2/2 251/2/2
f 248/2/2 249/2/2 252/2/2
f 252/2/2 249/2/2 253/2/2
f 250/2/2 246/2/2 254/2/2
f 252/2/2 253/2/2 255/2/2
f 253/2/2 254/2/2 255/2/2
f 245/2/2 251/2/2 255/2/2
f 251/2/2 252/2/2 255/2/2
f 254/2/2 246/2/2 256/2/2
f 255/2/2 254/2/2 256/2/2
f 261/2/3 258/2/3 257/2/3
f 264/2/3 260/2/3 259/2/3
f 265/2/3 260/2/3 264/2/3
f 266/2/3 261/2/3 257/2/3
f 267/1/3 262/1/3 261/1/3
f 267/2/3 261/2/3 266/2/3
f 268/1/3 262/1/3 267/1/3
f 269/1/3 264/1/3 263/1/3
f 270/3/3 265/3/3 264/3/3
f 270/1/3 264/1/3 269/1/3
f 271/3/3 268/3/3 267/3/3
f 271/3/3 269/3/3 268/3/3
f 271/3/3 270/3/3 269/3/3
f 271/3/3 267/3/3 266/3/3
f 272/3/3 270/3/3 271/3/3
f 273/3/3 270/3/3 272/3/3
f 274/3/3 270/3/3 273/3/3
f 275/3/3 265/3/3 270/3/3
f 275/3/3 270/3/3 274/3/3
f 276/2/3 272/2/3 271/2/3
f 276/1/3 273/1/3 272/1/3
f 277/1/3 273/1/3 276/1/3
f 278/1/3 275/1/3 274/1/3
f 279/3/3 265/3/3 275/3/3
f 279/1/3 275/1/3 278/1/3
f 280/3/3 265/3/3 279/3/3
f 281/2/3 276/2/3 271/2/3
f 282/2/3 276/2/3 281/2/3
f 283/2/3 280/2/3 279/2/3
f 284/2/3 280/2/3 283/2/3
f 291/2/3 286/2/3 285/2/3
f 292/2/3 286/2/3 291/2/3
f 293/2/3 288/2/3 287/2/3
f 294/2/3 288/2/3 293/2/3
f 295/2/3 290/2/3 289/2/3
f 296/2/3 290/2/3 295/2/3
f 303/2/3 298/2/3 297/2/3
f 304/2/3 298/2/3 303/2/3
f 305/2/3 300/2/3 299/2/3
f 306/2/3 300/2/3 305/2/3
f 307/2/3 302/2/3 301/2/3
f 308/2/3 302/2/3 307/2/3
f 311/2/3 310/2/3 309/2/3
f 312/2/3 310/2/3 311/2/3
f 315/3/3 314/3/3 313/3/3
f 316/3/3 314/3/3 315/3/3
f 321/3/3 318/3/3 317/3/3
f 322/3/3 318/3/3 321/3/3
f 323/2/3 320/2/3 319/2/3
f 324/2/3 320/2/3 323/2/3
f 327/2/3 326/2/3 325/2/3
f 328/2/3 326/2/3 327/2/3
f 331/2/3 330/2/3 329/2/3
f 332/2/3 330/2/3 331/2/3
f 335/2/3 334/2/3 333/2/3
f 336/2/3 334/2/3 335/2/3
f 339/2/3 338/2/3 337/2/3
f 340/2/3 338/2/3 339/2/3
f 343/4/3 342/4/3 341/4/3
f 344/4/3 342/4/3 343/4/3
f 349/2/3 346/2/3 345/2/3
f 351/2/3 348/2/3 347/2/3
f 352/2/3 348/2/3 351/2/3
f 353/2/3 349/2/3 345/2/3
f 354/1/3 350/1/3 349/1/3
f 354/2/3 349/2/3 353/2/3
f 355/1/3 350/1/3 354/1/3
f 357/3/3 356/3/3 355/3/3
f 357/3/3 355/3/3 354/3/3
f 357/3/3 354/3/3 353/3/3
f 358/3/3 356/3/3 357/3/3
f 363/3/3 360/3/3 359/3/3
f 364/3/3 360/3/3 363/3/3
f 365/3/3 360/3/3 364/3/3
f 366/3/3 360/3/3 365/3/3
f 367/2/3 362/2/3 361/2/3
f 368/2/3 362/2/3 367/2/3
f 369/2/3 364/2/3 363/2/3
f 369/1/3 365/1/3 364/1/3
f 370/1/3 365/1/3 369/1/3
f 371/2/3 369/2/3 363/2/3
f 372/2/3 369/2/3 371/2/3
f 379/2/3 374/2/3 373/2/3
f 380/2/3 374/2/3 379/2/3
f 381/2/3 376/2/3 375/2/3
f 382/2/3 376/2/3 381/2/3
f 383/2/3 378/2/3 377/2/3
f 384/2/3 378/2/3 383/2/3
f 391/2/3 386/2/3 385/2/3
f 392/2/3 386/2/3 391/2/3
f 393/2/3 388/2/3 387/2/3
f 394/2/3 388/2/3 393/2/3
f 395/2/3 390/2/3 389/2/3
f 396/2/3 390/2/3 395/2/3
f 397/2/4 398/2/4 403/2/4
f 403/2/4 398/2/4 404/2/4
f 399/2/4 400/2/4 405/2/4
f 405/2/4 400/2/4 406/2/4
f 401/2/4 402/2/4 407/2/4
f 407/2/4 402/2/4 408/2/4
f 409/2/4 410/2/4 415/2/4
f 415/2/4 410/2/4 416/2/4
f 411/2/4 412/2/4 417/2/4
f 417/2/4 412/2/4 418/2/4
f 413/2/4 414/2/4 419/2/4
f 419/2/4 414/2/4 420/2/4
f 421/2/4 422/2/4 425/2/4
f 423/2/4 424/2/4 427/2/4
f 427/2/4 424/2/4 428/2/4
f 421/2/4 425/2/4 429/2/4
f 425/1/4 426/1/4 430/1/4
f 429/2/4 425/2/4 430/2/4
f 430/1/4 426/1/4 431/1/4
f 431/3/4 432/3/4 433/3/4
f 430/3/4 431/3/4 433/3/4
f 429/3/4 430/3/4 433/3/4
f 433/3/4 432/3/4 434/3/4
f 435/3/4 436/3/4 439/3/4
f 439/3/4 436/3/4 440/3/4
f 440/3/4 436/3/4 441/3/4
f 441/3/4 436/3/4 442/3/4
f 437/2/4 438/2/4 443/2/4
f 443/2/4 438/2/4 444/2/4
f 439/2/4 440/2/4 445/2/4
f 440/1/4 441/1/4 445/1/4
f 445/1/4 441/1/4 446/1/4
f 439/2/4 445/2/4 447/2/4
f 447/2/4 445/2/4 448/2/4
f 449/4/4 450/4/4 451/4/4
f 451/4/4 450/4/4 452/4/4
f 453/2/4 454/2/4 455/2/4
f 455/2/4 454/2/4 456/2/4
f 457/2/4 458/2/4 459/2/4
f 459/2/4 458/2/4 460/2/4
f 461/2/4 462/2/4 463/2/4
f 463/2/4 462/2/4 464/2/4
f 465/2/4 466/2/4 467/2/4
f 467/2/4 466/2/4 468/2/4
f 469/2/4 470/2/4 471/2/4
f 471/2/4 470/2/4 472/2/4
f 473/3/4 474/3/4 475/3/4
f 475/3/4 474/3/4 476/3/4
f 477/3/4 478/3/4 481/3/4
f 481/3/4 478/3/4 482/3/4
f 479/2/4 480/2/4 483/2/4
f 483/2/4 480/2/4 484/2/4
f 485/2/4 486/2/4 491/2/4
f 491/2/4 486/2/4 492/2/4
f 487/2/4 488/2/4 493/2/4
f 493/2/4 488/2/4 494/2/4
f 489/2/4 490/2/4 495/2/4
f 495/2/4 490/2/4 496/2/4
f 497/2/4 498/2/4 503/2/4
f 503/2/4 498/2/4 504/2/4
f 499/2/4 500/2/4 505/2/4
f 505/2/4 500/2/4 506/2/4
f 501/2/4 502/2/4 507/2/4
f 507/2/4 502/2/4 508/2/4
f 509/2/4 510/2/4 513/2/4
f 511/2/4 512/2/4 516/2/4
f 516/2/4 512/2/4 517/2/4
f 509/2/4 513/2/4 518/2/4
f 513/1/4 514/1/4 519/1/4
f 518/2/4 513/2/4 519/2/4
f 519/1/4 514/1/4 520/1/4
f 515/1/4 516/1/4 521/1/4
f 516/3/4 517/3/4 522/3/4
f 521/1/4 516/1/4 522/1/4
f 519/3/4 520/3/4 523/3/4
f 520/3/4 521/3/4 523/3/4
f 521/3/4 522/3/4 523/3/4
f 518/3/4 519/3/4 523/3/4
f 523/3/4 522/3/4 524/3/4
f 524/3/4 522/3/4 525/3/4
f 525/3/4 522/3/4 526/3/4
f 522/3/4 517/3/4 527/3/4
f 526/3/4 522/3/4 527/3/4
f 523/2/4 524/2/4 528/2/4
f 524/1/4 525/1/4 528/1/4
f 528/1/4 525/1/4 529/1/4
f 526/1/4 527/1/4 530/1/4
f 527/3/4 517/3/4 531/3/4
f 530/1/4 527/1/4 531/1/4
f 531/3/4 517/3/4 532/3/4
f 523/2/4 528/2/4 533/2/4
f 533/2/4 528/2/4 534/2/4
f 531/2/4 532/2/4 535/2/4
f 535/2/4 532/2/4 536/2/4
f 541/2/5 538/2/5 537/2/5
f 542/3/5 539/3/5 538/3/5
f 542/2/5 538/2/5 541/2/5
f 543/2/5 540/2/5 539/2/5
f 543/3/5 539/3/5 542/3/5
f 544/2/5 540/2/5 543/2/5
f 549/2/5 546/2/5 545/2/5
f 550/2/5 546/2/5 549/2/5
f 551/2/5 548/2/5 547/2/5
f 552/2/5 548/2/5 551/2/5
f 557/2/5 554/2/5 553/2/5
f 558/2/5 554/2/5 557/2/5
f 559/2/5 556/2/5 555/2/5
f 560/2/5 556/2/5 559/2/5
f 565/2/5 562/2/5 561/2/5
f 566/2/5 562/2/5 565/2/5
f 567/2/5 564/2/5 563/2/5
f 568/2/5 564/2/5 567/2/5
f 573/2/5 570/2/5 569/2/5
f 574/2/5 570/2/5 573/2/5
f 575/2/5 572/2/5 571/2/5
f 576/2/5 572/2/5 575/2/5
f 581/2/5 578/2/5 577/2/5
f 582/2/5 578/2/5 581/2/5
f 583/2/5 580/2/5 579/2/5
f 584/2/5 580/2/5 583/2/5
f 589/2/5 586/2/5 585/2/5
f 590/2/5 586/2/5 589/2/5
f 591/2/5 588/2/5 587/2/5
f 592/2/5 588/2/5 591/2/5
f 597/2/5 594/2/5 593/2/5
f 598/2/5 594/2/5 597/2/5
f 599/2/5 596/2/5 595/2/5
f 600/2/5 596/2/5 599/2/5
f 605/2/5 602/2/5 601/2/5
f 606/2/5 602/2/5 605/2/5
f 607/2/5 604/2/5 603/2/5
f 608/2/5 604/2/5 607/2/5
f 611/4/5 610/4/5 609/4/5
f 612/4/5 610/4/5 611/4/5
f 617/3/5 614/3/5 613/3/5
f 618/3/5 614/3/5 617/3/5
f 619/3/5 616/3/5 615/3/5
f 620/3/5 616/3/5 619/3/5
f 625/1/5 622/1/5 621/1/5
f 628/1/5 624/1/5 623/1/5
f 629/3/5 626/3/5 625/3/5
f 629/1/5 625/1/5 621/1/5
f 630/3/5 626/3/5 629/3/5
f 631/3/5 628/3/5 627/3/5
f 632/1/5 624/1/5 628/1/5
f 632/3/5 628/3/5 631/3/5
f 633/1/5 629/1/5 621/1/5
f 636/1/5 624/1/5 632/1/5
f 637/3/5 634/3/5 633/3/5
f 637/1/5 633/1/5 621/1/5
f 638/3/5 634/3/5 637/3/5
f 639/3/5 636/3/5 635/3/5
f 640/1/5 624/1/5 636/1/5
f 640/3/5 636/3/5 639/3/5
f 641/1/5 637/1/5 621/1/5
f 642/1/5 637/1/5 641/1/5
f 643/1/5 624/1/5 640/1/5
f 644/1/5 624/1/5 643/1/5
f 649/2/5 646/2/5 645/2/5
f 650/2/5 646/2/5 649/2/5
f 651/2/5 648/2/5 647/2/5
f 652/2/5 648/2/5 651/2/5
f 657/2/5 654/2/5 653/2/5
f 658/2/5 654/2/5 657/2/5
f 659/2/5 656/2/5 655/2/5
f 660/2/5 656/2/5 659/2/5
f 665/2/5 662/2/5 661/2/5
f 666/2/5 662/2/5 665/2/5
f 667/2/5 664/2/5 663/2/5
f 668/2/5 664/2/5 667/2/5
f 669/2/6 670/2/6 673/2/6
f 673/2/6 670/2/6 674/2/6
f 671/2/6 672/2/6 675/2/6
f 675/2/6 672/2/6 676/2/6
f 677/2/6 678/2/6 681/2/6
f 681/2/6 678/2/6 682/2/6
f 679/2/6 680/2/6 683/2/6
f 683/2/6 680/2/6 684/2/6
f 685/2/6 686/2/6 689/2/6
f 689/2/6 686/2/6 690/2/6
f 687/2/6 688/2/6 691/2/6
f 691/2/6 688/2/6 692/2/6
f 693/2/6 694/2/6 697/2/6
f 697/2/6 694/2/6 698/2/6
f 695/2/6 696/2/6 699/2/6
f 699/2/6 696/2/6 700/2/6
f 701/2/6 702/2/6 705/2/6
f 705/2/6 702/2/6 706/2/6
f 703/2/6 704/2/6 707/2/6
f 707/2/6 704/2/6 708/2/6
f 709/2/6 710/2/6 713/2/6
f 713/2/6 710/2/6 714/2/6
f 711/2/6 712/2/6 715/2/6
f 715/2/6 712/2/6 716/2/6
f 717/2/6 718/2/6 723/2/6
f 718/2/6 719/2/6 723/2/6
f 723/2/6 719/2/6 724/2/6
f 724/2/6 719/2/6 725/2/6
f 721/2/6 722/2/6 726/2/6
f 720/2/6 721/2/6 726/2/6
f 726/2/6 722/2/6 727/2/6
f 727/2/6 722/2/6 728/2/6
f 729/4/6 730/4/6 731/4/6
f 731/4/6 730/4/6 732/4/6
f 733/2/6 734/2/6 737/2/6
f 737/2/6 734/2/6 738/2/6
f 735/2/6 736/2/6 739/2/6
f 739/2/6 736/2/6 740/2/6
f 741/2/6 742/2/6 745/2/6
f 745/2/6 742/2/6 746/2/6
f 743/2/6 744/2/6 747/2/6
f 747/2/6 744/2/6 748/2/6
f 749/2/6 750/2/6 753/2/6
f 753/2/6 750/2/6 754/2/6
f 751/2/6 752/2/6 755/2/6
f 755/2/6 752/2/6 756/2/6
f 757/2/6 758/2/6 761/2/6
f 761/2/6 758/2/6 762/2/6
f 759/2/6 760/2/6 763/2/6
f 763/2/6 760/2/6 764/2/6
f 765/1/6 766/1/6 769/1/6
f 769/1/6 766/1/6 770/1/6
f 767/1/6 768/1/6 771/1/6
f 771/1/6 768/1/6 772/1/6
f 773/1/6 774/1/6 777/1/6
f 777/1/6 774/1/6 778/1/6
f 775/1/6 776/1/6 779/1/6
f 779/1/6 776/1/6 780/1/6
f 781/2/6 782/2/6 785/2/6
f 785/2/6 782/2/6 786/2/6
f 783/2/6 784/2/6 787/2/6
f 787/2/6 784/2/6 788/2/6
f 789/2/6 790/2/6 793/2/6
f 793/2/6 790/2/6 794/2/6
f 791/2/6 792/2/6 795/2/6
f 795/2/6 792/2/6 796/2/6
f 797/2/6 798/2/6 801/2/6
f 798/3/6 799/3/6 802/3/6
f 801/2/6 798/2/6 802/2/6
f 799/2/6 800/2/6 803/2/6
f 802/3/6 799/3/6 803/3/6
f 803/2/6 800/2/6 804/2/6
