# MagicaVoxel @ Ephtracy

# group
g wall2

# material
mtllib wall2.mtl
usemtl palette

# normals
vn -1 0 0
vn 1 0 0
vn 0 0 1
vn 0 0 -1
vn 0 -1 0
vn 0 1 0

# texcoords
vt 0.791016 0.5
vt 0.970703 0.5
vt 0.986328 0.5
vt 0.994141 0.5

# verts
v -4 0 20
v -4 0 -20
v -4 1 19
v -4 1 18
v -4 1 6
v -4 1 5
v -4 1 -5
v -4 1 -6
v -4 1 -18
v -4 1 -19
v -4 2 19
v -4 2 18
v -4 2 6
v -4 2 5
v -4 2 -5
v -4 2 -6
v -4 2 -18
v -4 2 -19
v -4 12 19
v -4 12 18
v -4 12 6
v -4 12 5
v -4 12 -5
v -4 12 -6
v -4 12 -18
v -4 12 -19
v -4 13 19
v -4 13 18
v -4 13 6
v -4 13 5
v -4 13 -5
v -4 13 -6
v -4 13 -18
v -4 13 -19
v -4 14 20
v -4 14 -20
v -4 36 20
v -4 36 -20
v -4 38 19
v -4 38 18
v -4 38 -18
v -4 38 -19
v -4 39 19
v -4 39 18
v -4 39 -18
v -4 39 -19
v -4 40 20
v -4 40 -20
v -3 1 19
v -3 1 18
v -3 1 6
v -3 1 5
v -3 1 -5
v -3 1 -6
v -3 1 -18
v -3 1 -19
v -3 2 19
v -3 2 18
v -3 2 6
v -3 2 5
v -3 2 -5
v -3 2 -6
v -3 2 -18
v -3 2 -19
v -3 12 19
v -3 12 18
v -3 12 6
v -3 12 5
v -3 12 -5
v -3 12 -6
v -3 12 -18
v -3 12 -19
v -3 13 19
v -3 13 18
v -3 13 6
v -3 13 5
v -3 13 -5
v -3 13 -6
v -3 13 -18
v -3 13 -19
v -3 14 20
v -3 14 -20
v -3 15 20
v -3 15 -20
v -3 35 20
v -3 35 -20
v -3 36 20
v -3 36 -20
v -3 38 19
v -3 38 18
v -3 38 -18
v -3 38 -19
v -3 39 19
v -3 39 18
v -3 39 -18
v -3 39 -19
v -2 5 11
v -2 5 10
v -2 5 -10
v -2 5 -11
v -2 6 11
v -2 6 10
v -2 6 -10
v -2 6 -11
v -2 15 20
v -2 15 11
v -2 15 10
v -2 15 -10
v -2 15 -11
v -2 15 -20
v -2 35 20
v -2 35 11
v -2 35 10
v -2 35 -10
v -2 35 -11
v -2 35 -20
v -1 15 11
v -1 15 10
v -1 15 -10
v -1 15 -11
v -1 35 11
v -1 35 10
v -1 35 -10
v -1 35 -11
v 3 5 11
v 3 5 10
v 3 5 -10
v 3 5 -11
v 3 6 11
v 3 6 10
v 3 6 -10
v 3 6 -11
v -3 5 11
v -3 5 10
v -3 5 -10
v -3 5 -11
v -3 6 11
v -3 6 10
v -3 6 -10
v -3 6 -11
v 1 15 11
v 1 15 10
v 1 15 -10
v 1 15 -11
v 1 35 11
v 1 35 10
v 1 35 -10
v 1 35 -11
v 2 5 11
v 2 5 10
v 2 5 -10
v 2 5 -11
v 2 6 11
v 2 6 10
v 2 6 -10
v 2 6 -11
v 2 15 20
v 2 15 11
v 2 15 10
v 2 15 -10
v 2 15 -11
v 2 15 -20
v 2 35 20
v 2 35 11
v 2 35 10
v 2 35 -10
v 2 35 -11
v 2 35 -20
v 3 1 19
v 3 1 18
v 3 1 6
v 3 1 5
v 3 1 -5
v 3 1 -6
v 3 1 -18
v 3 1 -19
v 3 2 19
v 3 2 18
v 3 2 6
v 3 2 5
v 3 2 -5
v 3 2 -6
v 3 2 -18
v 3 2 -19
v 3 12 19
v 3 12 18
v 3 12 6
v 3 12 5
v 3 12 -5
v 3 12 -6
v 3 12 -18
v 3 12 -19
v 3 13 19
v 3 13 18
v 3 13 6
v 3 13 5
v 3 13 -5
v 3 13 -6
v 3 13 -18
v 3 13 -19
v 3 14 20
v 3 14 -20
v 3 15 20
v 3 15 -20
v 3 35 20
v 3 35 -20
v 3 36 20
v 3 36 -20
v 3 38 19
v 3 38 18
v 3 38 -18
v 3 38 -19
v 3 39 19
v 3 39 18
v 3 39 -18
v 3 39 -19
v 4 0 20
v 4 0 -20
v 4 1 19
v 4 1 18
v 4 1 6
v 4 1 5
v 4 1 -5
v 4 1 -6
v 4 1 -18
v 4 1 -19
v 4 2 19
v 4 2 18
v 4 2 6
v 4 2 5
v 4 2 -5
v 4 2 -6
v 4 2 -18
v 4 2 -19
v 4 12 19
v 4 12 18
v 4 12 6
v 4 12 5
v 4 12 -5
v 4 12 -6
v 4 12 -18
v 4 12 -19
v 4 13 19
v 4 13 18
v 4 13 6
v 4 13 5
v 4 13 -5
v 4 13 -6
v 4 13 -18
v 4 13 -19
v 4 14 20
v 4 14 -20
v 4 36 20
v 4 36 -20
v 4 38 19
v 4 38 18
v 4 38 -18
v 4 38 -19
v 4 39 19
v 4 39 18
v 4 39 -18
v 4 39 -19
v 4 40 20
v 4 40 -20
v -4 0 20
v -4 14 20
v -4 36 20
v -4 40 20
v -3 14 20
v -3 15 20
v -3 35 20
v -3 36 20
v -3 40 20
v -2 0 20
v -2 14 20
v -2 15 20
v -2 35 20
v -2 36 20
v 2 0 20
v 2 14 20
v 2 15 20
v 2 35 20
v 2 36 20
v 3 14 20
v 3 15 20
v 3 35 20
v 3 36 20
v 3 40 20
v 4 0 20
v 4 14 20
v 4 36 20
v 4 40 20
v -4 1 18
v -4 2 18
v -4 12 18
v -4 13 18
v -4 38 18
v -4 39 18
v -3 1 18
v -3 2 18
v -3 12 18
v -3 13 18
v -3 38 18
v -3 39 18
v 3 1 18
v 3 2 18
v 3 12 18
v 3 13 18
v 3 38 18
v 3 39 18
v 4 1 18
v 4 2 18
v 4 12 18
v 4 13 18
v 4 38 18
v 4 39 18
v -3 5 10
v -3 6 10
v -2 5 10
v -2 6 10
v -2 15 10
v -2 35 10
v -1 15 10
v -1 35 10
v 1 15 10
v 1 35 10
v 2 5 10
v 2 6 10
v 2 15 10
v 2 35 10
v 3 5 10
v 3 6 10
v -4 1 5
v -4 2 5
v -4 12 5
v -4 13 5
v -3 1 5
v -3 2 5
v -3 12 5
v -3 13 5
v 3 1 5
v 3 2 5
v 3 12 5
v 3 13 5
v 4 1 5
v 4 2 5
v 4 12 5
v 4 13 5
v -4 1 -6
v -4 2 -6
v -4 12 -6
v -4 13 -6
v -3 1 -6
v -3 2 -6
v -3 12 -6
v -3 13 -6
v 3 1 -6
v 3 2 -6
v 3 12 -6
v 3 13 -6
v 4 1 -6
v 4 2 -6
v 4 12 -6
v 4 13 -6
v -3 5 -11
v -3 6 -11
v -2 5 -11
v -2 6 -11
v -2 15 -11
v -2 35 -11
v -1 15 -11
v -1 35 -11
v 1 15 -11
v 1 35 -11
v 2 5 -11
v 2 6 -11
v 2 15 -11
v 2 35 -11
v 3 5 -11
v 3 6 -11
v -4 1 -19
v -4 2 -19
v -4 12 -19
v -4 13 -19
v -4 38 -19
v -4 39 -19
v -3 1 -19
v -3 2 -19
v -3 12 -19
v -3 13 -19
v -3 38 -19
v -3 39 -19
v 3 1 -19
v 3 2 -19
v 3 12 -19
v 3 13 -19
v 3 38 -19
v 3 39 -19
v 4 1 -19
v 4 2 -19
v 4 12 -19
v 4 13 -19
v 4 38 -19
v 4 39 -19
v -4 1 19
v -4 2 19
v -4 12 19
v -4 13 19
v -4 38 19
v -4 39 19
v -3 1 19
v -3 2 19
v -3 12 19
v -3 13 19
v -3 38 19
v -3 39 19
v 3 1 19
v 3 2 19
v 3 12 19
v 3 13 19
v 3 38 19
v 3 39 19
v 4 1 19
v 4 2 19
v 4 12 19
v 4 13 19
v 4 38 19
v 4 39 19
v -3 5 11
v -3 6 11
v -2 5 11
v -2 6 11
v -2 15 11
v -2 35 11
v -1 15 11
v -1 35 11
v 1 15 11
v 1 35 11
v 2 5 11
v 2 6 11
v 2 15 11
v 2 35 11
v 3 5 11
v 3 6 11
v -4 1 6
v -4 2 6
v -4 12 6
v -4 13 6
v -3 1 6
v -3 2 6
v -3 12 6
v -3 13 6
v 3 1 6
v 3 2 6
v 3 12 6
v 3 13 6
v 4 1 6
v 4 2 6
v 4 12 6
v 4 13 6
v -4 1 -5
v -4 2 -5
v -4 12 -5
v -4 13 -5
v -3 1 -5
v -3 2 -5
v -3 12 -5
v -3 13 -5
v 3 1 -5
v 3 2 -5
v 3 12 -5
v 3 13 -5
v 4 1 -5
v 4 2 -5
v 4 12 -5
v 4 13 -5
v -3 5 -10
v -3 6 -10
v -2 5 -10
v -2 6 -10
v -2 15 -10
v -2 35 -10
v -1 15 -10
v -1 35 -10
v 1 15 -10
v 1 35 -10
v 2 5 -10
v 2 6 -10
v 2 15 -10
v 2 35 -10
v 3 5 -10
v 3 6 -10
v -4 1 -18
v -4 2 -18
v -4 12 -18
v -4 13 -18
v -4 38 -18
v -4 39 -18
v -3 1 -18
v -3 2 -18
v -3 12 -18
v -3 13 -18
v -3 38 -18
v -3 39 -18
v 3 1 -18
v 3 2 -18
v 3 12 -18
v 3 13 -18
v 3 38 -18
v 3 39 -18
v 4 1 -18
v 4 2 -18
v 4 12 -18
v 4 13 -18
v 4 38 -18
v 4 39 -18
v -4 0 -20
v -4 14 -20
v -4 36 -20
v -4 40 -20
v -3 14 -20
v -3 15 -20
v -3 35 -20
v -3 36 -20
v -3 40 -20
v -2 0 -20
v -2 14 -20
v -2 15 -20
v -2 35 -20
v -2 36 -20
v 2 0 -20
v 2 14 -20
v 2 15 -20
v 2 35 -20
v 2 36 -20
v 3 14 -20
v 3 15 -20
v 3 35 -20
v 3 36 -20
v 3 40 -20
v 4 0 -20
v 4 14 -20
v 4 36 -20
v 4 40 -20
v -4 0 20
v -2 0 20
v 2 0 20
v 4 0 20
v -4 0 -20
v -2 0 -20
v 2 0 -20
v 4 0 -20
v -4 2 19
v -3 2 19
v 3 2 19
v 4 2 19
v -4 2 18
v -3 2 18
v 3 2 18
v 4 2 18
v -4 2 6
v -3 2 6
v 3 2 6
v 4 2 6
v -4 2 5
v -3 2 5
v 3 2 5
v 4 2 5
v -4 2 -5
v -3 2 -5
v 3 2 -5
v 4 2 -5
v -4 2 -6
v -3 2 -6
v 3 2 -6
v 4 2 -6
v -4 2 -18
v -3 2 -18
v 3 2 -18
v 4 2 -18
v -4 2 -19
v -3 2 -19
v 3 2 -19
v 4 2 -19
v -3 6 11
v -2 6 11
v 2 6 11
v 3 6 11
v -3 6 10
v -2 6 10
v 2 6 10
v 3 6 10
v -3 6 -10
v -2 6 -10
v 2 6 -10
v 3 6 -10
v -3 6 -11
v -2 6 -11
v 2 6 -11
v 3 6 -11
v -4 13 19
v -3 13 19
v 3 13 19
v 4 13 19
v -4 13 18
v -3 13 18
v 3 13 18
v 4 13 18
v -4 13 6
v -3 13 6
v 3 13 6
v 4 13 6
v -4 13 5
v -3 13 5
v 3 13 5
v 4 13 5
v -4 13 -5
v -3 13 -5
v 3 13 -5
v 4 13 -5
v -4 13 -6
v -3 13 -6
v 3 13 -6
v 4 13 -6
v -4 13 -18
v -3 13 -18
v 3 13 -18
v 4 13 -18
v -4 13 -19
v -3 13 -19
v 3 13 -19
v 4 13 -19
v -3 35 20
v -2 35 20
v 2 35 20
v 3 35 20
v -2 35 11
v -1 35 11
v 1 35 11
v 2 35 11
v -2 35 10
v -1 35 10
v 1 35 10
v 2 35 10
v -2 35 -10
v -1 35 -10
v 1 35 -10
v 2 35 -10
v -2 35 -11
v -1 35 -11
v 1 35 -11
v 2 35 -11
v -3 35 -20
v -2 35 -20
v 2 35 -20
v 3 35 -20
v -4 36 20
v -3 36 20
v 3 36 20
v 4 36 20
v -4 36 -20
v -3 36 -20
v 3 36 -20
v 4 36 -20
v -4 39 19
v -3 39 19
v 3 39 19
v 4 39 19
v -4 39 18
v -3 39 18
v 3 39 18
v 4 39 18
v -4 39 -18
v -3 39 -18
v 3 39 -18
v 4 39 -18
v -4 39 -19
v -3 39 -19
v 3 39 -19
v 4 39 -19
v -4 1 19
v -3 1 19
v 3 1 19
v 4 1 19
v -4 1 18
v -3 1 18
v 3 1 18
v 4 1 18
v -4 1 6
v -3 1 6
v 3 1 6
v 4 1 6
v -4 1 5
v -3 1 5
v 3 1 5
v 4 1 5
v -4 1 -5
v -3 1 -5
v 3 1 -5
v 4 1 -5
v -4 1 -6
v -3 1 -6
v 3 1 -6
v 4 1 -6
v -4 1 -18
v -3 1 -18
v 3 1 -18
v 4 1 -18
v -4 1 -19
v -3 1 -19
v 3 1 -19
v 4 1 -19
v -3 5 11
v -2 5 11
v 2 5 11
v 3 5 11
v -3 5 10
v -2 5 10
v 2 5 10
v 3 5 10
v -3 5 -10
v -2 5 -10
v 2 5 -10
v 3 5 -10
v -3 5 -11
v -2 5 -11
v 2 5 -11
v 3 5 -11
v -4 12 19
v -3 12 19
v 3 12 19
v 4 12 19
v -4 12 18
v -3 12 18
v 3 12 18
v 4 12 18
v -4 12 6
v -3 12 6
v 3 12 6
v 4 12 6
v -4 12 5
v -3 12 5
v 3 12 5
v 4 12 5
v -4 12 -5
v -3 12 -5
v 3 12 -5
v 4 12 -5
v -4 12 -6
v -3 12 -6
v 3 12 -6
v 4 12 -6
v -4 12 -18
v -3 12 -18
v 3 12 -18
v 4 12 -18
v -4 12 -19
v -3 12 -19
v 3 12 -19
v 4 12 -19
v -4 14 20
v -3 14 20
v 3 14 20
v 4 14 20
v -4 14 -20
v -3 14 -20
v 3 14 -20
v 4 14 -20
v -3 15 20
v -2 15 20
v 2 15 20
v 3 15 20
v -2 15 11
v -1 15 11
v 1 15 11
v 2 15 11
v -2 15 10
v -1 15 10
v 1 15 10
v 2 15 10
v -2 15 -10
v -1 15 -10
v 1 15 -10
v 2 15 -10
v -2 15 -11
v -1 15 -11
v 1 15 -11
v 2 15 -11
v -3 15 -20
v -2 15 -20
v 2 15 -20
v 3 15 -20
v -4 38 19
v -3 38 19
v 3 38 19
v 4 38 19
v -4 38 18
v -3 38 18
v 3 38 18
v 4 38 18
v -4 38 -18
v -3 38 -18
v 3 38 -18
v 4 38 -18
v -4 38 -19
v -3 38 -19
v 3 38 -19
v 4 38 -19
v -4 40 20
v -3 40 20
v 3 40 20
v 4 40 20
v -4 40 -20
v -3 40 -20
v 3 40 -20
v 4 40 -20

# faces
f 3/2/1 2/2/1 1/2/1
f 4/2/1 2/2/1 3/2/1
f 5/2/1 2/2/1 4/2/1
f 6/2/1 2/2/1 5/2/1
f 7/2/1 2/2/1 6/2/1
f 8/2/1 2/2/1 7/2/1
f 9/2/1 2/2/1 8/2/1
f 10/2/1 2/2/1 9/2/1
f 11/2/1 3/2/1 1/2/1
f 12/2/1 5/2/1 4/2/1
f 13/2/1 5/2/1 12/2/1
f 14/2/1 7/2/1 6/2/1
f 15/2/1 7/2/1 14/2/1
f 16/2/1 9/2/1 8/2/1
f 17/2/1 9/2/1 16/2/1
f 18/2/1 2/2/1 10/2/1
f 19/2/1 17/2/1 16/2/1
f 19/2/1 18/2/1 17/2/1
f 19/2/1 15/2/1 14/2/1
f 19/2/1 11/2/1 1/2/1
f 19/2/1 16/2/1 15/2/1
f 19/2/1 13/2/1 12/2/1
f 19/2/1 14/2/1 13/2/1
f 19/2/1 12/2/1 11/2/1
f 20/2/1 18/2/1 19/2/1
f 21/2/1 18/2/1 20/2/1
f 22/2/1 18/2/1 21/2/1
f 23/2/1 18/2/1 22/2/1
f 24/2/1 18/2/1 23/2/1
f 25/2/1 18/2/1 24/2/1
f 26/2/1 2/2/1 18/2/1
f 26/2/1 18/2/1 25/2/1
f 27/2/1 19/2/1 1/2/1
f 28/2/1 21/2/1 20/2/1
f 29/2/1 21/2/1 28/2/1
f 30/2/1 23/2/1 22/2/1
f 31/2/1 23/2/1 30/2/1
f 32/2/1 25/2/1 24/2/1
f 33/2/1 25/2/1 32/2/1
f 34/2/1 2/2/1 26/2/1
f 35/2/1 31/2/1 30/2/1
f 35/2/1 34/2/1 33/2/1
f 35/2/1 33/2/1 32/2/1
f 35/2/1 29/2/1 28/2/1
f 35/2/1 32/2/1 31/2/1
f 35/2/1 27/2/1 1/2/1
f 35/2/1 30/2/1 29/2/1
f 35/2/1 28/2/1 27/2/1
f 36/2/1 2/2/1 34/2/1
f 36/2/1 34/2/1 35/2/1
f 39/2/1 38/2/1 37/2/1
f 40/2/1 38/2/1 39/2/1
f 41/2/1 38/2/1 40/2/1
f 42/2/1 38/2/1 41/2/1
f 43/2/1 39/2/1 37/2/1
f 44/2/1 41/2/1 40/2/1
f 45/2/1 41/2/1 44/2/1
f 46/2/1 38/2/1 42/2/1
f 47/2/1 45/2/1 44/2/1
f 47/2/1 46/2/1 45/2/1
f 47/2/1 43/2/1 37/2/1
f 47/2/1 44/2/1 43/2/1
f 48/2/1 38/2/1 46/2/1
f 48/2/1 46/2/1 47/2/1
f 57/4/1 50/4/1 49/4/1
f 58/4/1 50/4/1 57/4/1
f 59/4/1 52/4/1 51/4/1
f 60/4/1 52/4/1 59/4/1
f 61/4/1 54/4/1 53/4/1
f 62/4/1 54/4/1 61/4/1
f 63/4/1 56/4/1 55/4/1
f 64/4/1 56/4/1 63/4/1
f 73/4/1 66/4/1 65/4/1
f 74/4/1 66/4/1 73/4/1
f 75/4/1 68/4/1 67/4/1
f 76/4/1 68/4/1 75/4/1
f 77/4/1 70/4/1 69/4/1
f 78/4/1 70/4/1 77/4/1
f 79/4/1 72/4/1 71/4/1
f 80/4/1 72/4/1 79/4/1
f 83/1/1 82/1/1 81/1/1
f 84/1/1 82/1/1 83/1/1
f 87/1/1 86/1/1 85/1/1
f 88/1/1 86/1/1 87/1/1
f 93/4/1 90/4/1 89/4/1
f 94/4/1 90/4/1 93/4/1
f 95/4/1 92/4/1 91/4/1
f 96/4/1 92/4/1 95/4/1
f 101/3/1 98/3/1 97/3/1
f 102/3/1 98/3/1 101/3/1
f 103/3/1 100/3/1 99/3/1
f 104/3/1 100/3/1 103/3/1
f 111/3/1 106/3/1 105/3/1
f 112/3/1 106/3/1 111/3/1
f 113/3/1 108/3/1 107/3/1
f 114/3/1 108/3/1 113/3/1
f 115/3/1 110/3/1 109/3/1
f 116/3/1 110/3/1 115/3/1
f 121/4/1 118/4/1 117/4/1
f 122/4/1 118/4/1 121/4/1
f 123/4/1 120/4/1 119/4/1
f 124/4/1 120/4/1 123/4/1
f 129/2/1 126/2/1 125/2/1
f 130/2/1 126/2/1 129/2/1
f 131/2/1 128/2/1 127/2/1
f 132/2/1 128/2/1 131/2/1
f 133/2/2 134/2/2 137/2/2
f 137/2/2 134/2/2 138/2/2
f 135/2/2 136/2/2 139/2/2
f 139/2/2 136/2/2 140/2/2
f 141/4/2 142/4/2 145/4/2
f 145/4/2 142/4/2 146/4/2
f 143/4/2 144/4/2 147/4/2
f 147/4/2 144/4/2 148/4/2
f 149/3/2 150/3/2 153/3/2
f 153/3/2 150/3/2 154/3/2
f 151/3/2 152/3/2 155/3/2
f 155/3/2 152/3/2 156/3/2
f 157/3/2 158/3/2 163/3/2
f 163/3/2 158/3/2 164/3/2
f 159/3/2 160/3/2 165/3/2
f 165/3/2 160/3/2 166/3/2
f 161/3/2 162/3/2 167/3/2
f 167/3/2 162/3/2 168/3/2
f 169/4/2 170/4/2 177/4/2
f 177/4/2 170/4/2 178/4/2
f 171/4/2 172/4/2 179/4/2
f 179/4/2 172/4/2 180/4/2
f 173/4/2 174/4/2 181/4/2
f 181/4/2 174/4/2 182/4/2
f 175/4/2 176/4/2 183/4/2
f 183/4/2 176/4/2 184/4/2
f 185/4/2 186/4/2 193/4/2
f 193/4/2 186/4/2 194/4/2
f 187/4/2 188/4/2 195/4/2
f 195/4/2 188/4/2 196/4/2
f 189/4/2 190/4/2 197/4/2
f 197/4/2 190/4/2 198/4/2
f 191/4/2 192/4/2 199/4/2
f 199/4/2 192/4/2 200/4/2
f 201/1/2 202/1/2 203/1/2
f 203/1/2 202/1/2 204/1/2
f 205/1/2 206/1/2 207/1/2
f 207/1/2 206/1/2 208/1/2
f 209/4/2 210/4/2 213/4/2
f 213/4/2 210/4/2 214/4/2
f 211/4/2 212/4/2 215/4/2
f 215/4/2 212/4/2 216/4/2
f 217/2/2 218/2/2 219/2/2
f 219/2/2 218/2/2 220/2/2
f 220/2/2 218/2/2 221/2/2
f 221/2/2 218/2/2 222/2/2
f 222/2/2 218/2/2 223/2/2
f 223/2/2 218/2/2 224/2/2
f 224/2/2 218/2/2 225/2/2
f 225/2/2 218/2/2 226/2/2
f 217/2/2 219/2/2 227/2/2
f 220/2/2 221/2/2 228/2/2
f 228/2/2 221/2/2 229/2/2
f 222/2/2 223/2/2 230/2/2
f 230/2/2 223/2/2 231/2/2
f 224/2/2 225/2/2 232/2/2
f 232/2/2 225/2/2 233/2/2
f 226/2/2 218/2/2 234/2/2
f 232/2/2 233/2/2 235/2/2
f 233/2/2 234/2/2 235/2/2
f 230/2/2 231/2/2 235/2/2
f 217/2/2 227/2/2 235/2/2
f 231/2/2 232/2/2 235/2/2
f 228/2/2 229/2/2 235/2/2
f 229/2/2 230/2/2 235/2/2
f 227/2/2 228/2/2 235/2/2
f 235/2/2 234/2/2 236/2/2
f 236/2/2 234/2/2 237/2/2
f 237/2/2 234/2/2 238/2/2
f 238/2/2 234/2/2 239/2/2
f 239/2/2 234/2/2 240/2/2
f 240/2/2 234/2/2 241/2/2
f 234/2/2 218/2/2 242/2/2
f 241/2/2 234/2/2 242/2/2
f 217/2/2 235/2/2 243/2/2
f 236/2/2 237/2/2 244/2/2
f 244/2/2 237/2/2 245/2/2
f 238/2/2 239/2/2 246/2/2
f 246/2/2 239/2/2 247/2/2
f 240/2/2 241/2/2 248/2/2
f 248/2/2 241/2/2 249/2/2
f 242/2/2 218/2/2 250/2/2
f 246/2/2 247/2/2 251/2/2
f 249/2/2 250/2/2 251/2/2
f 248/2/2 249/2/2 251/2/2
f 244/2/2 245/2/2 251/2/2
f 247/2/2 248/2/2 251/2/2
f 217/2/2 243/2/2 251/2/2
f 245/2/2 246/2/2 251/2/2
f 243/2/2 244/2/2 251/2/2
f 250/2/2 218/2/2 252/2/2
f 251/2/2 250/2/2 252/2/2
f 253/2/2 254/2/2 255/2/2
f 255/2/2 254/2/2 256/2/2
f 256/2/2 254/2/2 257/2/2
f 257/2/2 254/2/2 258/2/2
f 253/2/2 255/2/2 259/2/2
f 256/2/2 257/2/2 260/2/2
f 260/2/2 257/2/2 261/2/2
f 258/2/2 254/2/2 262/2/2
f 260/2/2 261/2/2 263/2/2
f 261/2/2 262/2/2 263/2/2
f 253/2/2 259/2/2 263/2/2
f 259/2/2 260/2/2 263/2/2
f 262/2/2 254/2/2 264/2/2
f 263/2/2 262/2/2 264/2/2
f 269/2/3 266/2/3 265/2/3
f 272/2/3 268/2/3 267/2/3
f 273/2/3 268/2/3 272/2/3
f 274/2/3 269/2/3 265/2/3
f 275/1/3 270/1/3 269/1/3
f 275/2/3 269/2/3 274/2/3
f 276/1/3 270/1/3 275/1/3
f 277/1/3 272/1/3 271/1/3
f 278/3/3 273/3/3 272/3/3
f 278/1/3 272/1/3 277/1/3
f 279/3/3 276/3/3 275/3/3
f 279/3/3 277/3/3 276/3/3
f 279/3/3 278/3/3 277/3/3
f 279/3/3 275/3/3 274/3/3
f 280/3/3 278/3/3 279/3/3
f 281/3/3 278/3/3 280/3/3
f 282/3/3 278/3/3 281/3/3
f 283/3/3 273/3/3 278/3/3
f 283/3/3 278/3/3 282/3/3
f 284/2/3 280/2/3 279/2/3
f 284/1/3 281/1/3 280/1/3
f 285/1/3 281/1/3 284/1/3
f 286/1/3 283/1/3 282/1/3
f 287/3/3 273/3/3 283/3/3
f 287/1/3 283/1/3 286/1/3
f 288/3/3 273/3/3 287/3/3
f 289/2/3 284/2/3 279/2/3
f 290/2/3 284/2/3 289/2/3
f 291/2/3 288/2/3 287/2/3
f 292/2/3 288/2/3 291/2/3
f 299/2/3 294/2/3 293/2/3
f 300/2/3 294/2/3 299/2/3
f 301/2/3 296/2/3 295/2/3
f 302/2/3 296/2/3 301/2/3
f 303/2/3 298/2/3 297/2/3
f 304/2/3 298/2/3 303/2/3
f 311/2/3 306/2/3 305/2/3
f 312/2/3 306/2/3 311/2/3
f 313/2/3 308/2/3 307/2/3
f 314/2/3 308/2/3 313/2/3
f 315/2/3 310/2/3 309/2/3
f 316/2/3 310/2/3 315/2/3
f 319/2/3 318/2/3 317/2/3
f 320/2/3 318/2/3 319/2/3
f 323/3/3 322/3/3 321/3/3
f 324/3/3 322/3/3 323/3/3
f 329/3/3 326/3/3 325/3/3
f 330/3/3 326/3/3 329/3/3
f 331/2/3 328/2/3 327/2/3
f 332/2/3 328/2/3 331/2/3
f 337/2/3 334/2/3 333/2/3
f 338/2/3 334/2/3 337/2/3
f 339/2/3 336/2/3 335/2/3
f 340/2/3 336/2/3 339/2/3
f 345/2/3 342/2/3 341/2/3
f 346/2/3 342/2/3 345/2/3
f 347/2/3 344/2/3 343/2/3
f 348/2/3 344/2/3 347/2/3
f 353/2/3 350/2/3 349/2/3
f 354/2/3 350/2/3 353/2/3
f 355/2/3 352/2/3 351/2/3
f 356/2/3 352/2/3 355/2/3
f 361/2/3 358/2/3 357/2/3
f 362/2/3 358/2/3 361/2/3
f 363/2/3 360/2/3 359/2/3
f 364/2/3 360/2/3 363/2/3
f 367/2/3 366/2/3 365/2/3
f 368/2/3 366/2/3 367/2/3
f 371/3/3 370/3/3 369/3/3
f 372/3/3 370/3/3 371/3/3
f 377/3/3 374/3/3 373/3/3
f 378/3/3 374/3/3 377/3/3
f 379/2/3 376/2/3 375/2/3
f 380/2/3 376/2/3 379/2/3
f 387/2/3 382/2/3 381/2/3
f 388/2/3 382/2/3 387/2/3
f 389/2/3 384/2/3 383/2/3
f 390/2/3 384/2/3 389/2/3
f 391/2/3 386/2/3 385/2/3
f 392/2/3 386/2/3 391/2/3
f 399/2/3 394/2/3 393/2/3
f 400/2/3 394/2/3 399/2/3
f 401/2/3 396/2/3 395/2/3
f 402/2/3 396/2/3 401/2/3
f 403/2/3 398/2/3 397/2/3
f 404/2/3 398/2/3 403/2/3
f 405/2/4 406/2/4 411/2/4
f 411/2/4 406/2/4 412/2/4
f 407/2/4 408/2/4 413/2/4
f 413/2/4 408/2/4 414/2/4
f 409/2/4 410/2/4 415/2/4
f 415/2/4 410/2/4 416/2/4
f 417/2/4 418/2/4 423/2/4
f 423/2/4 418/2/4 424/2/4
f 419/2/4 420/2/4 425/2/4
f 425/2/4 420/2/4 426/2/4
f 421/2/4 422/2/4 427/2/4
f 427/2/4 422/2/4 428/2/4
f 429/2/4 430/2/4 431/2/4
f 431/2/4 430/2/4 432/2/4
f 433/3/4 434/3/4 435/3/4
f 435/3/4 434/3/4 436/3/4
f 437/3/4 438/3/4 441/3/4
f 441/3/4 438/3/4 442/3/4
f 439/2/4 440/2/4 443/2/4
f 443/2/4 440/2/4 444/2/4
f 445/2/4 446/2/4 449/2/4
f 449/2/4 446/2/4 450/2/4
f 447/2/4 448/2/4 451/2/4
f 451/2/4 448/2/4 452/2/4
f 453/2/4 454/2/4 457/2/4
f 457/2/4 454/2/4 458/2/4
f 455/2/4 456/2/4 459/2/4
f 459/2/4 456/2/4 460/2/4
f 461/2/4 462/2/4 465/2/4
f 465/2/4 462/2/4 466/2/4
f 463/2/4 464/2/4 467/2/4
f 467/2/4 464/2/4 468/2/4
f 469/2/4 470/2/4 473/2/4
f 473/2/4 470/2/4 474/2/4
f 471/2/4 472/2/4 475/2/4
f 475/2/4 472/2/4 476/2/4
f 477/2/4 478/2/4 479/2/4
f 479/2/4 478/2/4 480/2/4
f 481/3/4 482/3/4 483/3/4
f 483/3/4 482/3/4 484/3/4
f 485/3/4 486/3/4 489/3/4
f 489/3/4 486/3/4 490/3/4
f 487/2/4 488/2/4 491/2/4
f 491/2/4 488/2/4 492/2/4
f 493/2/4 494/2/4 499/2/4
f 499/2/4 494/2/4 500/2/4
f 495/2/4 496/2/4 501/2/4
f 501/2/4 496/2/4 502/2/4
f 497/2/4 498/2/4 503/2/4
f 503/2/4 498/2/4 504/2/4
f 505/2/4 506/2/4 511/2/4
f 511/2/4 506/2/4 512/2/4
f 507/2/4 508/2/4 513/2/4
f 513/2/4 508/2/4 514/2/4
f 509/2/4 510/2/4 515/2/4
f 515/2/4 510/2/4 516/2/4
f 517/2/4 518/2/4 521/2/4
f 519/2/4 520/2/4 524/2/4
f 524/2/4 520/2/4 525/2/4
f 517/2/4 521/2/4 526/2/4
f 521/1/4 522/1/4 527/1/4
f 526/2/4 521/2/4 527/2/4
f 527/1/4 522/1/4 528/1/4
f 523/1/4 524/1/4 529/1/4
f 524/3/4 525/3/4 530/3/4
f 529/1/4 524/1/4 530/1/4
f 527/3/4 528/3/4 531/3/4
f 528/3/4 529/3/4 531/3/4
f 529/3/4 530/3/4 531/3/4
f 526/3/4 527/3/4 531/3/4
f 531/3/4 530/3/4 532/3/4
f 532/3/4 530/3/4 533/3/4
f 533/3/4 530/3/4 534/3/4
f 530/3/4 525/3/4 535/3/4
f 534/3/4 530/3/4 535/3/4
f 531/2/4 532/2/4 536/2/4
f 532/1/4 533/1/4 536/1/4
f 536/1/4 533/1/4 537/1/4
f 534/1/4 535/1/4 538/1/4
f 535/3/4 525/3/4 539/3/4
f 538/1/4 535/1/4 539/1/4
f 539/3/4 525/3/4 540/3/4
f 531/2/4 536/2/4 541/2/4
f 541/2/4 536/2/4 542/2/4
f 539/2/4 540/2/4 543/2/4
f 543/2/4 540/2/4 544/2/4
f 549/2/5 546/2/5 545/2/5
f 550/3/5 547/3/5 546/3/5
f 550/2/5 546/2/5 549/2/5
f 551/2/5 548/2/5 547/2/5
f 551/3/5 547/3/5 550/3/5
f 552/2/5 548/2/5 551/2/5
f 557/2/5 554/2/5 553/2/5
f 558/2/5 554/2/5 557/2/5
f 559/2/5 556/2/5 555/2/5
f 560/2/5 556/2/5 559/2/5
f 565/2/5 562/2/5 561/2/5
f 566/2/5 562/2/5 565/2/5
f 567/2/5 564/2/5 563/2/5
f 568/2/5 564/2/5 567/2/5
f 573/2/5 570/2/5 569/2/5
f 574/2/5 570/2/5 573/2/5
f 575/2/5 572/2/5 571/2/5
f 576/2/5 572/2/5 575/2/5
f 581/2/5 578/2/5 577/2/5
f 582/2/5 578/2/5 581/2/5
f 583/2/5 580/2/5 579/2/5
f 584/2/5 580/2/5 583/2/5
f 589/2/5 586/2/5 585/2/5
f 590/2/5 586/2/5 589/2/5
f 591/2/5 588/2/5 587/2/5
f 592/2/5 588/2/5 591/2/5
f 597/2/5 594/2/5 593/2/5
f 598/2/5 594/2/5 597/2/5
f 599/2/5 596/2/5 595/2/5
f 600/2/5 596/2/5 599/2/5
f 605/2/5 602/2/5 601/2/5
f 606/2/5 602/2/5 605/2/5
f 607/2/5 604/2/5 603/2/5
f 608/2/5 604/2/5 607/2/5
f 613/2/5 610/2/5 609/2/5
f 614/2/5 610/2/5 613/2/5
f 615/2/5 612/2/5 611/2/5
f 616/2/5 612/2/5 615/2/5
f 621/2/5 618/2/5 617/2/5
f 622/2/5 618/2/5 621/2/5
f 623/2/5 620/2/5 619/2/5
f 624/2/5 620/2/5 623/2/5
f 629/2/5 626/2/5 625/2/5
f 630/2/5 626/2/5 629/2/5
f 631/2/5 628/2/5 627/2/5
f 632/2/5 628/2/5 631/2/5
f 637/1/5 634/1/5 633/1/5
f 640/1/5 636/1/5 635/1/5
f 641/3/5 638/3/5 637/3/5
f 641/1/5 637/1/5 633/1/5
f 642/3/5 638/3/5 641/3/5
f 643/3/5 640/3/5 639/3/5
f 644/1/5 636/1/5 640/1/5
f 644/3/5 640/3/5 643/3/5
f 645/1/5 641/1/5 633/1/5
f 648/1/5 636/1/5 644/1/5
f 649/3/5 646/3/5 645/3/5
f 649/1/5 645/1/5 633/1/5
f 650/3/5 646/3/5 649/3/5
f 651/3/5 648/3/5 647/3/5
f 652/1/5 636/1/5 648/1/5
f 652/3/5 648/3/5 651/3/5
f 653/1/5 649/1/5 633/1/5
f 654/1/5 649/1/5 653/1/5
f 655/1/5 636/1/5 652/1/5
f 656/1/5 636/1/5 655/1/5
f 661/2/5 658/2/5 657/2/5
f 662/2/5 658/2/5 661/2/5
f 663/2/5 660/2/5 659/2/5
f 664/2/5 660/2/5 663/2/5
f 669/2/5 666/2/5 665/2/5
f 670/2/5 666/2/5 669/2/5
f 671/2/5 668/2/5 667/2/5
f 672/2/5 668/2/5 671/2/5
f 677/2/5 674/2/5 673/2/5
f 678/2/5 674/2/5 677/2/5
f 679/2/5 676/2/5 675/2/5
f 680/2/5 676/2/5 679/2/5
f 681/2/6 682/2/6 685/2/6
f 685/2/6 682/2/6 686/2/6
f 683/2/6 684/2/6 687/2/6
f 687/2/6 684/2/6 688/2/6
f 689/2/6 690/2/6 693/2/6
f 693/2/6 690/2/6 694/2/6
f 691/2/6 692/2/6 695/2/6
f 695/2/6 692/2/6 696/2/6
f 697/2/6 698/2/6 701/2/6
f 701/2/6 698/2/6 702/2/6
f 699/2/6 700/2/6 703/2/6
f 703/2/6 700/2/6 704/2/6
f 705/2/6 706/2/6 709/2/6
f 709/2/6 706/2/6 710/2/6
f 707/2/6 708/2/6 711/2/6
f 711/2/6 708/2/6 712/2/6
f 713/2/6 714/2/6 717/2/6
f 717/2/6 714/2/6 718/2/6
f 715/2/6 716/2/6 719/2/6
f 719/2/6 716/2/6 720/2/6
f 721/2/6 722/2/6 725/2/6
f 725/2/6 722/2/6 726/2/6
f 723/2/6 724/2/6 727/2/6
f 727/2/6 724/2/6 728/2/6
f 729/2/6 730/2/6 733/2/6
f 733/2/6 730/2/6 734/2/6
f 731/2/6 732/2/6 735/2/6
f 735/2/6 732/2/6 736/2/6
f 737/2/6 738/2/6 741/2/6
f 741/2/6 738/2/6 742/2/6
f 739/2/6 740/2/6 743/2/6
f 743/2/6 740/2/6 744/2/6
f 745/2/6 746/2/6 749/2/6
f 749/2/6 746/2/6 750/2/6
f 747/2/6 748/2/6 751/2/6
f 751/2/6 748/2/6 752/2/6
f 753/2/6 754/2/6 757/2/6
f 757/2/6 754/2/6 758/2/6
f 755/2/6 756/2/6 759/2/6
f 759/2/6 756/2/6 760/2/6
f 761/2/6 762/2/6 765/2/6
f 765/2/6 762/2/6 766/2/6
f 763/2/6 764/2/6 767/2/6
f 767/2/6 764/2/6 768/2/6
f 769/1/6 770/1/6 773/1/6
f 771/1/6 772/1/6 776/1/6
f 773/3/6 774/3/6 777/3/6
f 769/1/6 773/1/6 777/1/6
f 777/3/6 774/3/6 778/3/6
f 775/3/6 776/3/6 779/3/6
f 776/1/6 772/1/6 780/1/6
f 779/3/6 776/3/6 780/3/6
f 769/1/6 777/1/6 781/1/6
f 780/1/6 772/1/6 784/1/6
f 781/3/6 782/3/6 785/3/6
f 769/1/6 781/1/6 785/1/6
f 785/3/6 782/3/6 786/3/6
f 783/3/6 784/3/6 787/3/6
f 784/1/6 772/1/6 788/1/6
f 787/3/6 784/3/6 788/3/6
f 769/1/6 785/1/6 789/1/6
f 789/1/6 785/1/6 790/1/6
f 788/1/6 772/1/6 791/1/6
f 791/1/6 772/1/6 792/1/6
f 793/2/6 794/2/6 797/2/6
f 797/2/6 794/2/6 798/2/6
f 795/2/6 796/2/6 799/2/6
f 799/2/6 796/2/6 800/2/6
f 801/2/6 802/2/6 805/2/6
f 805/2/6 802/2/6 806/2/6
f 803/2/6 804/2/6 807/2/6
f 807/2/6 804/2/6 808/2/6
f 809/2/6 810/2/6 813/2/6
f 810/3/6 811/3/6 814/3/6
f 813/2/6 810/2/6 814/2/6
f 811/2/6 812/2/6 815/2/6
f 814/3/6 811/3/6 815/3/6
f 815/2/6 812/2/6 816/2/6
