# This file was created with Minddesk Qubicle 3.0
# Get Qubicle at www.getqubicle.com

mtllib wall.mtl

vn 0.0 0.0 1.0
vn 0.0 0.0 -1.0
vn -1.0 0.0 0.0
vn 1.0 0.0 0.0
vn 0.0 1.0 0.0
vn 0.0 -1.0 0.0

v 2.00000 35.00000 -20.00000
v 2.00000 15.00000 -20.00000
v -2.00000 15.00000 -20.00000
v -2.00000 35.00000 -20.00000
v 4.00000 14.00000 -20.00000
v 4.00000 0.00000 -20.00000
v -4.00000 0.00000 -20.00000
v -4.00000 14.00000 -20.00000
v 4.00000 40.00000 -20.00000
v 4.00000 36.00000 -20.00000
v -4.00000 36.00000 -20.00000
v -4.00000 40.00000 -20.00000
v 3.00000 15.00000 -20.00000
v 3.00000 14.00000 -20.00000
v -3.00000 14.00000 -20.00000
v -3.00000 15.00000 -20.00000
v 3.00000 36.00000 -20.00000
v 3.00000 35.00000 -20.00000
v -3.00000 35.00000 -20.00000
v -3.00000 36.00000 -20.00000
v -2.00000 6.00000 -10.00000
v -2.00000 5.00000 -10.00000
v -3.00000 5.00000 -10.00000
v -3.00000 6.00000 -10.00000
v 3.00000 6.00000 -10.00000
v 3.00000 5.00000 -10.00000
v 2.00000 5.00000 -10.00000
v 2.00000 6.00000 -10.00000
v -2.00000 14.00000 3.00000
v -2.00000 13.00000 3.00000
v -3.00000 13.00000 3.00000
v -3.00000 14.00000 3.00000
v 3.00000 14.00000 3.00000
v 3.00000 13.00000 3.00000
v 2.00000 13.00000 3.00000
v 2.00000 14.00000 3.00000
v -2.00000 15.00000 4.00000
v -2.00000 14.00000 4.00000
v -3.00000 14.00000 4.00000
v -3.00000 15.00000 4.00000
v 3.00000 15.00000 4.00000
v 3.00000 14.00000 4.00000
v 2.00000 14.00000 4.00000
v 2.00000 15.00000 4.00000
v -3.00000 12.00000 5.00000
v -3.00000 11.00000 5.00000
v -4.00000 11.00000 5.00000
v -4.00000 12.00000 5.00000
v 4.00000 12.00000 5.00000
v 4.00000 11.00000 5.00000
v 3.00000 11.00000 5.00000
v 3.00000 12.00000 5.00000
v -3.00000 13.00000 6.00000
v -3.00000 12.00000 6.00000
v -4.00000 12.00000 6.00000
v -4.00000 13.00000 6.00000
v 4.00000 13.00000 6.00000
v 4.00000 12.00000 6.00000
v 3.00000 12.00000 6.00000
v 3.00000 13.00000 6.00000
v -3.00000 14.00000 7.00000
v -3.00000 13.00000 7.00000
v -4.00000 13.00000 7.00000
v -4.00000 14.00000 7.00000
v 4.00000 14.00000 7.00000
v 4.00000 13.00000 7.00000
v 3.00000 13.00000 7.00000
v 3.00000 14.00000 7.00000
v -2.00000 6.00000 11.00000
v -2.00000 5.00000 11.00000
v -3.00000 5.00000 11.00000
v -3.00000 6.00000 11.00000
v 3.00000 6.00000 11.00000
v 3.00000 5.00000 11.00000
v 2.00000 5.00000 11.00000
v 2.00000 6.00000 11.00000
v -2.00000 35.00000 20.00000
v -2.00000 15.00000 20.00000
v 2.00000 15.00000 20.00000
v 2.00000 35.00000 20.00000
v -4.00000 14.00000 20.00000
v -4.00000 0.00000 20.00000
v 4.00000 0.00000 20.00000
v 4.00000 14.00000 20.00000
v -4.00000 40.00000 20.00000
v -4.00000 36.00000 20.00000
v 4.00000 36.00000 20.00000
v 4.00000 40.00000 20.00000
v -3.00000 15.00000 20.00000
v -3.00000 14.00000 20.00000
v 3.00000 14.00000 20.00000
v 3.00000 15.00000 20.00000
v -3.00000 36.00000 20.00000
v -3.00000 35.00000 20.00000
v 3.00000 35.00000 20.00000
v 3.00000 36.00000 20.00000
v -3.00000 6.00000 -11.00000
v -3.00000 5.00000 -11.00000
v -2.00000 5.00000 -11.00000
v -2.00000 6.00000 -11.00000
v 2.00000 6.00000 -11.00000
v 2.00000 5.00000 -11.00000
v 3.00000 5.00000 -11.00000
v 3.00000 6.00000 -11.00000
v -4.00000 14.00000 -7.00000
v -4.00000 13.00000 -7.00000
v -3.00000 13.00000 -7.00000
v -3.00000 14.00000 -7.00000
v 3.00000 14.00000 -7.00000
v 3.00000 13.00000 -7.00000
v 4.00000 13.00000 -7.00000
v 4.00000 14.00000 -7.00000
v -4.00000 13.00000 -6.00000
v -4.00000 12.00000 -6.00000
v -3.00000 12.00000 -6.00000
v -3.00000 13.00000 -6.00000
v 3.00000 13.00000 -6.00000
v 3.00000 12.00000 -6.00000
v 4.00000 12.00000 -6.00000
v 4.00000 13.00000 -6.00000
v -4.00000 12.00000 -5.00000
v -4.00000 11.00000 -5.00000
v -3.00000 11.00000 -5.00000
v -3.00000 12.00000 -5.00000
v 3.00000 12.00000 -5.00000
v 3.00000 11.00000 -5.00000
v 4.00000 11.00000 -5.00000
v 4.00000 12.00000 -5.00000
v -3.00000 15.00000 -4.00000
v -3.00000 14.00000 -4.00000
v -2.00000 14.00000 -4.00000
v -2.00000 15.00000 -4.00000
v 2.00000 15.00000 -4.00000
v 2.00000 14.00000 -4.00000
v 3.00000 14.00000 -4.00000
v 3.00000 15.00000 -4.00000
v -3.00000 14.00000 -3.00000
v -3.00000 13.00000 -3.00000
v -2.00000 13.00000 -3.00000
v -2.00000 14.00000 -3.00000
v 2.00000 14.00000 -3.00000
v 2.00000 13.00000 -3.00000
v 3.00000 13.00000 -3.00000
v 3.00000 14.00000 -3.00000
v -3.00000 6.00000 10.00000
v -3.00000 5.00000 10.00000
v -2.00000 5.00000 10.00000
v -2.00000 6.00000 10.00000
v 2.00000 6.00000 10.00000
v 2.00000 5.00000 10.00000
v 3.00000 5.00000 10.00000
v 3.00000 6.00000 10.00000
v -4.00000 11.00000 -20.00000
v -4.00000 11.00000 20.00000
v -4.00000 12.00000 -20.00000
v -4.00000 13.00000 -20.00000
v -4.00000 12.00000 20.00000
v -4.00000 13.00000 20.00000
v 4.00000 11.00000 20.00000
v 4.00000 11.00000 -20.00000
v 4.00000 12.00000 -20.00000
v 4.00000 13.00000 -20.00000
v 4.00000 12.00000 20.00000
v 4.00000 13.00000 20.00000

vt 0.00781 0.32031
vt 0.00781 0.00781
vt 0.07031 0.00781
vt 0.07031 0.32031
vt 0.08594 0.32031
vt 0.08594 0.00781
vt 0.14844 0.00781
vt 0.14844 0.32031
vt 0.16406 0.32031
vt 0.16406 0.00781
vt 0.17188 0.00781
vt 0.17188 0.32031
vt 0.18750 0.32031
vt 0.18750 0.00781
vt 0.19531 0.00781
vt 0.19531 0.32031
vt 0.21094 0.32031
vt 0.21094 0.00781
vt 0.21875 0.00781
vt 0.21875 0.32031
vt 0.23438 0.32031
vt 0.23438 0.00781
vt 0.24219 0.00781
vt 0.24219 0.32031
vt 0.25781 0.16406
vt 0.25781 0.00781
vt 0.57031 0.00781
vt 0.57031 0.16406
vt 0.58594 0.16406
vt 0.58594 0.00781
vt 0.89844 0.00781
vt 0.89844 0.16406
vt 0.91406 0.16406
vt 0.91406 0.00781
vt 0.94531 0.00781
vt 0.94531 0.16406
vt 0.96094 0.16406
vt 0.96094 0.00781
vt 0.99219 0.00781
vt 0.99219 0.16406
vt 0.25781 0.30469
vt 0.25781 0.17969
vt 0.26563 0.17969
vt 0.26563 0.30469
vt 0.28125 0.30469
vt 0.28125 0.17969
vt 0.28906 0.17969
vt 0.28906 0.30469
vt 0.30469 0.30469
vt 0.30469 0.17969
vt 0.31250 0.17969
vt 0.31250 0.30469
vt 0.32813 0.30469
vt 0.32813 0.17969
vt 0.33594 0.17969
vt 0.33594 0.30469
vt 0.35156 0.28906
vt 0.35156 0.17969
vt 0.41406 0.17969
vt 0.41406 0.28906
vt 0.42969 0.28906
vt 0.42969 0.17969
vt 0.49219 0.17969
vt 0.49219 0.28906
vt 0.50781 0.28125
vt 0.50781 0.17969
vt 0.51563 0.17969
vt 0.51563 0.28125
vt 0.53125 0.28125
vt 0.53125 0.17969
vt 0.53906 0.17969
vt 0.53906 0.28125
vt 0.55469 0.28125
vt 0.55469 0.17969
vt 0.56250 0.17969
vt 0.56250 0.28125
vt 0.57813 0.28125
vt 0.57813 0.17969
vt 0.58594 0.17969
vt 0.58594 0.28125
vt 0.60156 0.26563
vt 0.60156 0.17969
vt 0.91406 0.17969
vt 0.91406 0.26563
vt 0.00781 0.42188
vt 0.00781 0.33594
vt 0.32031 0.33594
vt 0.32031 0.42188
vt 0.92969 0.25781
vt 0.92969 0.17969
vt 0.93750 0.17969
vt 0.93750 0.25781
vt 0.95313 0.25781
vt 0.95313 0.17969
vt 0.96094 0.17969
vt 0.96094 0.25781
vt 0.97656 0.22656
vt 0.97656 0.17969
vt 0.98438 0.17969
vt 0.98438 0.22656
vt 0.33594 0.38281
vt 0.33594 0.33594
vt 0.34375 0.33594
vt 0.34375 0.38281
vt 0.35938 0.36719
vt 0.35938 0.33594
vt 0.67188 0.33594
vt 0.67188 0.36719
vt 0.00781 0.46875
vt 0.00781 0.43750
vt 0.32031 0.43750
vt 0.32031 0.46875
vt 0.68750 0.36719
vt 0.68750 0.33594
vt 0.75000 0.33594
vt 0.75000 0.36719
vt 0.76563 0.36719
vt 0.76563 0.33594
vt 0.82813 0.33594
vt 0.82813 0.36719
vt 0.33594 0.40625
vt 0.33594 0.39844
vt 0.64844 0.39844
vt 0.64844 0.40625
vt 0.66406 0.40625
vt 0.66406 0.39844
vt 0.97656 0.39844
vt 0.97656 0.40625
vt 0.84375 0.34375
vt 0.84375 0.33594
vt 0.96875 0.33594
vt 0.96875 0.34375
vt 0.84375 0.36719
vt 0.84375 0.35938
vt 0.96875 0.35938
vt 0.96875 0.36719
vt 0.33594 0.44531
vt 0.33594 0.43750
vt 0.46094 0.43750
vt 0.46094 0.44531
vt 0.47656 0.44531
vt 0.47656 0.43750
vt 0.60156 0.43750
vt 0.60156 0.44531
vt 0.61719 0.44531
vt 0.61719 0.43750
vt 0.73438 0.43750
vt 0.73438 0.44531
vt 0.75000 0.44531
vt 0.75000 0.43750
vt 0.86719 0.43750
vt 0.86719 0.44531
vt 0.33594 0.46875
vt 0.33594 0.46094
vt 0.45313 0.46094
vt 0.45313 0.46875
vt 0.46875 0.46875
vt 0.46875 0.46094
vt 0.58594 0.46094
vt 0.58594 0.46875
vt 0.88281 0.44531
vt 0.88281 0.43750
vt 0.99219 0.43750
vt 0.99219 0.44531
vt 0.60156 0.46875
vt 0.60156 0.46094
vt 0.71094 0.46094
vt 0.71094 0.46875
vt 0.72656 0.46875
vt 0.72656 0.46094
vt 0.83594 0.46094
vt 0.83594 0.46875
vt 0.85156 0.46875
vt 0.85156 0.46094
vt 0.96094 0.46094
vt 0.96094 0.46875
vt 0.00781 0.49219
vt 0.00781 0.48438
vt 0.10938 0.48438
vt 0.10938 0.49219
vt 0.12500 0.49219
vt 0.12500 0.48438
vt 0.22656 0.48438
vt 0.22656 0.49219
vt 0.24219 0.49219
vt 0.24219 0.48438
vt 0.34375 0.48438
vt 0.34375 0.49219
vt 0.35938 0.49219
vt 0.35938 0.48438
vt 0.46094 0.48438
vt 0.46094 0.49219
vt 0.47656 0.49219
vt 0.47656 0.48438
vt 0.57031 0.48438
vt 0.57031 0.49219
vt 0.58594 0.49219
vt 0.58594 0.48438
vt 0.67969 0.48438
vt 0.67969 0.49219
vt 0.69531 0.49219
vt 0.69531 0.48438
vt 0.77344 0.48438
vt 0.77344 0.49219
vt 0.78906 0.49219
vt 0.78906 0.48438
vt 0.86719 0.48438
vt 0.86719 0.49219
vt 0.88281 0.49219
vt 0.88281 0.48438
vt 0.94531 0.48438
vt 0.94531 0.49219
vt 0.00781 0.51563
vt 0.00781 0.50781
vt 0.07031 0.50781
vt 0.07031 0.51563
vt 0.08594 0.51563
vt 0.08594 0.50781
vt 0.13281 0.50781
vt 0.13281 0.51563
vt 0.14844 0.51563
vt 0.14844 0.50781
vt 0.19531 0.50781
vt 0.19531 0.51563
vt 0.21094 0.51563
vt 0.21094 0.50781
vt 0.25781 0.50781
vt 0.25781 0.51563
vt 0.27344 0.51563
vt 0.27344 0.50781
vt 0.32031 0.50781
vt 0.32031 0.51563
vt 0.33594 0.51563
vt 0.33594 0.50781
vt 0.38281 0.50781
vt 0.38281 0.51563
vt 0.39844 0.51563
vt 0.39844 0.50781
vt 0.44531 0.50781
vt 0.44531 0.51563
vt 0.96094 0.49219
vt 0.96094 0.48438
vt 0.99219 0.48438
vt 0.99219 0.49219
vt 0.46094 0.51563
vt 0.46094 0.50781
vt 0.49219 0.50781
vt 0.49219 0.51563
vt 0.50781 0.51563
vt 0.50781 0.50781
vt 0.53906 0.50781
vt 0.53906 0.51563
vt 0.55469 0.51563
vt 0.55469 0.50781
vt 0.58594 0.50781
vt 0.58594 0.51563
vt 0.97656 0.25000
vt 0.97656 0.24219
vt 0.98438 0.24219
vt 0.98438 0.25000
vt 0.98438 0.34375
vt 0.98438 0.33594
vt 0.99219 0.33594
vt 0.99219 0.34375
vt 0.98438 0.36719
vt 0.98438 0.35938
vt 0.99219 0.35938
vt 0.99219 0.36719
vt 0.97656 0.46875
vt 0.97656 0.46094
vt 0.98438 0.46094
vt 0.98438 0.46875
vt 0.60156 0.51563
vt 0.60156 0.50781
vt 0.60938 0.50781
vt 0.60938 0.51563
vt 0.62500 0.51563
vt 0.62500 0.50781
vt 0.63281 0.50781
vt 0.63281 0.51563
vt 0.64844 0.51563
vt 0.64844 0.50781
vt 0.65625 0.50781
vt 0.65625 0.51563
vt 0.67188 0.51563
vt 0.67188 0.50781
vt 0.67969 0.50781
vt 0.67969 0.51563
vt 0.69531 0.51563
vt 0.69531 0.50781
vt 0.70313 0.50781
vt 0.70313 0.51563
vt 0.71875 0.51563
vt 0.71875 0.50781
vt 0.72656 0.50781
vt 0.72656 0.51563
vt 0.74219 0.51563
vt 0.74219 0.50781
vt 0.75000 0.50781
vt 0.75000 0.51563
vt 0.76563 0.51563
vt 0.76563 0.50781
vt 0.77344 0.50781
vt 0.77344 0.51563
vt 0.78906 0.51563
vt 0.78906 0.50781
vt 0.79688 0.50781
vt 0.79688 0.51563
vt 0.81250 0.51563
vt 0.81250 0.50781
vt 0.82031 0.50781
vt 0.82031 0.51563
vt 0.83594 0.51563
vt 0.83594 0.50781
vt 0.84375 0.50781
vt 0.84375 0.51563
vt 0.85938 0.51563
vt 0.85938 0.50781
vt 0.86719 0.50781
vt 0.86719 0.51563
vt 0.88281 0.51563
vt 0.88281 0.50781
vt 0.89063 0.50781
vt 0.89063 0.51563
vt 0.90625 0.51563
vt 0.90625 0.50781
vt 0.91406 0.50781
vt 0.91406 0.51563
vt 0.92969 0.51563
vt 0.92969 0.50781
vt 0.93750 0.50781
vt 0.93750 0.51563
vt 0.95313 0.51563
vt 0.95313 0.50781
vt 0.96094 0.50781
vt 0.96094 0.51563
vt 0.97656 0.51563
vt 0.97656 0.50781
vt 0.98438 0.50781
vt 0.98438 0.51563
vt 0.00781 0.53906
vt 0.00781 0.53125
vt 0.01563 0.53125
vt 0.01563 0.53906
vt 0.03125 0.53906
vt 0.03125 0.53125
vt 0.03906 0.53125
vt 0.03906 0.53906
vt 0.05469 0.53906
vt 0.05469 0.53125
vt 0.06250 0.53125
vt 0.06250 0.53906
vt 0.07813 0.53906
vt 0.07813 0.53125
vt 0.08594 0.53125
vt 0.08594 0.53906
vt 0.10156 0.53906
vt 0.10156 0.53125
vt 0.10938 0.53125
vt 0.10938 0.53906
vt 0.12500 0.53906
vt 0.12500 0.53125
vt 0.13281 0.53125
vt 0.13281 0.53906
vt 0.14844 0.53906
vt 0.14844 0.53125
vt 0.15625 0.53125
vt 0.15625 0.53906
vt 0.17188 0.53906
vt 0.17188 0.53125
vt 0.17969 0.53125
vt 0.17969 0.53906
vt 0.19531 0.53906
vt 0.19531 0.53125
vt 0.20313 0.53125
vt 0.20313 0.53906
vt 0.21875 0.53906
vt 0.21875 0.53125
vt 0.22656 0.53125
vt 0.22656 0.53906
vt 0.24219 0.53906
vt 0.24219 0.53125
vt 0.25000 0.53125
vt 0.25000 0.53906
vt 0.26563 0.53906
vt 0.26563 0.53125
vt 0.27344 0.53125
vt 0.27344 0.53906
vt 0.28906 0.53906
vt 0.28906 0.53125
vt 0.29688 0.53125
vt 0.29688 0.53906
vt 0.31250 0.53906
vt 0.31250 0.53125
vt 0.32031 0.53125
vt 0.32031 0.53906
vt 0.33594 0.53906
vt 0.33594 0.53125
vt 0.34375 0.53125
vt 0.34375 0.53906
vt 0.35938 0.53906
vt 0.35938 0.53125
vt 0.36719 0.53125
vt 0.36719 0.53906
vt 0.38281 0.53906
vt 0.38281 0.53125
vt 0.39063 0.53125
vt 0.39063 0.53906
vt 0.40625 0.53906
vt 0.40625 0.53125
vt 0.41406 0.53125
vt 0.41406 0.53906
vt 0.42969 0.53906
vt 0.42969 0.53125
vt 0.43750 0.53125
vt 0.43750 0.53906
vt 0.45313 0.53906
vt 0.45313 0.53125
vt 0.46094 0.53125
vt 0.46094 0.53906
vt 0.47656 0.53906
vt 0.47656 0.53125
vt 0.48438 0.53125
vt 0.48438 0.53906
vt 0.50000 0.53906
vt 0.50000 0.53125
vt 0.50781 0.53125
vt 0.50781 0.53906
vt 0.52344 0.53906
vt 0.52344 0.53125
vt 0.53125 0.53125
vt 0.53125 0.53906
vt 0.54688 0.53906
vt 0.54688 0.53125
vt 0.55469 0.53125
vt 0.55469 0.53906
vt 0.57031 0.53906
vt 0.57031 0.53125
vt 0.57813 0.53125
vt 0.57813 0.53906
vt 0.59375 0.53906
vt 0.59375 0.53125
vt 0.60156 0.53125
vt 0.60156 0.53906
vt 0.61719 0.53906
vt 0.61719 0.53125
vt 0.62500 0.53125
vt 0.62500 0.53906
vt 0.64063 0.53906
vt 0.64063 0.53125
vt 0.64844 0.53125
vt 0.64844 0.53906
vt 0.66406 0.53906
vt 0.66406 0.53125
vt 0.67188 0.53125
vt 0.67188 0.53906
vt 0.68750 0.53906
vt 0.68750 0.53125
vt 0.69531 0.53125
vt 0.69531 0.53906
vt 0.71094 0.53906
vt 0.71094 0.53125
vt 0.71875 0.53125
vt 0.71875 0.53906
vt 0.73438 0.53906
vt 0.73438 0.53125
vt 0.74219 0.53125
vt 0.74219 0.53906
vt 0.75781 0.53906
vt 0.75781 0.53125
vt 0.76563 0.53125
vt 0.76563 0.53906
vt 0.78125 0.53906
vt 0.78125 0.53125
vt 0.78906 0.53125
vt 0.78906 0.53906
vt 0.80469 0.53906
vt 0.80469 0.53125
vt 0.81250 0.53125
vt 0.81250 0.53906

g wall
usemtl wall_Material
f 1/33/2 2/34/2 3/35/2 4/36/2
f 5/57/2 6/58/2 7/59/2 8/60/2
f 9/113/2 10/114/2 11/115/2 12/116/2
f 13/217/2 14/218/2 15/219/2 16/220/2
f 17/225/2 18/226/2 19/227/2 20/228/2
f 21/277/2 22/278/2 23/279/2 24/280/2
f 25/257/2 26/258/2 27/259/2 28/260/2
f 29/261/2 30/262/2 31/263/2 32/264/2
f 33/273/2 34/274/2 35/275/2 36/276/2
f 37/269/2 38/270/2 39/271/2 40/272/2
f 41/265/2 42/266/2 43/267/2 44/268/2
f 45/301/2 46/302/2 47/303/2 48/304/2
f 49/333/2 50/334/2 51/335/2 52/336/2
f 53/329/2 54/330/2 55/331/2 56/332/2
f 57/337/2 58/338/2 59/339/2 60/340/2
f 61/345/2 62/346/2 63/347/2 64/348/2
f 65/341/2 66/342/2 67/343/2 68/344/2
f 69/325/2 70/326/2 71/327/2 72/328/2
f 73/309/2 74/310/2 75/311/2 76/312/2
f 77/37/1 78/38/1 79/39/1 80/40/1
f 81/61/1 82/62/1 83/63/1 84/64/1
f 85/117/1 86/118/1 87/119/1 88/120/1
f 89/221/1 90/222/1 91/223/1 92/224/1
f 93/229/1 94/230/1 95/231/1 96/232/1
f 97/305/1 98/306/1 99/307/1 100/308/1
f 101/313/1 102/314/1 103/315/1 104/316/1
f 105/317/1 106/318/1 107/319/1 108/320/1
f 109/321/1 110/322/1 111/323/1 112/324/1
f 113/293/1 114/294/1 115/295/1 116/296/1
f 117/297/1 118/298/1 119/299/1 120/300/1
f 121/289/1 122/290/1 123/291/1 124/292/1
f 125/281/1 126/282/1 127/283/1 128/284/1
f 129/285/1 130/286/1 131/287/1 132/288/1
f 133/437/1 134/438/1 135/439/1 136/440/1
f 137/433/1 138/434/1 139/435/1 140/436/1
f 141/445/1 142/446/1 143/447/1 144/448/1
f 145/441/1 146/442/1 147/443/1 148/444/1
f 149/421/1 150/422/1 151/423/1 152/424/1
f 4/25/3 3/26/3 78/27/3 77/28/3
f 153/81/3 7/82/3 82/83/3 154/84/3
f 12/105/3 11/106/3 86/107/3 85/108/3
f 20/125/3 19/126/3 94/127/3 93/128/3
f 155/153/3 153/154/3 122/155/3 121/156/3
f 156/169/3 155/170/3 114/171/3 113/172/3
f 8/185/3 156/186/3 106/187/3 105/188/3
f 16/137/3 15/138/3 130/139/3 129/140/3
f 116/197/3 115/198/3 54/199/3 53/200/3
f 124/205/3 123/206/3 46/207/3 45/208/3
f 40/129/3 39/130/3 90/131/3 89/132/3
f 48/145/3 47/146/3 154/147/3 157/148/3
f 56/173/3 55/174/3 157/175/3 158/176/3
f 64/189/3 63/190/3 158/191/3 81/192/3
f 132/209/3 131/210/3 38/211/3 37/212/3
f 140/237/3 139/238/3 30/239/3 29/240/3
f 108/245/3 107/246/3 138/247/3 137/248/3
f 32/241/3 31/242/3 62/243/3 61/244/3
f 100/417/3 99/418/3 22/419/3 21/420/3
f 104/429/3 103/430/3 26/431/3 25/432/3
f 148/425/3 147/426/3 70/427/3 69/428/3
f 152/469/3 151/470/3 74/471/3 73/472/3
f 80/29/4 79/30/4 2/31/4 1/32/4
f 159/85/4 83/86/4 6/87/4 160/88/4
f 88/109/4 87/110/4 10/111/4 9/112/4
f 96/121/4 95/122/4 18/123/4 17/124/4
f 136/133/4 135/134/4 14/135/4 13/136/4
f 128/149/4 127/150/4 160/151/4 161/152/4
f 120/161/4 119/162/4 161/163/4 162/164/4
f 112/181/4 111/182/4 162/183/4 5/184/4
f 60/193/4 59/194/4 118/195/4 117/196/4
f 52/201/4 51/202/4 126/203/4 125/204/4
f 92/141/4 91/142/4 42/143/4 41/144/4
f 163/157/4 159/158/4 50/159/4 49/160/4
f 164/165/4 163/166/4 58/167/4 57/168/4
f 84/177/4 164/178/4 66/179/4 65/180/4
f 44/213/4 43/214/4 134/215/4 133/216/4
f 36/233/4 35/234/4 142/235/4 141/236/4
f 144/249/4 143/250/4 110/251/4 109/252/4
f 68/253/4 67/254/4 34/255/4 33/256/4
f 24/465/4 23/466/4 98/467/4 97/468/4
f 28/477/4 27/478/4 102/479/4 101/480/4
f 72/473/4 71/474/4 146/475/4 145/476/4
f 76/453/4 75/454/4 150/455/4 149/456/4
f 12/5/5 85/6/5 88/7/5 9/8/5
f 8/77/5 105/78/5 108/79/5 15/80/5
f 16/45/5 129/46/5 132/47/5 3/48/5
f 2/49/5 133/50/5 136/51/5 13/52/5
f 14/73/5 109/74/5 112/75/5 5/76/5
f 122/89/5 47/90/5 46/91/5 123/92/5
f 126/93/5 51/94/5 50/95/5 127/96/5
f 40/53/5 89/54/5 78/55/5 37/56/5
f 44/41/5 79/42/5 92/43/5 41/44/5
f 64/69/5 81/70/5 90/71/5 61/72/5
f 68/65/5 91/66/5 84/67/5 65/68/5
f 138/97/5 31/98/5 30/99/5 139/100/5
f 142/101/5 35/102/5 34/103/5 143/104/5
f 98/449/5 23/450/5 22/451/5 99/452/5
f 102/461/5 27/462/5 26/463/5 103/464/5
f 106/457/5 113/458/5 116/459/5 107/460/5
f 110/413/5 117/414/5 120/415/5 111/416/5
f 114/369/5 121/370/5 124/371/5 115/372/5
f 118/365/5 125/366/5 128/367/5 119/368/5
f 130/377/5 137/378/5 140/379/5 131/380/5
f 134/373/5 141/374/5 144/375/5 135/376/5
f 32/353/5 39/354/5 38/355/5 29/356/5
f 36/349/5 43/350/5 42/351/5 33/352/5
f 48/361/5 55/362/5 54/363/5 45/364/5
f 52/357/5 59/358/5 58/359/5 49/360/5
f 56/401/5 63/402/5 62/403/5 53/404/5
f 60/397/5 67/398/5 66/399/5 57/400/5
f 146/409/5 71/410/5 70/411/5 147/412/5
f 150/405/5 75/406/5 74/407/5 151/408/5
f 82/1/6 7/2/6 6/3/6 83/4/6
f 86/21/6 11/22/6 20/23/6 93/24/6
f 94/13/6 19/14/6 4/15/6 77/16/6
f 80/9/6 1/10/6 18/11/6 95/12/6
f 96/17/6 17/18/6 10/19/6 87/20/6
f 24/385/6 97/386/6 100/387/6 21/388/6
f 28/381/6 101/382/6 104/383/6 25/384/6
f 72/393/6 145/394/6 148/395/6 69/396/6
f 76/389/6 149/390/6 152/391/6 73/392/6
