# MagicaVoxel @ Ephtracy

# group
g window

# material
mtllib window.mtl
usemtl palette

# normals
vn -1 0 0
vn 1 0 0
vn 0 0 1
vn 0 0 -1
vn 0 -1 0
vn 0 1 0

# texcoords
vt 0.986328 0.5

# verts
v -20 0 20
v -20 0 -20
v -20 5 20
v -20 5 -20
v -16 0 17
v -16 0 16
v -16 0 -16
v -16 0 -17
v -16 1 17
v -16 1 16
v -16 1 -16
v -16 1 -17
v 13 0 13
v 13 0 -13
v 13 2 13
v 13 2 -13
v 13 3 13
v 13 3 -13
v 13 5 13
v 13 5 -13
v 14 2 14
v 14 2 -14
v 14 3 14
v 14 3 -14
v 17 0 17
v 17 0 16
v 17 0 -16
v 17 0 -17
v 17 1 17
v 17 1 16
v 17 1 -16
v 17 1 -17
v -17 0 17
v -17 0 16
v -17 0 -16
v -17 0 -17
v -17 1 17
v -17 1 16
v -17 1 -16
v -17 1 -17
v -14 2 14
v -14 2 -14
v -14 3 14
v -14 3 -14
v -13 0 13
v -13 0 -13
v -13 2 13
v -13 2 -13
v -13 3 13
v -13 3 -13
v -13 5 13
v -13 5 -13
v 16 0 17
v 16 0 16
v 16 0 -16
v 16 0 -17
v 16 1 17
v 16 1 16
v 16 1 -16
v 16 1 -17
v 20 0 20
v 20 0 -20
v 20 5 20
v 20 5 -20
v -20 0 20
v -20 5 20
v 20 0 20
v 20 5 20
v -17 0 16
v -17 1 16
v -16 0 16
v -16 1 16
v 16 0 16
v 16 1 16
v 17 0 16
v 17 1 16
v -13 0 -13
v -13 2 -13
v -13 3 -13
v -13 5 -13
v 13 0 -13
v 13 2 -13
v 13 3 -13
v 13 5 -13
v -14 2 -14
v -14 3 -14
v 14 2 -14
v 14 3 -14
v -17 0 -17
v -17 1 -17
v -16 0 -17
v -16 1 -17
v 16 0 -17
v 16 1 -17
v 17 0 -17
v 17 1 -17
v -17 0 17
v -17 1 17
v -16 0 17
v -16 1 17
v 16 0 17
v 16 1 17
v 17 0 17
v 17 1 17
v -14 2 14
v -14 3 14
v 14 2 14
v 14 3 14
v -13 0 13
v -13 2 13
v -13 3 13
v -13 5 13
v 13 0 13
v 13 2 13
v 13 3 13
v 13 5 13
v -17 0 -16
v -17 1 -16
v -16 0 -16
v -16 1 -16
v 16 0 -16
v 16 1 -16
v 17 0 -16
v 17 1 -16
v -20 0 -20
v -20 5 -20
v 20 0 -20
v 20 5 -20
v -20 0 20
v 20 0 20
v -17 0 17
v -16 0 17
v 16 0 17
v 17 0 17
v -17 0 16
v -16 0 16
v 16 0 16
v 17 0 16
v -13 0 13
v 13 0 13
v -13 0 -13
v 13 0 -13
v -17 0 -16
v -16 0 -16
v 16 0 -16
v 17 0 -16
v -17 0 -17
v -16 0 -17
v 16 0 -17
v 17 0 -17
v -20 0 -20
v 20 0 -20
v -17 1 17
v -16 1 17
v 16 1 17
v 17 1 17
v -17 1 16
v -16 1 16
v 16 1 16
v 17 1 16
v -17 1 -16
v -16 1 -16
v 16 1 -16
v 17 1 -16
v -17 1 -17
v -16 1 -17
v 16 1 -17
v 17 1 -17
v -14 3 14
v 14 3 14
v -13 3 13
v 13 3 13
v -13 3 -13
v 13 3 -13
v -14 3 -14
v 14 3 -14
v -14 2 14
v 14 2 14
v -13 2 13
v 13 2 13
v -13 2 -13
v 13 2 -13
v -14 2 -14
v 14 2 -14
v -20 5 20
v 20 5 20
v -13 5 13
v 13 5 13
v -13 5 -13
v 13 5 -13
v -20 5 -20
v 20 5 -20

# faces
f 3/1/1 2/1/1 1/1/1
f 4/1/1 2/1/1 3/1/1
f 9/1/1 6/1/1 5/1/1
f 10/1/1 6/1/1 9/1/1
f 11/1/1 8/1/1 7/1/1
f 12/1/1 8/1/1 11/1/1
f 15/1/1 14/1/1 13/1/1
f 16/1/1 14/1/1 15/1/1
f 19/1/1 18/1/1 17/1/1
f 20/1/1 18/1/1 19/1/1
f 23/1/1 22/1/1 21/1/1
f 24/1/1 22/1/1 23/1/1
f 29/1/1 26/1/1 25/1/1
f 30/1/1 26/1/1 29/1/1
f 31/1/1 28/1/1 27/1/1
f 32/1/1 28/1/1 31/1/1
f 33/1/2 34/1/2 37/1/2
f 37/1/2 34/1/2 38/1/2
f 35/1/2 36/1/2 39/1/2
f 39/1/2 36/1/2 40/1/2
f 41/1/2 42/1/2 43/1/2
f 43/1/2 42/1/2 44/1/2
f 45/1/2 46/1/2 47/1/2
f 47/1/2 46/1/2 48/1/2
f 49/1/2 50/1/2 51/1/2
f 51/1/2 50/1/2 52/1/2
f 53/1/2 54/1/2 57/1/2
f 57/1/2 54/1/2 58/1/2
f 55/1/2 56/1/2 59/1/2
f 59/1/2 56/1/2 60/1/2
f 61/1/2 62/1/2 63/1/2
f 63/1/2 62/1/2 64/1/2
f 67/1/3 66/1/3 65/1/3
f 68/1/3 66/1/3 67/1/3
f 71/1/3 70/1/3 69/1/3
f 72/1/3 70/1/3 71/1/3
f 75/1/3 74/1/3 73/1/3
f 76/1/3 74/1/3 75/1/3
f 81/1/3 78/1/3 77/1/3
f 82/1/3 78/1/3 81/1/3
f 83/1/3 80/1/3 79/1/3
f 84/1/3 80/1/3 83/1/3
f 87/1/3 86/1/3 85/1/3
f 88/1/3 86/1/3 87/1/3
f 91/1/3 90/1/3 89/1/3
f 92/1/3 90/1/3 91/1/3
f 95/1/3 94/1/3 93/1/3
f 96/1/3 94/1/3 95/1/3
f 97/1/4 98/1/4 99/1/4
f 99/1/4 98/1/4 100/1/4
f 101/1/4 102/1/4 103/1/4
f 103/1/4 102/1/4 104/1/4
f 105/1/4 106/1/4 107/1/4
f 107/1/4 106/1/4 108/1/4
f 109/1/4 110/1/4 113/1/4
f 113/1/4 110/1/4 114/1/4
f 111/1/4 112/1/4 115/1/4
f 115/1/4 112/1/4 116/1/4
f 117/1/4 118/1/4 119/1/4
f 119/1/4 118/1/4 120/1/4
f 121/1/4 122/1/4 123/1/4
f 123/1/4 122/1/4 124/1/4
f 125/1/4 126/1/4 127/1/4
f 127/1/4 126/1/4 128/1/4
f 131/1/5 130/1/5 129/1/5
f 132/1/5 130/1/5 131/1/5
f 133/1/5 130/1/5 132/1/5
f 134/1/5 130/1/5 133/1/5
f 135/1/5 131/1/5 129/1/5
f 136/1/5 133/1/5 132/1/5
f 137/1/5 133/1/5 136/1/5
f 138/1/5 130/1/5 134/1/5
f 139/1/5 137/1/5 136/1/5
f 139/1/5 138/1/5 137/1/5
f 139/1/5 136/1/5 135/1/5
f 140/1/5 138/1/5 139/1/5
f 141/1/5 139/1/5 135/1/5
f 142/1/5 138/1/5 140/1/5
f 143/1/5 135/1/5 129/1/5
f 143/1/5 142/1/5 141/1/5
f 143/1/5 141/1/5 135/1/5
f 144/1/5 142/1/5 143/1/5
f 145/1/5 138/1/5 142/1/5
f 145/1/5 142/1/5 144/1/5
f 146/1/5 130/1/5 138/1/5
f 146/1/5 138/1/5 145/1/5
f 147/1/5 143/1/5 129/1/5
f 148/1/5 145/1/5 144/1/5
f 149/1/5 145/1/5 148/1/5
f 150/1/5 130/1/5 146/1/5
f 151/1/5 147/1/5 129/1/5
f 151/1/5 150/1/5 149/1/5
f 151/1/5 149/1/5 148/1/5
f 151/1/5 148/1/5 147/1/5
f 152/1/5 130/1/5 150/1/5
f 152/1/5 150/1/5 151/1/5
f 157/1/5 154/1/5 153/1/5
f 158/1/5 154/1/5 157/1/5
f 159/1/5 156/1/5 155/1/5
f 160/1/5 156/1/5 159/1/5
f 165/1/5 162/1/5 161/1/5
f 166/1/5 162/1/5 165/1/5
f 167/1/5 164/1/5 163/1/5
f 168/1/5 164/1/5 167/1/5
f 171/1/5 170/1/5 169/1/5
f 172/1/5 170/1/5 171/1/5
f 173/1/5 171/1/5 169/1/5
f 174/1/5 170/1/5 172/1/5
f 175/1/5 173/1/5 169/1/5
f 175/1/5 174/1/5 173/1/5
f 176/1/5 170/1/5 174/1/5
f 176/1/5 174/1/5 175/1/5
f 177/1/6 178/1/6 179/1/6
f 179/1/6 178/1/6 180/1/6
f 177/1/6 179/1/6 181/1/6
f 180/1/6 178/1/6 182/1/6
f 177/1/6 181/1/6 183/1/6
f 181/1/6 182/1/6 183/1/6
f 182/1/6 178/1/6 184/1/6
f 183/1/6 182/1/6 184/1/6
f 185/1/6 186/1/6 187/1/6
f 187/1/6 186/1/6 188/1/6
f 185/1/6 187/1/6 189/1/6
f 188/1/6 186/1/6 190/1/6
f 185/1/6 189/1/6 191/1/6
f 189/1/6 190/1/6 191/1/6
f 190/1/6 186/1/6 192/1/6
f 191/1/6 190/1/6 192/1/6
