# This file was created with Minddesk Qubicle 3.0
# Get Qubicle at www.getqubicle.com

mtllib window.mtl

vn 0.0 0.0 1.0
vn 0.0 0.0 -1.0
vn -1.0 0.0 0.0
vn 1.0 0.0 0.0
vn 0.0 1.0 0.0
vn 0.0 -1.0 0.0

v 20.00000 5.00000 -20.00000
v 20.00000 0.00000 -20.00000
v -20.00000 0.00000 -20.00000
v -20.00000 5.00000 -20.00000
v 11.00000 2.00000 13.00000
v 11.00000 0.00000 13.00000
v -11.00000 0.00000 13.00000
v -11.00000 2.00000 13.00000
v 11.00000 5.00000 13.00000
v 11.00000 3.00000 13.00000
v -11.00000 3.00000 13.00000
v -11.00000 5.00000 13.00000
v 12.00000 3.00000 14.00000
v 12.00000 2.00000 14.00000
v -12.00000 2.00000 14.00000
v -12.00000 3.00000 14.00000
v -16.00000 1.00000 -16.00000
v -16.00000 0.00000 -16.00000
v -17.00000 0.00000 -16.00000
v -17.00000 1.00000 -16.00000
v 17.00000 1.00000 -16.00000
v 17.00000 0.00000 -16.00000
v 16.00000 0.00000 -16.00000
v 16.00000 1.00000 -16.00000
v -16.00000 1.00000 17.00000
v -16.00000 0.00000 17.00000
v -17.00000 0.00000 17.00000
v -17.00000 1.00000 17.00000
v 17.00000 1.00000 17.00000
v 17.00000 0.00000 17.00000
v 16.00000 0.00000 17.00000
v 16.00000 1.00000 17.00000
v -20.00000 5.00000 20.00000
v -20.00000 0.00000 20.00000
v 20.00000 0.00000 20.00000
v 20.00000 5.00000 20.00000
v -11.00000 2.00000 -13.00000
v -11.00000 0.00000 -13.00000
v 11.00000 0.00000 -13.00000
v 11.00000 2.00000 -13.00000
v -11.00000 5.00000 -13.00000
v -11.00000 3.00000 -13.00000
v 11.00000 3.00000 -13.00000
v 11.00000 5.00000 -13.00000
v -12.00000 3.00000 -14.00000
v -12.00000 2.00000 -14.00000
v 12.00000 2.00000 -14.00000
v 12.00000 3.00000 -14.00000
v -17.00000 1.00000 -17.00000
v -17.00000 0.00000 -17.00000
v -16.00000 0.00000 -17.00000
v -16.00000 1.00000 -17.00000
v 16.00000 1.00000 -17.00000
v 16.00000 0.00000 -17.00000
v 17.00000 0.00000 -17.00000
v 17.00000 1.00000 -17.00000
v -17.00000 1.00000 16.00000
v -17.00000 0.00000 16.00000
v -16.00000 0.00000 16.00000
v -16.00000 1.00000 16.00000
v 16.00000 1.00000 16.00000
v 16.00000 0.00000 16.00000
v 17.00000 0.00000 16.00000
v 17.00000 1.00000 16.00000
v -20.00000 5.00000 -13.00000
v -20.00000 5.00000 13.00000
v 20.00000 5.00000 13.00000
v 20.00000 5.00000 -13.00000
v -12.00000 2.00000 -13.00000
v -12.00000 2.00000 13.00000
v 12.00000 2.00000 13.00000
v 12.00000 2.00000 -13.00000
v -20.00000 0.00000 13.00000
v -20.00000 0.00000 -13.00000
v 20.00000 0.00000 -13.00000
v 20.00000 0.00000 13.00000
v -12.00000 3.00000 13.00000
v -12.00000 3.00000 -13.00000
v 12.00000 3.00000 -13.00000
v 12.00000 3.00000 13.00000
v -20.00000 0.00000 -17.00000
v 20.00000 0.00000 -17.00000
v -20.00000 0.00000 -16.00000
v 20.00000 0.00000 -16.00000
v -20.00000 0.00000 16.00000
v 20.00000 0.00000 16.00000
v -20.00000 0.00000 17.00000
v 20.00000 0.00000 17.00000

vt 0.00781 0.42188
vt 0.00781 0.01563
vt 0.07813 0.01563
vt 0.07813 0.42188
vt 0.09375 0.42188
vt 0.09375 0.01563
vt 0.16406 0.01563
vt 0.16406 0.42188
vt 0.17969 0.42188
vt 0.17969 0.01563
vt 0.25000 0.01563
vt 0.25000 0.42188
vt 0.26563 0.42188
vt 0.26563 0.01563
vt 0.33594 0.01563
vt 0.33594 0.42188
vt 0.35156 0.42188
vt 0.35156 0.01563
vt 0.35938 0.01563
vt 0.35938 0.42188
vt 0.37500 0.42188
vt 0.37500 0.01563
vt 0.38281 0.01563
vt 0.38281 0.42188
vt 0.39844 0.42188
vt 0.39844 0.01563
vt 0.40625 0.01563
vt 0.40625 0.42188
vt 0.42188 0.42188
vt 0.42188 0.01563
vt 0.42969 0.01563
vt 0.42969 0.42188
vt 0.44531 0.12500
vt 0.44531 0.01563
vt 0.75781 0.01563
vt 0.75781 0.12500
vt 0.44531 0.26563
vt 0.44531 0.15625
vt 0.75781 0.15625
vt 0.75781 0.26563
vt 0.44531 0.37500
vt 0.44531 0.29688
vt 0.75781 0.29688
vt 0.75781 0.37500
vt 0.00781 0.53125
vt 0.00781 0.45313
vt 0.32031 0.45313
vt 0.32031 0.53125
vt 0.33594 0.53125
vt 0.33594 0.45313
vt 0.64844 0.45313
vt 0.64844 0.53125
vt 0.66406 0.53125
vt 0.66406 0.45313
vt 0.97656 0.45313
vt 0.97656 0.53125
vt 0.00781 0.60938
vt 0.00781 0.56250
vt 0.32031 0.56250
vt 0.32031 0.60938
vt 0.33594 0.60938
vt 0.33594 0.56250
vt 0.64844 0.56250
vt 0.64844 0.60938
vt 0.66406 0.60938
vt 0.66406 0.56250
vt 0.97656 0.56250
vt 0.97656 0.60938
vt 0.00781 0.68750
vt 0.00781 0.64063
vt 0.32031 0.64063
vt 0.32031 0.68750
vt 0.77344 0.04688
vt 0.77344 0.01563
vt 0.97656 0.01563
vt 0.97656 0.04688
vt 0.77344 0.10938
vt 0.77344 0.07813
vt 0.97656 0.07813
vt 0.97656 0.10938
vt 0.77344 0.18750
vt 0.77344 0.15625
vt 0.97656 0.15625
vt 0.97656 0.18750
vt 0.77344 0.25000
vt 0.77344 0.21875
vt 0.97656 0.21875
vt 0.97656 0.25000
vt 0.77344 0.32813
vt 0.77344 0.29688
vt 0.94531 0.29688
vt 0.94531 0.32813
vt 0.33594 0.67188
vt 0.33594 0.64063
vt 0.50781 0.64063
vt 0.50781 0.67188
vt 0.52344 0.67188
vt 0.52344 0.64063
vt 0.69531 0.64063
vt 0.69531 0.67188
vt 0.71094 0.67188
vt 0.71094 0.64063
vt 0.88281 0.64063
vt 0.88281 0.67188
vt 0.44531 0.42188
vt 0.44531 0.40625
vt 0.69531 0.40625
vt 0.69531 0.42188
vt 0.71094 0.42188
vt 0.71094 0.40625
vt 0.96094 0.40625
vt 0.96094 0.42188
vt 0.77344 0.37500
vt 0.77344 0.35938
vt 0.99219 0.35938
vt 0.99219 0.37500
vt 0.00781 0.73438
vt 0.00781 0.71875
vt 0.22656 0.71875
vt 0.22656 0.73438
vt 0.24219 0.73438
vt 0.24219 0.71875
vt 0.42969 0.71875
vt 0.42969 0.73438
vt 0.44531 0.73438
vt 0.44531 0.71875
vt 0.63281 0.71875
vt 0.63281 0.73438
vt 0.64844 0.73438
vt 0.64844 0.71875
vt 0.83594 0.71875
vt 0.83594 0.73438
vt 0.00781 0.78125
vt 0.00781 0.76563
vt 0.19531 0.76563
vt 0.19531 0.78125
vt 0.21094 0.78125
vt 0.21094 0.76563
vt 0.39844 0.76563
vt 0.39844 0.78125
vt 0.41406 0.78125
vt 0.41406 0.76563
vt 0.60156 0.76563
vt 0.60156 0.78125
vt 0.96094 0.31250
vt 0.96094 0.29688
vt 0.98438 0.29688
vt 0.98438 0.31250
vt 0.89844 0.65625
vt 0.89844 0.64063
vt 0.92188 0.64063
vt 0.92188 0.65625
vt 0.93750 0.65625
vt 0.93750 0.64063
vt 0.96094 0.64063
vt 0.96094 0.65625
vt 0.85156 0.73438
vt 0.85156 0.71875
vt 0.87500 0.71875
vt 0.87500 0.73438
vt 0.97656 0.42188
vt 0.97656 0.40625
vt 0.98438 0.40625
vt 0.98438 0.42188
vt 0.97656 0.65625
vt 0.97656 0.64063
vt 0.98438 0.64063
vt 0.98438 0.65625
vt 0.89063 0.73438
vt 0.89063 0.71875
vt 0.89844 0.71875
vt 0.89844 0.73438
vt 0.91406 0.73438
vt 0.91406 0.71875
vt 0.92188 0.71875
vt 0.92188 0.73438
vt 0.93750 0.73438
vt 0.93750 0.71875
vt 0.94531 0.71875
vt 0.94531 0.73438
vt 0.96094 0.73438
vt 0.96094 0.71875
vt 0.96875 0.71875
vt 0.96875 0.73438
vt 0.98438 0.73438
vt 0.98438 0.71875
vt 0.99219 0.71875
vt 0.99219 0.73438
vt 0.61719 0.78125
vt 0.61719 0.76563
vt 0.62500 0.76563
vt 0.62500 0.78125
vt 0.64063 0.78125
vt 0.64063 0.76563
vt 0.64844 0.76563
vt 0.64844 0.78125
vt 0.66406 0.78125
vt 0.66406 0.76563
vt 0.67188 0.76563
vt 0.67188 0.78125
vt 0.68750 0.78125
vt 0.68750 0.76563
vt 0.69531 0.76563
vt 0.69531 0.78125
vt 0.71094 0.78125
vt 0.71094 0.76563
vt 0.71875 0.76563
vt 0.71875 0.78125
vt 0.73438 0.78125
vt 0.73438 0.76563
vt 0.74219 0.76563
vt 0.74219 0.78125
vt 0.75781 0.78125
vt 0.75781 0.76563
vt 0.76563 0.76563
vt 0.76563 0.78125
vt 0.78125 0.78125
vt 0.78125 0.76563
vt 0.78906 0.76563
vt 0.78906 0.78125
vt 0.80469 0.78125
vt 0.80469 0.76563
vt 0.81250 0.76563
vt 0.81250 0.78125
vt 0.82813 0.78125
vt 0.82813 0.76563
vt 0.83594 0.76563
vt 0.83594 0.78125
vt 0.85156 0.78125
vt 0.85156 0.76563
vt 0.85938 0.76563
vt 0.85938 0.78125
vt 0.87500 0.78125
vt 0.87500 0.76563
vt 0.88281 0.76563
vt 0.88281 0.78125
vt 0.89844 0.78125
vt 0.89844 0.76563
vt 0.90625 0.76563
vt 0.90625 0.78125

g window
usemtl window_Material
f 1/49/2 2/50/2 3/51/2 4/52/2
f 5/89/2 6/90/2 7/91/2 8/92/2
f 9/101/2 10/102/2 11/103/2 12/104/2
f 13/133/2 14/134/2 15/135/2 16/136/2
f 17/173/2 18/174/2 19/175/2 20/176/2
f 21/169/2 22/170/2 23/171/2 24/172/2
f 25/181/2 26/182/2 27/183/2 28/184/2
f 29/177/2 30/178/2 31/179/2 32/180/2
f 33/45/1 34/46/1 35/47/1 36/48/1
f 37/93/1 38/94/1 39/95/1 40/96/1
f 41/97/1 42/98/1 43/99/1 44/100/1
f 45/141/1 46/142/1 47/143/1 48/144/1
f 49/165/1 50/166/1 51/167/1 52/168/1
f 53/161/1 54/162/1 55/163/1 56/164/1
f 57/221/1 58/222/1 59/223/1 60/224/1
f 61/217/1 62/218/1 63/219/1 64/220/1
f 4/53/3 3/54/3 34/55/3 33/56/3
f 40/73/3 39/74/3 6/75/3 5/76/3
f 44/77/3 43/78/3 10/79/3 9/80/3
f 48/113/3 47/114/3 14/115/3 13/116/3
f 52/213/3 51/214/3 18/215/3 17/216/3
f 56/225/3 55/226/3 22/227/3 21/228/3
f 60/237/3 59/238/3 26/239/3 25/240/3
f 64/233/3 63/234/3 30/235/3 29/236/3
f 36/41/4 35/42/4 2/43/4 1/44/4
f 8/85/4 7/86/4 38/87/4 37/88/4
f 12/81/4 11/82/4 42/83/4 41/84/4
f 16/117/4 15/118/4 46/119/4 45/120/4
f 20/229/4 19/230/4 50/231/4 49/232/4
f 24/193/4 23/194/4 54/195/4 53/196/4
f 28/189/4 27/190/4 58/191/4 57/192/4
f 32/185/4 31/186/4 62/187/4 61/188/4
f 65/9/5 66/10/5 12/11/5 41/12/5
f 44/13/5 9/14/5 67/15/5 68/16/5
f 69/21/5 70/22/5 8/23/5 37/24/5
f 40/25/5 5/26/5 71/27/5 72/28/5
f 4/33/5 65/34/5 68/35/5 1/36/5
f 66/37/5 33/38/5 36/39/5 67/40/5
f 46/137/5 69/138/5 72/139/5 47/140/5
f 70/125/5 15/126/5 14/127/5 71/128/5
f 73/5/6 74/6/6 38/7/6 7/8/6
f 6/1/6 39/2/6 75/3/6 76/4/6
f 77/17/6 78/18/6 42/19/6 11/20/6
f 10/29/6 43/30/6 79/31/6 80/32/6
f 81/69/6 3/70/6 2/71/6 82/72/6
f 74/65/6 83/66/6 84/67/6 75/68/6
f 85/57/6 73/58/6 76/59/6 86/60/6
f 34/61/6 87/62/6 88/63/6 35/64/6
f 18/105/6 51/106/6 54/107/6 23/108/6
f 78/129/6 45/130/6 48/131/6 79/132/6
f 16/121/6 77/122/6 80/123/6 13/124/6
f 26/109/6 59/110/6 62/111/6 31/112/6
f 83/153/6 81/154/6 50/155/6 19/156/6
f 22/157/6 55/158/6 82/159/6 84/160/6
f 87/145/6 85/146/6 58/147/6 27/148/6
f 30/149/6 63/150/6 86/151/6 88/152/6
f 20/197/6 49/198/6 52/199/6 17/200/6
f 24/209/6 53/210/6 56/211/6 21/212/6
f 28/205/6 57/206/6 60/207/6 25/208/6
f 32/201/6 61/202/6 64/203/6 29/204/6
